<svg width="430" height="258" viewBox="0 0 430 258" fill="none" xmlns="http://www.w3.org/2000/svg">
<g clip-path="url(#clip0)">
<mask id="mask0" mask-type="alpha" maskUnits="userSpaceOnUse" x="0" y="0" width="430" height="258">
<path d="M430 0H0V258H430V0Z" fill="black"/>
</mask>
<g mask="url(#mask0)">
<path d="M430 0H0V258H430V0Z" fill="black"/>
<path d="M86.3826 172H0V258H86.3826V172Z" fill="white"/>
<path d="M171.998 172H128.998V258H171.998V172Z" fill="black"/>
<path d="M429.999 172H215.193V258H429.999V172Z" fill="#283CB5"/>
<path d="M430 86H258V172H430V86Z" fill="#283CB5"/>
<path d="M42.9971 258H215.191V172H42.9971V258Z" fill="#1488CC"/>
<path d="M344 0H172V86H344V0Z" fill="#283CB5"/>
<path fill-rule="evenodd" clip-rule="evenodd" d="M42.8055 0H85.9998L42.8055 86H-0.382812L42.8055 0Z" fill="#283CB5"/>
<path fill-rule="evenodd" clip-rule="evenodd" d="M128.806 0H172L128.806 86H85.6113L128.806 0Z" fill="#283CB5"/>
<path fill-rule="evenodd" clip-rule="evenodd" d="M128.806 172H172L128.806 258H85.6113L128.806 172Z" fill="#283CB5"/>
<path fill-rule="evenodd" clip-rule="evenodd" d="M386.999 0H430.193L386.999 86H343.805L386.999 0Z" fill="#283CB5"/>
<path d="M214.726 257.697C238.581 257.697 257.92 238.445 257.92 214.697C257.92 190.949 238.581 171.697 214.726 171.697C190.87 171.697 171.531 190.949 171.531 214.697C171.531 238.445 190.87 257.697 214.726 257.697Z" fill="black"/>
<path d="M301.116 257.697C324.972 257.697 344.311 238.445 344.311 214.697C344.311 190.949 324.972 171.697 301.116 171.697C277.261 171.697 257.922 190.949 257.922 214.697C257.922 238.445 277.261 257.697 301.116 257.697Z" fill="white"/>
<path d="M386.999 258C410.747 258 429.999 238.748 429.999 215C429.999 191.252 410.747 172 386.999 172C363.251 172 343.999 191.252 343.999 215C343.999 238.748 363.251 258 386.999 258Z" fill="black"/>
<path d="M3.8147e-06 172C23.7483 172 43 152.748 43 129C43 105.252 23.7483 86 3.8147e-06 86C-23.7482 86 -43 105.252 -43 129C-43 152.748 -23.7482 172 3.8147e-06 172Z" fill="#1488CC"/>
<path d="M429.999 0H343.999V86H429.999V0Z" fill="#283CB5"/>
<path fill-rule="evenodd" clip-rule="evenodd" d="M387.576 86H430.771L387.576 172H344.382L387.576 86Z" fill="#1488CC"/>
<path fill-rule="evenodd" clip-rule="evenodd" d="M301.194 86H344.389L301.194 172H258L301.194 86Z" fill="#1488CC"/>
<path fill-rule="evenodd" clip-rule="evenodd" d="M215 43L258 86V0L215 43Z" fill="white"/>
<path fill-rule="evenodd" clip-rule="evenodd" d="M301 43L344 86V0L301 43Z" fill="white"/>
<path d="M301 0H258V86H301V0Z" fill="white"/>
<path d="M344 86L430 86V0L344 0V86Z" fill="white"/>
<path fill-rule="evenodd" clip-rule="evenodd" d="M172 43L215 86V0L172 43Z" fill="white"/>
</g>
</g>
<defs>
<clipPath id="clip0">
<rect width="430" height="258" fill="white"/>
</clipPath>
</defs>
</svg>
