<svg width="166" height="214" viewBox="0 0 166 214" fill="none" xmlns="http://www.w3.org/2000/svg">
<mask id="mask0" mask-type="alpha" maskUnits="userSpaceOnUse" x="0" y="0" width="428" height="257">
<rect width="428" height="257" fill="#C4C4C4"/>
</mask>
<g mask="url(#mask0)">
<path d="M428.035 0H0.0351562V257H428.035V0Z" fill="black"/>
<path d="M86.016 0H0.0351562V85.6667H86.016V0Z" fill="black"/>
<path d="M171.238 0H128.438V85.6667H171.238V0Z" fill="black"/>
<path d="M0.0661621 85.6667L256.836 85.6667V7.62939e-05L0.0661621 7.62939e-05V85.6667Z" fill="#1488CC"/>
<path d="M-0.531937 85.6667C23.2127 85.6667 42.4615 66.4895 42.4615 42.8333C42.4615 19.1771 23.2127 0 -0.531937 0C-24.2766 0 -43.5254 19.1771 -43.5254 42.8333C-43.5254 66.4895 -24.2766 85.6667 -0.531937 85.6667Z" fill="#283CB5"/>
<path d="M85.4485 85.6667C109.193 85.6667 128.442 66.4895 128.442 42.8333C128.442 19.1771 109.193 0 85.4485 0C61.7039 0 42.4551 19.1771 42.4551 42.8333C42.4551 66.4895 61.7039 85.6667 85.4485 85.6667Z" fill="black"/>
<path d="M171.238 85.6667C194.875 85.6667 214.037 66.4895 214.037 42.8333C214.037 19.1771 194.875 0 171.238 0C147.6 0 128.438 19.1771 128.438 42.8333C128.438 66.4895 147.6 85.6667 171.238 85.6667Z" fill="#283CB5"/>
<path fill-rule="evenodd" clip-rule="evenodd" d="M85.6371 257H42.6436L-0.34375 171.333H42.6497L85.6371 257Z" fill="white"/>
<path fill-rule="evenodd" clip-rule="evenodd" d="M171.448 257H128.454L85.4609 171.333H128.454L171.448 257Z" fill="#1488CC"/>
<path d="M42.6417 85.6667H0.0351562V171.333H42.6417V85.6667Z" fill="#283CB5"/>
</g>
</svg>
