<svg width="30" height="41" viewBox="0 0 30 41" fill="none" xmlns="http://www.w3.org/2000/svg">
<path fill-rule="evenodd" clip-rule="evenodd" d="M15 0C6.71542 0 0 6.71542 0 15C0 24.3274 7.53472 32.1815 13.4406 38.6095C14.2793 39.5218 15.7207 39.5218 16.5594 38.6095C22.4653 32.1815 30 24.3274 30 15C30 6.71542 23.2846 0 15 0Z" fill="#1488CC"/>
<path d="M19.5147 10.1556L23.9106 10.7891C25.1571 10.9687 25.6566 12.4999 24.7559 13.3799L21.5791 16.4836C21.2214 16.8332 21.0587 17.3363 21.1437 17.8291L21.8997 22.2055C22.114 23.4466 20.8124 24.3947 19.6968 23.8101L15.7633 21.7482C15.3203 21.516 14.7914 21.5165 14.3491 21.7498L10.4204 23.8213C9.30642 24.4086 8.00234 23.4635 8.21367 22.222L8.95915 17.8437C9.043 17.3507 8.87919 16.8478 8.5205 16.4992L5.33683 13.403C4.43393 12.525 4.9297 10.9927 6.17598 10.8101L10.5703 10.1663C11.0651 10.0939 11.4926 9.7825 11.7133 9.33379L13.6742 5.34867C14.2303 4.21867 15.8408 4.21662 16.3994 5.34547L18.3696 9.3258C18.5915 9.77382 19.0196 10.0843 19.5147 10.1556Z" fill="white"/>
</svg>
