<svg width="32" height="32" viewBox="0 0 32 32" fill="none" xmlns="http://www.w3.org/2000/svg">
<path fill-rule="evenodd" clip-rule="evenodd" d="M16 32C7.17785 32 0 24.8222 0 16C0 7.17785 7.17785 0 16 0C24.8222 0 32 7.17785 32 16C32 24.8222 24.8222 32 16 32ZM16 2.46154C8.53415 2.46154 2.46153 8.53662 2.46153 16C2.46153 23.4634 8.53415 29.5385 16 29.5385C23.4658 29.5385 29.5385 23.4634 29.5385 16C29.5385 8.53662 23.4658 2.46154 16 2.46154ZM12.6671 21.7945C12.8985 22.0234 13.2135 22.1538 13.5385 22.1538H13.5779C13.9175 22.1415 14.24 21.9889 14.464 21.7329L23.0794 11.8868C23.5274 11.3748 23.4757 10.5994 22.9637 10.1514C22.4517 9.70338 21.6739 9.75015 21.2259 10.2671L13.4769 19.1237L9.48431 15.1311C9.00432 14.6511 8.22401 14.6511 7.74401 15.1311C7.26401 15.6111 7.26401 16.3914 7.74401 16.8714L12.6671 21.7945Z" fill="white"/>
</svg>
