<svg width="320" height="80" viewBox="0 0 320 80" fill="none" xmlns="http://www.w3.org/2000/svg">
<g clip-path="url(#clip0)">
<path d="M155.54 0.790195C158.47 0.790195 160.84 3.1702 160.82 6.1002L160.78 11.6002C160.76 14.5002 158.4 16.8402 155.5 16.8402H124.78C124 16.8402 123.37 17.4702 123.37 18.2502V33.9802V50.0302L123.35 50.0502V70.1102C123.35 74.3602 119.9 77.8102 115.65 77.8102H110.95C106.7 77.8102 103.25 74.3602 103.25 70.1102V12.5902C103.25 6.2902 108.19 1.1602 114.41 0.820195C114.63 0.810195 114.84 0.790195 115.06 0.790195H155.54ZM177.18 32.8602H180.13V16.9802H177.18V32.8602ZM195.63 25.9202C195.63 22.2702 193.47 20.6102 190.57 20.6102C188.8 20.6102 187.33 21.2002 186.39 22.3102V20.7402H183.69V32.8602H186.53V26.7302C186.53 24.3002 187.89 23.0802 189.91 23.0802C191.73 23.0802 192.79 24.1202 192.79 26.2802V32.8602H195.63V25.9202ZM205.28 30.1902C204.85 30.5302 204.28 30.6902 203.69 30.6902C202.6 30.6902 202.01 30.0502 202.01 28.8702V23.1002H205.25V20.8302H202.01V18.0602H199.17V20.8302H197.17V23.1002H199.17V28.9302C199.17 31.6102 200.69 33.0202 203.35 33.0202C204.37 33.0202 205.39 32.7502 206.07 32.2002L205.28 30.1902ZM209.36 25.8302C209.63 24.0602 210.97 22.8802 212.81 22.8802C214.67 22.8802 216.01 24.0802 216.24 25.8302H209.36ZM218.9 27.7102C218.92 27.4402 218.94 27.1002 218.94 26.8702C218.94 23.0802 216.35 20.6102 212.81 20.6102C209.2 20.6102 206.55 23.2002 206.55 26.8002C206.55 30.4102 209.18 33.0202 213.24 33.0202C215.33 33.0202 217.03 32.3402 218.12 31.0502L216.6 29.3002C215.74 30.1902 214.67 30.6202 213.31 30.6202C211.2 30.6202 209.72 29.4802 209.38 27.7102H218.9ZM228.22 20.6102C226.2 20.6102 224.72 21.2502 223.91 22.5202V20.7502H221.21V32.8702H224.05V26.9902C224.05 24.5202 225.41 23.2502 227.57 23.2502C227.78 23.2502 227.98 23.2702 228.23 23.3202V20.6102H228.22ZM242.11 25.9202C242.11 22.2702 239.95 20.6102 237.05 20.6102C235.28 20.6102 233.81 21.2002 232.87 22.3102V20.7402H230.17V32.8602H233.01V26.7302C233.01 24.3002 234.37 23.0802 236.39 23.0802C238.21 23.0802 239.27 24.1202 239.27 26.2802V32.8602H242.11V25.9202ZM252.57 29.0702C252.1 30.3202 250.89 30.9502 249.51 30.9502C248.06 30.9502 247.2 30.2902 247.2 29.2702C247.2 28.3902 247.72 27.6602 249.65 27.6602H252.58V29.0702H252.57ZM255.41 25.7602C255.41 22.2702 253.39 20.6102 249.89 20.6102C247.94 20.6102 246.05 21.1102 244.76 22.1102L245.87 24.1802C246.78 23.4302 248.18 22.9802 249.55 22.9802C251.57 22.9802 252.57 23.9602 252.57 25.6102V25.7902H249.44C245.76 25.7902 244.4 27.3802 244.4 29.4002C244.4 31.5102 246.15 33.0302 248.92 33.0302C250.74 33.0302 252.05 32.4402 252.73 31.4002V32.8702H255.41V25.7602ZM265.07 30.1902C264.64 30.5302 264.07 30.6902 263.48 30.6902C262.39 30.6902 261.8 30.0502 261.8 28.8702V23.1002H265.05V20.8302H261.8V18.0602H258.96V20.8302H256.96V23.1002H258.96V28.9302C258.96 31.6102 260.48 33.0202 263.14 33.0202C264.16 33.0202 265.18 32.7502 265.86 32.2002L265.07 30.1902ZM267.75 32.8602H270.59V20.7402H267.75V32.8602ZM267.37 17.0402C267.37 17.9902 268.14 18.7402 269.19 18.7402C270.26 18.7402 271.01 17.9702 271.01 16.9702C271.01 16.0402 270.24 15.3402 269.19 15.3402C268.14 15.3402 267.37 16.0902 267.37 17.0402ZM282.91 26.8002C282.91 29.1202 281.37 30.5902 279.3 30.5902C277.26 30.5902 275.71 29.1202 275.71 26.8002C275.71 24.4902 277.25 23.0102 279.3 23.0102C281.37 23.0102 282.91 24.4902 282.91 26.8002ZM272.86 26.8002C272.86 30.4302 275.58 33.0202 279.31 33.0202C283.08 33.0202 285.78 30.4302 285.78 26.8002C285.78 23.1702 283.08 20.6102 279.31 20.6102C275.58 20.6102 272.86 23.1702 272.86 26.8002ZM299.97 25.9202C299.97 22.2702 297.81 20.6102 294.91 20.6102C293.14 20.6102 291.67 21.2002 290.73 22.3102V20.7402H288.03V32.8602H290.87V26.7302C290.87 24.3002 292.23 23.0802 294.25 23.0802C296.07 23.0802 297.13 24.1202 297.13 26.2802V32.8602H299.97V25.9202ZM310.44 29.0702C309.97 30.3202 308.76 30.9502 307.38 30.9502C305.93 30.9502 305.07 30.2902 305.07 29.2702C305.07 28.3902 305.59 27.6602 307.52 27.6602H310.45V29.0702H310.44ZM313.28 25.7602C313.28 22.2702 311.26 20.6102 307.76 20.6102C305.81 20.6102 303.92 21.1102 302.63 22.1102L303.74 24.1802C304.65 23.4302 306.05 22.9802 307.42 22.9802C309.44 22.9802 310.44 23.9602 310.44 25.6102V25.7902H307.31C303.63 25.7902 302.27 27.3802 302.27 29.4002C302.27 31.5102 304.02 33.0302 306.79 33.0302C308.61 33.0302 309.92 32.4402 310.6 31.4002V32.8702H313.28V25.7602ZM316.45 32.8602H319.29V16.7402H316.45V32.8602ZM176.05 47.8402C176.05 52.5902 179.68 56.0102 184.54 56.0102C187.15 56.0102 189.37 55.0802 190.85 53.3602L188.94 51.5402C187.78 52.8102 186.35 53.4202 184.7 53.4202C181.41 53.4202 179.03 51.1002 179.03 47.8402C179.03 44.5702 181.41 42.2602 184.7 42.2602C186.36 42.2602 187.79 42.8702 188.94 44.1202L190.85 42.3302C189.37 40.6102 187.15 39.6802 184.56 39.6802C179.68 39.6702 176.05 43.1002 176.05 47.8402ZM201.56 49.7202C201.56 52.0402 200.02 53.5102 197.95 53.5102C195.91 53.5102 194.36 52.0302 194.36 49.7202C194.36 47.4102 195.9 45.9302 197.95 45.9302C200.02 45.9302 201.56 47.4102 201.56 49.7202ZM191.5 49.7202C191.5 53.3502 194.22 55.9402 197.95 55.9402C201.72 55.9402 204.42 53.3502 204.42 49.7202C204.42 46.0902 201.72 43.5302 197.95 43.5302C194.23 43.5302 191.5 46.0902 191.5 49.7202ZM213.83 51.9902C213.36 53.2402 212.15 53.8702 210.77 53.8702C209.32 53.8702 208.46 53.2102 208.46 52.1902C208.46 51.3102 208.98 50.5802 210.91 50.5802H213.84V51.9902H213.83ZM216.67 48.6802C216.67 45.1802 214.65 43.5302 211.15 43.5302C209.2 43.5302 207.31 44.0302 206.02 45.0302L207.13 47.1002C208.04 46.3502 209.44 45.9002 210.81 45.9002C212.83 45.9002 213.83 46.8802 213.83 48.5302V48.7102H210.7C207.02 48.7102 205.66 50.3002 205.66 52.3202C205.66 54.4302 207.41 55.9502 210.18 55.9502C212 55.9502 213.31 55.3602 213.99 54.3202V55.7902H216.67V48.6802ZM218.96 49.7202C218.96 53.3502 221.68 55.9402 225.52 55.9402C227.88 55.9402 229.76 54.9202 230.69 53.1002L228.51 51.8302C227.78 52.9902 226.69 53.5102 225.49 53.5102C223.4 53.5102 221.81 52.0802 221.81 49.7202C221.81 47.3802 223.4 45.9302 225.49 45.9302C226.69 45.9302 227.78 46.4502 228.51 47.6102L230.69 46.3402C229.76 44.5002 227.88 43.5302 225.52 43.5302C221.68 43.5302 218.96 46.0902 218.96 49.7202ZM244.52 48.8402C244.52 45.1902 242.36 43.5302 239.46 43.5302C237.78 43.5302 236.35 44.0702 235.42 45.0702V38.9402H232.58V55.7802H235.42V49.6502C235.42 47.2202 236.78 46.0002 238.8 46.0002C240.62 46.0002 241.68 47.0402 241.68 49.2002V55.7802H244.52V48.8402ZM247.67 55.7802H250.51V43.6602H247.67V55.7802ZM247.28 39.9602C247.28 40.9102 248.05 41.6602 249.1 41.6602C250.17 41.6602 250.92 40.8902 250.92 39.8902C250.92 38.9602 250.15 38.2602 249.1 38.2602C248.05 38.2602 247.28 39.0102 247.28 39.9602ZM265.71 48.8402C265.71 45.1902 263.55 43.5302 260.65 43.5302C258.88 43.5302 257.41 44.1202 256.47 45.2302V43.6602H253.77V55.7802H256.61V49.6502C256.61 47.2202 257.97 46.0002 259.99 46.0002C261.81 46.0002 262.87 47.0402 262.87 49.2002V55.7802H265.71V48.8402ZM278.21 49.3602C278.21 51.4202 276.67 52.8302 274.53 52.8302C272.37 52.8302 270.83 51.4202 270.83 49.3602C270.83 47.3202 272.37 45.9302 274.53 45.9302C276.67 45.9302 278.21 47.3202 278.21 49.3602ZM278.3 43.6602V45.2702C277.3 44.0702 275.8 43.5202 274.1 43.5202C270.63 43.5202 267.97 45.8402 267.97 49.3502C267.97 52.8702 270.63 55.2302 274.1 55.2302C275.73 55.2302 277.16 54.7102 278.16 53.6202V54.2502C278.16 56.7002 276.98 57.9302 274.3 57.9302C272.62 57.9302 270.9 57.3602 269.83 56.4802L268.56 58.6102C269.94 59.7402 272.19 60.3302 274.46 60.3302C278.7 60.3302 281 58.3302 281 53.9302V43.6602H278.3ZM188.78 64.2002V61.7302H177.18V77.6202H180.13V71.5402H187.8V69.0402H180.13V64.2002H188.78ZM192.39 70.5702C192.66 68.8002 194 67.6202 195.84 67.6202C197.7 67.6202 199.04 68.8202 199.27 70.5702H192.39ZM201.92 72.4602C201.94 72.1902 201.97 71.8502 201.97 71.6202C201.97 67.8302 199.38 65.3602 195.84 65.3602C192.23 65.3602 189.58 67.9502 189.58 71.5502C189.58 75.1602 192.21 77.7702 196.28 77.7702C198.37 77.7702 200.07 77.0902 201.16 75.8002L199.64 74.0502C198.78 74.9402 197.71 75.3702 196.35 75.3702C194.24 75.3702 192.76 74.2302 192.42 72.4602H201.92ZM213.31 71.5502C213.31 73.8702 211.74 75.3402 209.7 75.3402C207.66 75.3402 206.09 73.8702 206.09 71.5502C206.09 69.2402 207.66 67.7602 209.7 67.7602C211.74 67.7602 213.31 69.2402 213.31 71.5502ZM213.26 60.7702V66.9902C212.31 65.8802 210.92 65.3602 209.36 65.3602C205.84 65.3602 203.23 67.7902 203.23 71.5602C203.23 75.3302 205.84 77.7802 209.36 77.7802C211.02 77.7802 212.42 77.2102 213.38 76.0602V77.6302H216.1V60.7702H213.26ZM221.18 70.5702C221.45 68.8002 222.79 67.6202 224.63 67.6202C226.49 67.6202 227.83 68.8202 228.06 70.5702H221.18ZM230.72 72.4602C230.74 72.1902 230.76 71.8502 230.76 71.6202C230.76 67.8302 228.17 65.3602 224.63 65.3602C221.02 65.3602 218.37 67.9502 218.37 71.5502C218.37 75.1602 221 77.7702 225.06 77.7702C227.15 77.7702 228.85 77.0902 229.94 75.8002L228.42 74.0502C227.56 74.9402 226.49 75.3702 225.13 75.3702C223.02 75.3702 221.54 74.2302 221.2 72.4602H230.72ZM240.04 65.3502C238.02 65.3502 236.54 65.9902 235.73 67.2602V65.4902H233.03V77.6102H235.87V71.7302C235.87 69.2602 237.23 67.9902 239.39 67.9902C239.6 67.9902 239.8 68.0102 240.05 68.0602V65.3502H240.04ZM249.23 73.8202C248.76 75.0702 247.55 75.7002 246.17 75.7002C244.72 75.7002 243.86 75.0402 243.86 74.0202C243.86 73.1402 244.38 72.4102 246.31 72.4102H249.24V73.8202H249.23ZM252.07 70.5102C252.07 67.0202 250.05 65.3602 246.55 65.3602C244.6 65.3602 242.71 65.8602 241.42 66.8602L242.53 68.9302C243.44 68.1802 244.84 67.7302 246.21 67.7302C248.23 67.7302 249.23 68.7102 249.23 70.3602V70.5402H246.1C242.42 70.5402 241.06 72.1302 241.06 74.1502C241.06 76.2602 242.81 77.7802 245.58 77.7802C247.4 77.7802 248.71 77.1902 249.39 76.1502V77.6202H252.07V70.5102ZM261.74 74.9302C261.31 75.2702 260.74 75.4302 260.15 75.4302C259.06 75.4302 258.47 74.7902 258.47 73.6102V67.8502H261.71V65.5802H258.47V62.8102H255.63V65.5802H253.63V67.8502H255.63V73.6802C255.63 76.3602 257.15 77.7702 259.81 77.7702C260.83 77.7702 261.85 77.5002 262.53 76.9502L261.74 74.9302ZM264.41 77.6102H267.25V65.4902H264.41V77.6102ZM264.03 61.7902C264.03 62.7402 264.8 63.4902 265.85 63.4902C266.92 63.4902 267.67 62.7202 267.67 61.7202C267.67 60.7902 266.9 60.0902 265.85 60.0902C264.8 60.0902 264.03 60.8402 264.03 61.7902ZM279.57 71.5502C279.57 73.8702 278.03 75.3402 275.96 75.3402C273.92 75.3402 272.37 73.8702 272.37 71.5502C272.37 69.2402 273.91 67.7602 275.96 67.7602C278.03 67.7602 279.57 69.2302 279.57 71.5502ZM269.52 71.5502C269.52 75.1802 272.24 77.7702 275.97 77.7702C279.74 77.7702 282.44 75.1802 282.44 71.5502C282.44 67.9202 279.74 65.3602 275.97 65.3602C272.24 65.3502 269.52 67.9202 269.52 71.5502ZM296.64 70.6702C296.64 67.0202 294.48 65.3602 291.58 65.3602C289.81 65.3602 288.34 65.9502 287.4 67.0602V65.4902H284.7V77.6102H287.54V71.4802C287.54 69.0502 288.9 67.8302 290.92 67.8302C292.74 67.8302 293.8 68.8702 293.8 71.0302V77.6102H296.64V70.6702ZM20.1 8.4002C20.1 4.1502 16.65 0.700195 12.4 0.700195H7.7C3.45 0.700195 0 4.1502 0 8.4002V69.9902C0 74.2402 3.45 77.6902 7.7 77.6902H12.4C16.65 77.6902 20.1 74.2402 20.1 69.9902V8.4002Z" fill="white"/>
<path d="M57.1601 2.34C48.0001 4.73 39.7401 10.32 33.9901 17.82C28.0301 25.58 26.0501 36.23 27.4101 45.85C28.1101 50.78 29.7201 55.59 32.2101 59.91C38.2801 70.43 49.4501 77.83 61.5001 79.32C71.5901 80.56 81.8701 77.84 90.9201 73.22C101.5 67.83 110.41 59.91 119.63 52.49C126.9 46.63 134.37 41.08 142.99 37.31C148.94 34.71 155.17 32.77 161.55 31.55C156.31 30.94 156.31 30.94 154.16 30.81C151.47 30.64 148.77 30.6 146.08 30.67C140.71 30.82 135.35 31.46 130.11 32.66C119.33 35.13 110.06 40.14 101.24 46.69C97.1501 49.73 93.1101 52.86 88.7401 55.51C81.0701 60.16 71.7601 63.26 63.1401 60.8C54.9701 58.47 48.5401 50.92 47.5401 42.48C46.5401 34.04 51.0301 25.2 58.4301 21.03C65.8301 16.86 75.7201 17.59 82.4201 22.81C84.0401 24.07 85.7101 25.65 87.7701 25.57C89.6601 25.49 91.1501 24.01 92.4101 22.61C94.7501 20.04 97.1901 16.79 96.3001 13.44C95.7201 11.26 93.8601 9.68 92.0001 8.41C84.9101 3.56 76.3101 1 67.7301 1C64.1701 1 60.6101 1.44 57.1601 2.34Z" fill="white"/>
</g>
<defs>
<clipPath id="clip0">
<rect width="319.29" height="79.57" fill="white"/>
</clipPath>
</defs>
</svg>
