<svg width="39" height="40" viewBox="0 0 39 40" fill="none" xmlns="http://www.w3.org/2000/svg">
<path fill-rule="evenodd" clip-rule="evenodd" d="M29.1237 14.6541C34.2307 14.6541 38.4027 18.8261 38.4027 23.9331C38.4027 29.0401 34.2307 33.2121 29.1237 33.2121H21.4487V39.6301H19.6027C11.7277 39.6301 4.59873 34.9121 1.52173 27.6361L4.90973 26.2091C7.13273 31.4651 12.0927 35.2061 17.7577 35.8381V29.5211H29.1237C32.1937 29.5211 34.7117 27.0031 34.7117 23.9331C34.7117 20.8631 32.1937 18.3451 29.1237 18.3451H10.0817V14.6541H29.1237ZM19.6027 0.370117C27.4787 0.370117 34.6077 5.08912 37.6837 12.3641L34.2957 13.7911C32.0727 8.53512 27.1137 4.79412 21.4487 4.16212V10.9121H10.0817C7.01173 10.9121 4.49373 13.4301 4.49373 16.4991C4.49373 19.5691 7.01173 22.0881 10.0817 22.0881H29.1237V25.7781H10.0817C4.97473 25.7781 0.802734 21.6071 0.802734 16.5001C0.802734 11.3931 4.97373 7.22112 10.0817 7.22112H17.7577V0.370117H19.6027Z" fill="url(#paint0_linear)"/>
<defs>
<linearGradient id="paint0_linear" x1="57.2027" y1="20.0001" x2="17.9793" y2="-17.5648" gradientUnits="userSpaceOnUse">
<stop stop-color="white"/>
<stop offset="1" stop-color="white"/>
</linearGradient>
</defs>
</svg>
