<svg width="174" height="40" viewBox="0 0 174 40" fill="none" xmlns="http://www.w3.org/2000/svg">
<path fill-rule="evenodd" clip-rule="evenodd" d="M29.124 14.654C34.231 14.654 38.403 18.826 38.403 23.933C38.403 29.04 34.231 33.212 29.124 33.212H21.449V39.63H19.603C11.728 39.63 4.59898 34.912 1.52198 27.636L4.90998 26.209C7.13298 31.465 12.093 35.206 17.758 35.838V29.521H29.124C32.194 29.521 34.712 27.003 34.712 23.933C34.712 20.863 32.194 18.345 29.124 18.345H10.082V14.654H29.124ZM19.603 0.369999C27.479 0.369999 34.608 5.089 37.684 12.364L34.296 13.791C32.073 8.535 27.114 4.794 21.449 4.162V10.912H10.082C7.01198 10.912 4.49398 13.43 4.49398 16.499C4.49398 19.569 7.01198 22.088 10.082 22.088H29.124V25.778H10.082C4.97498 25.778 0.802979 21.607 0.802979 16.5C0.802979 11.393 4.97398 7.221 10.082 7.221H17.758V0.369999H19.603Z" fill="url(#paint0_linear)"/>
<g clip-path="url(#clip0)">
<path fill-rule="evenodd" clip-rule="evenodd" d="M95.0531 11.736C96.7951 11.736 98.2471 12.186 99.4091 13.087C100.57 13.988 101.285 15.183 101.553 16.672H98.0691C97.6961 15.362 96.6911 14.706 95.0531 14.706C93.6831 14.706 92.6371 15.201 91.9151 16.192C91.1931 17.182 90.8311 18.451 90.8311 20C90.8311 21.549 91.1931 22.818 91.9151 23.809C92.6371 24.799 93.6831 25.294 95.0531 25.294C95.9021 25.294 96.6061 25.082 97.1641 24.657C97.7221 24.233 98.0841 23.641 98.2471 22.882H101.71C101.471 24.505 100.76 25.808 99.5761 26.791C98.3921 27.773 96.8851 28.265 95.0531 28.265C92.6561 28.265 90.7831 27.509 89.4351 25.998C88.0881 24.486 87.4141 22.487 87.4141 20C87.4141 17.513 88.0911 15.514 89.4471 14.003C90.8021 12.491 92.6711 11.736 95.0531 11.736ZM115.125 12.026V14.997H106.66V18.347H113.249V21.251H106.66V25.004H115.371V27.974H103.332V12.026H115.125ZM121.215 12.026L127.067 22.837H127.648V12.026H130.686V27.974H126.375L120.523 17.163H119.942V27.974H116.904V12.026H121.215ZM144.817 12.026V14.952H139.858V27.974H136.53V14.952H131.571V12.026H144.817ZM153.229 12.026C155.001 12.026 156.378 12.462 157.361 13.333C158.344 14.204 158.835 15.421 158.835 16.985C158.835 18.995 158.046 20.417 156.468 21.251L158.858 27.974H155.507L153.363 21.966H150.515V19.129H152.76C153.713 19.129 154.398 18.954 154.815 18.604C155.232 18.254 155.44 17.729 155.44 17.029C155.44 16.285 155.213 15.753 154.759 15.432C154.305 15.112 153.527 14.952 152.425 14.952H149.052V27.974H145.724V12.026H153.229ZM172.43 12.026V14.997H163.964V18.347H170.554V21.251H163.964V25.004H172.676V27.974H160.636V12.026H172.43Z" fill="#283CB5"/>
<path fill-rule="evenodd" clip-rule="evenodd" d="M65.2281 11.736C66.9701 11.736 68.4221 12.186 69.5841 13.087C70.7451 13.988 71.4601 15.183 71.7281 16.672H68.2431C67.8711 15.362 66.8661 14.706 65.2281 14.706C63.8581 14.706 62.8121 15.201 62.0901 16.192C61.3671 17.182 61.0061 18.451 61.0061 20C61.0061 21.549 61.3671 22.818 62.0901 23.809C62.8121 24.799 63.8581 25.294 65.2281 25.294C66.0771 25.294 66.7811 25.082 67.3391 24.657C67.8971 24.233 68.2591 23.641 68.4221 22.882H71.8851C71.6461 24.505 70.9351 25.808 69.7511 26.791C68.5671 27.773 67.0601 28.265 65.2281 28.265C62.8311 28.265 60.9581 27.509 59.6101 25.998C58.2631 24.486 57.5891 22.487 57.5891 20C57.5891 17.513 58.2661 15.514 59.6221 14.003C60.9771 12.491 62.8451 11.736 65.2281 11.736ZM55.8551 12.026V27.974H52.5271V12.026H55.8551ZM80.7891 12.026C82.6201 12.026 84.0381 12.473 85.0441 13.366C86.0491 14.26 86.5511 15.503 86.5511 17.096C86.5511 18.72 86.0491 19.985 85.0441 20.894C84.0381 21.802 82.6201 22.256 80.7891 22.256H78.2981V19.33H80.3191C81.3171 19.33 82.0351 19.148 82.4751 18.783C82.9141 18.418 83.1341 17.871 83.1341 17.141C83.1341 16.411 82.9141 15.864 82.4751 15.499C82.0351 15.135 81.3171 14.952 80.3191 14.952H76.8351V27.974H73.5071V12.026H80.7891Z" fill="#1488CC"/>
</g>
<defs>
<linearGradient id="paint0_linear" x1="57.203" y1="20" x2="17.9796" y2="-17.5649" gradientUnits="userSpaceOnUse">
<stop stop-color="#1488CC"/>
<stop offset="1" stop-color="#283CB5"/>
</linearGradient>
<clipPath id="clip0">
<rect width="121" height="17" fill="white" transform="translate(52.5271 11.736)"/>
</clipPath>
</defs>
</svg>
