<svg preserveAspectRatio="xMinYMin slice" viewBox="0 0 56 834" fill="none" xmlns="http://www.w3.org/2000/svg">
<mask id="mask0" mask-type="alpha" maskUnits="userSpaceOnUse" x="0" y="0" width="57" height="834">
<rect y="834" width="834" height="57" transform="rotate(-90 0 834)" fill="#252E37"/>
</mask>
<g mask="url(#mask0)">
<rect y="741" width="56" height="56" transform="rotate(-90 0 741)" fill="#1488CC"/>
<rect y="546" width="28" height="56" transform="rotate(-90 0 546)" fill="white"/>
<rect y="518" width="28" height="56" transform="rotate(-90 0 518)" fill="black"/>
<rect y="825" width="28" height="56" transform="rotate(-90 0 825)" fill="#1488CC"/>
<rect y="490" width="168" height="56" transform="rotate(-90 0 490)" fill="#283CB5"/>
<rect y="797" width="112" height="56" transform="rotate(-90 0 797)" fill="#283CB5"/>
<path fill-rule="evenodd" clip-rule="evenodd" d="M0 462L0 434L56 462V490L0 462Z" fill="#1488CC"/>
<path fill-rule="evenodd" clip-rule="evenodd" d="M0 769L0 741L56 769V797L0 769Z" fill="#1488CC"/>
<path fill-rule="evenodd" clip-rule="evenodd" d="M0 713L0 685L56 713V741L0 713Z" fill="#1488CC"/>
<path fill-rule="evenodd" clip-rule="evenodd" d="M28 518L0 546H56L28 518Z" fill="#1488CC"/>
<path fill-rule="evenodd" clip-rule="evenodd" d="M28 490L0 518H56L28 490Z" fill="white"/>
<rect y="685" width="56" height="56" transform="rotate(-90 0 685)" fill="#283CB5"/>
<rect y="629" width="84" height="56" transform="rotate(-90 0 629)" fill="#1488CC"/>
<rect y="853" width="28" height="56" transform="rotate(-90 0 853)" fill="black"/>
<circle cx="28" cy="657" r="28" transform="rotate(-90 28 657)" fill="black"/>
<circle cx="28" cy="601" r="28" transform="rotate(-90 28 601)" fill="white"/>
<ellipse cx="28" cy="559" rx="14" ry="28" transform="rotate(-90 28 559)" fill="black"/>
<path fill-rule="evenodd" clip-rule="evenodd" d="M0 406L0 378L56 406V434L0 406Z" fill="black"/>
<rect y="182" width="56" height="56" transform="rotate(-90 0 182)" fill="#1488CC"/>
<rect y="266" width="28" height="56" transform="rotate(-90 0 266)" fill="#1488CC"/>
<rect y="238" width="112" height="56" transform="rotate(-90 0 238)" fill="#283CB5"/>
<path fill-rule="evenodd" clip-rule="evenodd" d="M0 210L0 182L56 210V238L0 210Z" fill="#1488CC"/>
<path fill-rule="evenodd" clip-rule="evenodd" d="M0 154L0 126L56 154V182L0 154Z" fill="#1488CC"/>
<rect y="126" width="56" height="56" transform="rotate(-90 0 126)" fill="#283CB5"/>
<rect y="70" width="84" height="56" transform="rotate(-90 0 70)" fill="#1488CC"/>
<rect y="322" width="28" height="56" transform="rotate(-90 0 322)" fill="#1488CC"/>
<rect y="294" width="28" height="56" transform="rotate(-90 0 294)" fill="black"/>
<circle cx="28" cy="98" r="28" transform="rotate(-90 28 98)" fill="black"/>
<circle cx="28" cy="42" r="28" transform="rotate(-90 28 42)" fill="white"/>
<ellipse cx="28" rx="14" ry="28" transform="rotate(-90 28 0)" fill="black"/>
</g>
</svg>
