<svg width="159" height="71" viewBox="0 0 159 71" fill="none" xmlns="http://www.w3.org/2000/svg">
<path d="M3.61325 40.5034C3.68524 40.5574 3.77523 40.6114 3.84722 40.6654C6.69086 36.0039 10.2544 30.8566 14.6998 25.6013C19.1093 20.3819 24.4366 14.9826 30.9698 9.67328C30.9698 9.67328 26.5243 12.3369 20.6031 17.0703C14.7898 21.7318 7.46476 28.4449 0.949585 37.1558C1.56151 38.5236 2.4434 39.6755 3.61325 40.5034Z" fill="#FEBD3B"/>
<path d="M0.283574 28.7329C-0.0583823 30.8026 -0.0943778 32.7644 0.193586 34.5102C3.72114 30.4967 8.0046 26.1052 13.026 21.8578C15.5636 19.716 18.2993 17.5923 21.2509 15.5766C24.2385 13.5248 27.4781 11.5271 30.9697 9.69131C30.9697 9.69131 26.7942 10.9872 20.819 14.1008C17.9213 15.6126 14.5918 17.5383 11.0822 19.968C7.64464 22.3257 3.9911 25.2233 0.283574 28.7329Z" fill="#FEBD3B"/>
<path d="M28.108 2.27629C26.3982 1.84435 24.5084 1.93434 22.5287 2.43827C20.6029 2.92421 18.5872 3.8421 16.6074 5.06594C12.7019 7.47763 8.79644 11.2752 5.66483 15.9546C5.1429 16.7285 4.65696 17.5384 4.18902 18.3303C2.87519 20.634 1.84932 22.9737 1.16541 25.2234C4.87294 22.2358 9.26438 19.0862 14.1418 16.3685C16.6254 14.9647 19.2711 13.6688 22.0428 12.553C24.8684 11.4011 27.856 10.4293 31.0056 9.69135C31.0056 9.69135 28.126 9.52937 23.5186 10.4293C21.2869 10.8612 18.6772 11.5271 15.7976 12.589C12.9899 13.6149 9.9123 15.0007 6.63671 16.8724C6.7267 16.7465 6.79869 16.6205 6.87068 16.4945C9.64233 12.337 13.1159 8.97145 16.5895 6.82972C18.3532 5.74985 20.135 4.95795 21.8268 4.544C23.5546 4.13006 25.2284 4.07607 26.7222 4.49001C29.8178 5.33591 31.6175 7.99957 31.9055 11.7431C32.0675 13.6868 31.8155 15.9006 31.1316 18.2583C30.4477 20.67 29.3318 23.2436 27.748 25.7993C23.7345 32.3505 18.0293 37.0479 12.8819 38.6497C14.6457 34.3302 16.9314 29.6868 19.901 24.7914C22.8167 19.9681 26.4162 14.9287 30.9516 9.67335C30.9516 9.67335 26.9921 13.2009 22.0068 18.8162C19.4871 21.6598 16.7154 25.0434 13.9978 28.8409C11.2441 32.6744 8.52647 36.9939 6.16877 41.6913C7.46461 42.0153 8.86843 42.0333 10.1823 41.8893C11.4601 41.7453 12.7739 41.2953 13.9798 40.8274C15.0776 40.3775 16.1215 39.8555 17.1294 39.2616C18.2272 38.6137 19.2711 37.8938 20.279 37.1019C21.3408 36.274 22.3667 35.3561 23.3386 34.4022C24.3645 33.3943 25.3183 32.3325 26.2182 31.2166C27.1721 30.0468 28.054 28.8409 28.8459 27.5811C29.0619 27.2571 29.2598 26.9152 29.4758 26.5912C31.2756 23.6216 32.5534 20.67 33.3273 17.8803C34.0652 15.1627 34.3352 12.625 34.1372 10.4293C33.9393 8.28753 33.2913 6.46976 32.2475 5.06594C31.2756 3.66212 29.8718 2.72624 28.108 2.27629Z" fill="#FEBD3B"/>
<path d="M38.28 6.328L32.404 42H40.724L42.96 28.532H48.264C51.176 28.532 55.752 28.428 59.444 25.724C62.2 23.696 64.28 20.212 64.28 15.74C64.28 13.92 63.968 11.268 61.836 9.24C58.924 6.432 53.932 6.328 51.176 6.328H38.28ZM45.56 12.568H51.384C52.424 12.568 53.776 12.828 54.66 13.504C55.648 14.232 55.96 15.272 55.96 16.468C55.96 18.236 55.388 19.536 54.296 20.576C52.788 21.98 51.124 22.188 49.512 22.188H44L45.56 12.568ZM94.7317 18.808C94.6277 15.532 93.4317 11.632 91.1437 9.292C89.6877 7.784 86.8277 5.808 81.8357 5.808C76.0117 5.808 71.7997 8.304 68.7837 12.1C65.6117 16.104 63.8437 21.98 63.8437 27.232C63.8437 31.132 65.0397 34.772 67.1197 37.424C68.8357 39.608 72.2157 42.52 77.9357 42.52C82.8757 42.52 86.8797 40.804 90.2597 36.072C91.5597 34.252 92.4437 32.38 93.0157 30.456L85.5797 29.104C84.3317 34.564 80.8997 36.176 78.1957 36.176C76.5317 36.176 75.0757 35.448 74.1397 34.356C72.7357 32.744 72.4757 30.352 72.4757 28.688C72.4757 25.308 73.3077 20.264 75.0237 16.728C76.2197 14.284 77.9877 12.048 81.2637 12.048C83.4997 12.048 84.9557 12.88 85.9957 14.7C86.9317 16.312 87.1917 18.444 87.1917 19.692L94.7317 18.808ZM126.146 18.808C126.042 15.532 124.846 11.632 122.558 9.292C121.102 7.784 118.242 5.808 113.25 5.808C107.426 5.808 103.214 8.304 100.198 12.1C97.0257 16.104 95.2577 21.98 95.2577 27.232C95.2577 31.132 96.4537 34.772 98.5337 37.424C100.25 39.608 103.63 42.52 109.35 42.52C114.29 42.52 118.294 40.804 121.674 36.072C122.974 34.252 123.858 32.38 124.43 30.456L116.994 29.104C115.746 34.564 112.314 36.176 109.61 36.176C107.946 36.176 106.49 35.448 105.554 34.356C104.15 32.744 103.89 30.352 103.89 28.688C103.89 25.308 104.722 20.264 106.438 16.728C107.634 14.284 109.402 12.048 112.678 12.048C114.914 12.048 116.37 12.88 117.41 14.7C118.346 16.312 118.606 18.444 118.606 19.692L126.146 18.808Z" fill="#1E3793"/>
<path d="M1.74 60.14H0.88V67H1.74V60.14ZM3.98719 67V64.31C3.98719 63.96 4.01719 63.3 4.52719 62.83C4.77719 62.6 5.10719 62.46 5.47719 62.46C5.91719 62.46 6.14719 62.65 6.25719 62.79C6.46719 63.07 6.46719 63.46 6.46719 63.84V67H7.22719V63.65C7.22719 63.19 7.18719 62.66 6.83719 62.27C6.63719 62.05 6.26719 61.8 5.63719 61.8C4.84719 61.8 4.24719 62.21 3.94719 62.86H3.92719V61.92H3.22719V67H3.98719ZM9.53242 60.54L8.77242 60.62V61.9H7.88242V62.52H8.77242V65.64C8.77242 65.9 8.79242 66.37 9.11242 66.7C9.43242 67.02 9.91242 67.06 10.2324 67.06C10.4824 67.06 10.7324 67.04 10.9624 67V66.38C10.7824 66.41 10.5724 66.44 10.3924 66.44C10.0724 66.44 9.88242 66.35 9.77242 66.25C9.54242 66.04 9.53242 65.73 9.53242 65.53V62.52H10.6824V61.9H9.53242V60.54ZM14.9465 65.46C14.8865 65.64 14.7765 65.85 14.6365 66C14.4565 66.2 14.1265 66.44 13.5765 66.44C12.9565 66.44 12.4965 66.16 12.2465 65.55C12.1265 65.26 12.0665 64.9 12.0765 64.56H15.7765V64.38C15.7765 63.56 15.4665 61.8 13.5665 61.8C11.9565 61.8 11.1965 63.13 11.1965 64.49C11.1965 65.2 11.3665 65.85 11.8165 66.36C12.2565 66.86 12.8265 67.1 13.5465 67.1C14.0365 67.1 14.4565 66.99 14.8565 66.72C15.2865 66.42 15.5465 66.05 15.6865 65.61L14.9465 65.46ZM12.1165 63.94C12.1265 63.58 12.2565 63.21 12.4665 62.94C12.6965 62.66 13.0765 62.42 13.5765 62.42C14.1765 62.42 14.4965 62.75 14.6565 63.01C14.8065 63.26 14.8865 63.63 14.8965 63.94H12.1165ZM16.7385 61.9V67H17.4985V64.44C17.4985 63.88 17.5785 63.5 17.8685 63.13C18.2785 62.61 18.7685 62.56 19.0585 62.55C19.1085 62.55 19.1685 62.55 19.2185 62.55V61.81C19.1185 61.79 19.0285 61.79 18.9285 61.79C18.5685 61.79 18.2485 61.93 18.0285 62.12C17.7685 62.34 17.5485 62.72 17.4585 63.11H17.4385V61.9H16.7385ZM20.697 67V64.31C20.697 63.96 20.727 63.3 21.237 62.83C21.487 62.6 21.817 62.46 22.187 62.46C22.627 62.46 22.857 62.65 22.967 62.79C23.177 63.07 23.177 63.46 23.177 63.84V67H23.937V63.65C23.937 63.19 23.897 62.66 23.547 62.27C23.347 62.05 22.977 61.8 22.347 61.8C21.557 61.8 20.957 62.21 20.657 62.86H20.637V61.92H19.937V67H20.697ZM25.8122 63.31C25.9322 62.48 26.8122 62.42 27.2322 62.42C27.5922 62.42 28.0322 62.44 28.2922 62.79C28.4722 63.03 28.4922 63.37 28.4922 63.64V63.85H27.8322C27.0522 63.85 26.2522 63.86 25.6322 64.28C25.3322 64.48 24.9422 64.88 24.9422 65.57C24.9422 66.1 25.1822 66.45 25.4022 66.65C25.6522 66.88 26.0622 67.1 26.7122 67.1C27.9122 67.1 28.3522 66.34 28.4922 66.05C28.5022 66.3 28.5222 66.63 28.5822 67H29.3822C29.2822 66.55 29.2522 66.21 29.2522 65.93V63.97C29.2522 63.31 29.2422 62.61 28.6922 62.17C28.2422 61.81 27.5822 61.8 27.2422 61.8C26.1322 61.8 25.3022 62.1 25.0822 63.19L25.8122 63.31ZM28.4922 64.47V64.72C28.4922 65.08 28.3522 65.55 28.0922 65.87C27.8222 66.2 27.3822 66.44 26.8822 66.44C26.5322 66.44 26.2922 66.35 26.1522 66.25C25.8622 66.06 25.7822 65.77 25.7822 65.57C25.7822 65.31 25.8822 64.94 26.3022 64.72C26.5822 64.57 27.0422 64.47 27.8422 64.47H28.4922ZM31.4816 60.54L30.7216 60.62V61.9H29.8316V62.52H30.7216V65.64C30.7216 65.9 30.7416 66.37 31.0616 66.7C31.3816 67.02 31.8616 67.06 32.1816 67.06C32.4316 67.06 32.6816 67.04 32.9116 67V66.38C32.7316 66.41 32.5216 66.44 32.3416 66.44C32.0216 66.44 31.8316 66.35 31.7216 66.25C31.4916 66.04 31.4816 65.73 31.4816 65.53V62.52H32.6316V61.9H31.4816V60.54ZM34.3157 61.9H33.5557V67H34.3157V61.9ZM34.3557 60.14H33.5157V61.02H34.3557V60.14ZM35.3285 64.45C35.3285 65.36 35.6485 66.09 36.0985 66.52C36.4085 66.81 36.9185 67.1 37.6285 67.1C38.3385 67.1 38.8485 66.81 39.1585 66.52C39.6085 66.09 39.9285 65.36 39.9285 64.45C39.9285 63.54 39.6085 62.81 39.1585 62.38C38.8485 62.09 38.3385 61.8 37.6285 61.8C36.9185 61.8 36.4085 62.09 36.0985 62.38C35.6485 62.81 35.3285 63.54 35.3285 64.45ZM37.6285 66.44C37.2385 66.44 36.9185 66.3 36.6985 66.08C36.2285 65.61 36.2085 64.75 36.2085 64.45C36.2085 64.15 36.2285 63.29 36.6985 62.82C36.9185 62.6 37.2385 62.46 37.6285 62.46C38.0185 62.46 38.3385 62.6 38.5585 62.82C39.0285 63.29 39.0485 64.15 39.0485 64.45C39.0485 64.75 39.0285 65.61 38.5585 66.08C38.3385 66.3 38.0185 66.44 37.6285 66.44ZM41.6989 67V64.31C41.6989 63.96 41.7289 63.3 42.2389 62.83C42.4889 62.6 42.8189 62.46 43.1889 62.46C43.6289 62.46 43.8589 62.65 43.9689 62.79C44.1789 63.07 44.1789 63.46 44.1789 63.84V67H44.9389V63.65C44.9389 63.19 44.8989 62.66 44.5489 62.27C44.3489 62.05 43.9789 61.8 43.3489 61.8C42.5589 61.8 41.9589 62.21 41.6589 62.86H41.6389V61.92H40.9389V67H41.6989ZM46.8141 63.31C46.9341 62.48 47.8141 62.42 48.2341 62.42C48.5941 62.42 49.0341 62.44 49.2941 62.79C49.4741 63.03 49.4941 63.37 49.4941 63.64V63.85H48.8341C48.0541 63.85 47.2541 63.86 46.6341 64.28C46.3341 64.48 45.9441 64.88 45.9441 65.57C45.9441 66.1 46.1841 66.45 46.4041 66.65C46.6541 66.88 47.0641 67.1 47.7141 67.1C48.9141 67.1 49.3541 66.34 49.4941 66.05C49.5041 66.3 49.5241 66.63 49.5841 67H50.3841C50.2841 66.55 50.2541 66.21 50.2541 65.93V63.97C50.2541 63.31 50.2441 62.61 49.6941 62.17C49.2441 61.81 48.5841 61.8 48.2441 61.8C47.1341 61.8 46.3041 62.1 46.0841 63.19L46.8141 63.31ZM49.4941 64.47V64.72C49.4941 65.08 49.3541 65.55 49.0941 65.87C48.8241 66.2 48.3841 66.44 47.8841 66.44C47.5341 66.44 47.2941 66.35 47.1541 66.25C46.8641 66.06 46.7841 65.77 46.7841 65.57C46.7841 65.31 46.8841 64.94 47.3041 64.72C47.5841 64.57 48.0441 64.47 48.8441 64.47H49.4941ZM52.3536 60.14H51.5936V67H52.3536V60.14ZM60.8604 62.23C60.7804 61.58 60.4704 61.02 60.0804 60.65C59.5304 60.14 58.9404 60.04 58.3904 60.04C57.9304 60.04 57.0304 60.12 56.3204 60.95C56.1104 61.19 55.5404 61.96 55.5404 63.46C55.5404 64.35 55.7604 65.26 56.1904 65.92C56.8904 66.98 57.7904 67.1 58.4104 67.1C58.9204 67.1 59.5004 67.01 60.0904 66.39C60.4804 65.98 60.7504 65.43 60.8604 64.86L60.0804 64.69C59.9604 65.31 59.6404 65.7 59.5104 65.85C59.2004 66.19 58.8704 66.36 58.3704 66.36C57.5204 66.36 57.0404 65.82 56.7804 65.27C56.5404 64.76 56.4604 64.09 56.4604 63.5C56.4604 63.01 56.5104 62.26 56.8404 61.69C57.2404 60.98 57.8004 60.78 58.3704 60.78C58.9404 60.78 59.3604 60.99 59.6904 61.49C59.8904 61.79 60.0004 62.13 60.0504 62.38L60.8604 62.23ZM61.3355 64.45C61.3355 65.36 61.6555 66.09 62.1055 66.52C62.4155 66.81 62.9255 67.1 63.6355 67.1C64.3455 67.1 64.8555 66.81 65.1655 66.52C65.6155 66.09 65.9355 65.36 65.9355 64.45C65.9355 63.54 65.6155 62.81 65.1655 62.38C64.8555 62.09 64.3455 61.8 63.6355 61.8C62.9255 61.8 62.4155 62.09 62.1055 62.38C61.6555 62.81 61.3355 63.54 61.3355 64.45ZM63.6355 66.44C63.2455 66.44 62.9255 66.3 62.7055 66.08C62.2355 65.61 62.2155 64.75 62.2155 64.45C62.2155 64.15 62.2355 63.29 62.7055 62.82C62.9255 62.6 63.2455 62.46 63.6355 62.46C64.0255 62.46 64.3455 62.6 64.5655 62.82C65.0355 63.29 65.0555 64.15 65.0555 64.45C65.0555 64.75 65.0355 65.61 64.5655 66.08C64.3455 66.3 64.0255 66.44 63.6355 66.44ZM67.4059 63.31C67.5259 62.48 68.4059 62.42 68.8259 62.42C69.1859 62.42 69.6259 62.44 69.8859 62.79C70.0659 63.03 70.0859 63.37 70.0859 63.64V63.85H69.4259C68.6459 63.85 67.8459 63.86 67.2259 64.28C66.9259 64.48 66.5359 64.88 66.5359 65.57C66.5359 66.1 66.7759 66.45 66.9959 66.65C67.2459 66.88 67.6559 67.1 68.3059 67.1C69.5059 67.1 69.9459 66.34 70.0859 66.05C70.0959 66.3 70.1159 66.63 70.1759 67H70.9759C70.8759 66.55 70.8459 66.21 70.8459 65.93V63.97C70.8459 63.31 70.8359 62.61 70.2859 62.17C69.8359 61.81 69.1759 61.8 68.8359 61.8C67.7259 61.8 66.8959 62.1 66.6759 63.19L67.4059 63.31ZM70.0859 64.47V64.72C70.0859 65.08 69.9459 65.55 69.6859 65.87C69.4159 66.2 68.9759 66.44 68.4759 66.44C68.1259 66.44 67.8859 66.35 67.7459 66.25C67.4559 66.06 67.3759 65.77 67.3759 65.57C67.3759 65.31 67.4759 64.94 67.8959 64.72C68.1759 64.57 68.6359 64.47 69.4359 64.47H70.0859ZM75.8954 63.55C75.8354 63.18 75.6654 62.71 75.3754 62.38C75.0154 61.97 74.5454 61.8 73.9854 61.8C73.1654 61.8 72.6554 62.15 72.3054 62.63C71.9254 63.16 71.7754 63.78 71.7754 64.46C71.7754 65.32 72.0354 66.14 72.5354 66.6C72.8354 66.87 73.2954 67.1 73.9354 67.1C74.4854 67.1 74.9554 66.93 75.3154 66.56C75.6054 66.26 75.8254 65.81 75.8954 65.32L75.1754 65.19C75.1354 65.48 75.0254 65.79 74.8454 66.02C74.6154 66.31 74.3354 66.44 73.9554 66.44C73.4554 66.44 73.1554 66.18 72.9854 65.93C72.9254 65.85 72.6554 65.43 72.6554 64.47C72.6554 64.06 72.7054 63.48 72.9854 63.03C73.2054 62.67 73.5254 62.46 73.9654 62.46C74.4654 62.46 74.7554 62.71 74.8954 62.91C75.0254 63.1 75.1354 63.4 75.1754 63.68L75.8954 63.55ZM77.5696 60.14H76.8096V67H77.5696V64.39C77.5696 63.86 77.6596 63.38 77.9796 62.99C78.1596 62.77 78.5096 62.46 79.0796 62.46C79.4996 62.46 79.7296 62.64 79.8396 62.79C80.0496 63.07 80.0496 63.46 80.0496 63.84V67H80.8096V63.65C80.8096 63.19 80.7696 62.66 80.4196 62.27C80.2296 62.05 79.8496 61.8 79.2196 61.8C78.4196 61.8 77.8596 62.24 77.5696 62.86V60.14ZM88.6288 60.14H84.4288V67H85.2888V63.76H88.0588V63.06H85.2888V60.88H88.6288V60.14ZM92.3621 65.46C92.3021 65.64 92.1921 65.85 92.0521 66C91.8721 66.2 91.5421 66.44 90.9921 66.44C90.3721 66.44 89.9121 66.16 89.6621 65.55C89.5421 65.26 89.4821 64.9 89.4921 64.56H93.1921V64.38C93.1921 63.56 92.8821 61.8 90.9821 61.8C89.3721 61.8 88.6121 63.13 88.6121 64.49C88.6121 65.2 88.7821 65.85 89.2321 66.36C89.6721 66.86 90.2421 67.1 90.9621 67.1C91.4521 67.1 91.8721 66.99 92.2721 66.72C92.7021 66.42 92.9621 66.05 93.1021 65.61L92.3621 65.46ZM89.5321 63.94C89.5421 63.58 89.6721 63.21 89.8821 62.94C90.1121 62.66 90.4921 62.42 90.9921 62.42C91.5921 62.42 91.9121 62.75 92.0721 63.01C92.2221 63.26 92.3021 63.63 92.3121 63.94H89.5321ZM97.3041 60.14V62.58C97.2041 62.43 97.0741 62.28 96.9141 62.15C96.5941 61.9 96.2341 61.8 95.8341 61.8C95.2341 61.8 94.7741 62.02 94.4241 62.39C94.0141 62.82 93.7441 63.54 93.7441 64.49C93.7441 65.38 94.0141 65.97 94.2941 66.34C94.6541 66.81 95.1441 67.1 95.8241 67.1C96.3441 67.1 96.7441 66.91 97.0241 66.63C97.1941 66.46 97.2941 66.28 97.3441 66.14H97.3641V67H98.0641V60.14H97.3041ZM97.3041 64.93C97.3041 65.28 97.1541 65.69 96.9641 65.94C96.7441 66.22 96.3741 66.44 95.9241 66.44C95.4641 66.44 95.1441 66.22 94.9241 65.84C94.7741 65.58 94.6241 65.16 94.6241 64.43C94.6241 63.86 94.7141 63.38 94.9341 63.03C95.2041 62.61 95.5641 62.46 95.9641 62.46C96.4141 62.46 96.7441 62.66 96.9441 62.89C97.1541 63.13 97.3041 63.5 97.3041 63.86V64.93ZM102.821 65.46C102.761 65.64 102.651 65.85 102.511 66C102.331 66.2 102.001 66.44 101.451 66.44C100.831 66.44 100.371 66.16 100.121 65.55C100.001 65.26 99.9415 64.9 99.9515 64.56H103.651V64.38C103.651 63.56 103.341 61.8 101.441 61.8C99.8315 61.8 99.0715 63.13 99.0715 64.49C99.0715 65.2 99.2415 65.85 99.6915 66.36C100.131 66.86 100.701 67.1 101.421 67.1C101.911 67.1 102.331 66.99 102.731 66.72C103.161 66.42 103.421 66.05 103.561 65.61L102.821 65.46ZM99.9915 63.94C100.001 63.58 100.131 63.21 100.341 62.94C100.571 62.66 100.951 62.42 101.451 62.42C102.051 62.42 102.371 62.75 102.531 63.01C102.681 63.26 102.761 63.63 102.771 63.94H99.9915ZM104.614 61.9V67H105.374V64.44C105.374 63.88 105.454 63.5 105.744 63.13C106.154 62.61 106.644 62.56 106.934 62.55C106.984 62.55 107.044 62.55 107.094 62.55V61.81C106.994 61.79 106.904 61.79 106.804 61.79C106.444 61.79 106.124 61.93 105.904 62.12C105.644 62.34 105.424 62.72 105.334 63.11H105.314V61.9H104.614ZM108.223 63.31C108.343 62.48 109.223 62.42 109.643 62.42C110.003 62.42 110.443 62.44 110.703 62.79C110.883 63.03 110.903 63.37 110.903 63.64V63.85H110.243C109.463 63.85 108.663 63.86 108.043 64.28C107.743 64.48 107.353 64.88 107.353 65.57C107.353 66.1 107.593 66.45 107.813 66.65C108.063 66.88 108.473 67.1 109.123 67.1C110.323 67.1 110.763 66.34 110.903 66.05C110.913 66.3 110.933 66.63 110.993 67H111.793C111.693 66.55 111.663 66.21 111.663 65.93V63.97C111.663 63.31 111.653 62.61 111.103 62.17C110.653 61.81 109.993 61.8 109.653 61.8C108.543 61.8 107.713 62.1 107.493 63.19L108.223 63.31ZM110.903 64.47V64.72C110.903 65.08 110.763 65.55 110.503 65.87C110.233 66.2 109.793 66.44 109.293 66.44C108.943 66.44 108.703 66.35 108.563 66.25C108.273 66.06 108.193 65.77 108.193 65.57C108.193 65.31 108.293 64.94 108.713 64.72C108.993 64.57 109.453 64.47 110.253 64.47H110.903ZM113.893 60.54L113.133 60.62V61.9H112.243V62.52H113.133V65.64C113.133 65.9 113.153 66.37 113.473 66.7C113.793 67.02 114.273 67.06 114.593 67.06C114.843 67.06 115.093 67.04 115.323 67V66.38C115.143 66.41 114.933 66.44 114.753 66.44C114.433 66.44 114.243 66.35 114.133 66.25C113.903 66.04 113.893 65.73 113.893 65.53V62.52H115.043V61.9H113.893V60.54ZM116.727 61.9H115.967V67H116.727V61.9ZM116.767 60.14H115.927V61.02H116.767V60.14ZM117.739 64.45C117.739 65.36 118.059 66.09 118.509 66.52C118.819 66.81 119.329 67.1 120.039 67.1C120.749 67.1 121.259 66.81 121.569 66.52C122.019 66.09 122.339 65.36 122.339 64.45C122.339 63.54 122.019 62.81 121.569 62.38C121.259 62.09 120.749 61.8 120.039 61.8C119.329 61.8 118.819 62.09 118.509 62.38C118.059 62.81 117.739 63.54 117.739 64.45ZM120.039 66.44C119.649 66.44 119.329 66.3 119.109 66.08C118.639 65.61 118.619 64.75 118.619 64.45C118.619 64.15 118.639 63.29 119.109 62.82C119.329 62.6 119.649 62.46 120.039 62.46C120.429 62.46 120.749 62.6 120.969 62.82C121.439 63.29 121.459 64.15 121.459 64.45C121.459 64.75 121.439 65.61 120.969 66.08C120.749 66.3 120.429 66.44 120.039 66.44ZM124.11 67V64.31C124.11 63.96 124.14 63.3 124.65 62.83C124.9 62.6 125.23 62.46 125.6 62.46C126.04 62.46 126.27 62.65 126.38 62.79C126.59 63.07 126.59 63.46 126.59 63.84V67H127.35V63.65C127.35 63.19 127.31 62.66 126.96 62.27C126.76 62.05 126.39 61.8 125.76 61.8C124.97 61.8 124.37 62.21 124.07 62.86H124.05V61.92H123.35V67H124.11Z" fill="#1E3793"/>
<path d="M0.88 50.14V57H1.74V54.22H3.18C3.65 54.22 4.36 54.23 4.96 53.68C5.16 53.5 5.6 53.01 5.6 52.14C5.6 51.31 5.21 50.84 4.87 50.58C4.35 50.19 3.7 50.14 3.15 50.14H0.88ZM1.74 53.48V50.88H3.16C3.48 50.88 3.95 50.92 4.28 51.19C4.44 51.32 4.68 51.61 4.68 52.12C4.68 52.57 4.51 52.93 4.28 53.14C3.9 53.48 3.39 53.48 3.08 53.48H1.74ZM6.85961 51.9V57H7.61961V54.44C7.61961 53.88 7.69961 53.5 7.98961 53.13C8.39961 52.61 8.88961 52.56 9.17961 52.55C9.22961 52.55 9.28961 52.55 9.33961 52.55V51.81C9.23961 51.79 9.14961 51.79 9.04961 51.79C8.68961 51.79 8.36961 51.93 8.14961 52.12C7.88961 52.34 7.66961 52.72 7.57961 53.11H7.55961V51.9H6.85961ZM9.95039 54.45C9.95039 55.36 10.2704 56.09 10.7204 56.52C11.0304 56.81 11.5404 57.1 12.2504 57.1C12.9604 57.1 13.4704 56.81 13.7804 56.52C14.2304 56.09 14.5504 55.36 14.5504 54.45C14.5504 53.54 14.2304 52.81 13.7804 52.38C13.4704 52.09 12.9604 51.8 12.2504 51.8C11.5404 51.8 11.0304 52.09 10.7204 52.38C10.2704 52.81 9.95039 53.54 9.95039 54.45ZM12.2504 56.44C11.8604 56.44 11.5404 56.3 11.3204 56.08C10.8504 55.61 10.8304 54.75 10.8304 54.45C10.8304 54.15 10.8504 53.29 11.3204 52.82C11.5404 52.6 11.8604 52.46 12.2504 52.46C12.6404 52.46 12.9604 52.6 13.1804 52.82C13.6504 53.29 13.6704 54.15 13.6704 54.45C13.6704 54.75 13.6504 55.61 13.1804 56.08C12.9604 56.3 12.6404 56.44 12.2504 56.44ZM18.3908 50.11C18.2308 50.08 17.9708 50.04 17.6508 50.04C17.3608 50.04 16.9108 50.08 16.5908 50.36C16.1708 50.73 16.1308 51.32 16.1308 51.76V51.9H15.2308V52.52H16.1308V57H16.8908V52.52H18.0908V51.9H16.8908V51.56C16.8908 51.36 16.9208 51.07 17.1108 50.87C17.2908 50.68 17.5508 50.66 17.7408 50.66C17.8908 50.66 18.1008 50.67 18.3908 50.73V50.11ZM22.4891 55.46C22.4291 55.64 22.3191 55.85 22.1791 56C21.9991 56.2 21.6691 56.44 21.1191 56.44C20.4991 56.44 20.0391 56.16 19.7891 55.55C19.6691 55.26 19.6091 54.9 19.6191 54.56H23.3191V54.38C23.3191 53.56 23.0091 51.8 21.1091 51.8C19.4991 51.8 18.7391 53.13 18.7391 54.49C18.7391 55.2 18.9091 55.85 19.3591 56.36C19.7991 56.86 20.3691 57.1 21.0891 57.1C21.5791 57.1 21.9991 56.99 22.3991 56.72C22.8291 56.42 23.0891 56.05 23.2291 55.61L22.4891 55.46ZM19.6591 53.94C19.6691 53.58 19.7991 53.21 20.0091 52.94C20.2391 52.66 20.6191 52.42 21.1191 52.42C21.7191 52.42 22.0391 52.75 22.1991 53.01C22.3491 53.26 22.4291 53.63 22.4391 53.94H19.6591ZM28.2911 53.07C28.2011 52.76 28.0311 52.49 27.8311 52.3C27.3611 51.85 26.7411 51.8 26.3211 51.8C25.8311 51.8 25.2611 51.88 24.8411 52.24C24.5811 52.46 24.3811 52.8 24.3811 53.27C24.3811 54.26 25.2411 54.57 25.8711 54.69L26.6411 54.84C27.0811 54.93 27.6311 55.04 27.6311 55.63C27.6311 55.77 27.6011 56.04 27.3311 56.24C27.0611 56.45 26.6611 56.48 26.4411 56.48C25.7311 56.48 25.3911 56.21 25.2911 56.13C25.2011 56.05 25.0011 55.85 24.9311 55.5L24.1711 55.65C24.3211 56.28 24.7311 56.64 25.0711 56.82C25.3511 56.97 25.7811 57.1 26.4811 57.1C26.8811 57.1 27.5311 57.07 28.0111 56.66C28.3611 56.36 28.5111 55.99 28.5111 55.57C28.5111 55.03 28.2911 54.7 28.1011 54.52C27.7311 54.18 27.1811 54.09 26.8511 54.03L26.1611 53.9C25.9011 53.85 25.2611 53.77 25.2611 53.2C25.2611 52.93 25.4211 52.42 26.3311 52.42C26.9811 52.42 27.4111 52.75 27.5711 53.22L28.2911 53.07ZM33.3837 53.07C33.2937 52.76 33.1237 52.49 32.9237 52.3C32.4537 51.85 31.8337 51.8 31.4137 51.8C30.9237 51.8 30.3537 51.88 29.9337 52.24C29.6737 52.46 29.4737 52.8 29.4737 53.27C29.4737 54.26 30.3337 54.57 30.9637 54.69L31.7337 54.84C32.1737 54.93 32.7237 55.04 32.7237 55.63C32.7237 55.77 32.6937 56.04 32.4237 56.24C32.1537 56.45 31.7537 56.48 31.5337 56.48C30.8237 56.48 30.4837 56.21 30.3837 56.13C30.2937 56.05 30.0937 55.85 30.0237 55.5L29.2637 55.65C29.4137 56.28 29.8237 56.64 30.1637 56.82C30.4437 56.97 30.8737 57.1 31.5737 57.1C31.9737 57.1 32.6237 57.07 33.1037 56.66C33.4537 56.36 33.6037 55.99 33.6037 55.57C33.6037 55.03 33.3837 54.7 33.1937 54.52C32.8237 54.18 32.2737 54.09 31.9437 54.03L31.2537 53.9C30.9937 53.85 30.3537 53.77 30.3537 53.2C30.3537 52.93 30.5137 52.42 31.4237 52.42C32.0737 52.42 32.5037 52.75 32.6637 53.22L33.3837 53.07ZM35.6263 51.9H34.8663V57H35.6263V51.9ZM35.6663 50.14H34.8263V51.02H35.6663V50.14ZM37.0391 54.45C37.0391 55.36 37.3591 56.09 37.8091 56.52C38.1191 56.81 38.6291 57.1 39.3391 57.1C40.0491 57.1 40.5591 56.81 40.8691 56.52C41.3191 56.09 41.6391 55.36 41.6391 54.45C41.6391 53.54 41.3191 52.81 40.8691 52.38C40.5591 52.09 40.0491 51.8 39.3391 51.8C38.6291 51.8 38.1191 52.09 37.8091 52.38C37.3591 52.81 37.0391 53.54 37.0391 54.45ZM39.3391 56.44C38.9491 56.44 38.6291 56.3 38.4091 56.08C37.9391 55.61 37.9191 54.75 37.9191 54.45C37.9191 54.15 37.9391 53.29 38.4091 52.82C38.6291 52.6 38.9491 52.46 39.3391 52.46C39.7291 52.46 40.0491 52.6 40.2691 52.82C40.7391 53.29 40.7591 54.15 40.7591 54.45C40.7591 54.75 40.7391 55.61 40.2691 56.08C40.0491 56.3 39.7291 56.44 39.3391 56.44ZM43.8095 57V54.31C43.8095 53.96 43.8395 53.3 44.3495 52.83C44.5995 52.6 44.9295 52.46 45.2995 52.46C45.7395 52.46 45.9695 52.65 46.0795 52.79C46.2895 53.07 46.2895 53.46 46.2895 53.84V57H47.0495V53.65C47.0495 53.19 47.0095 52.66 46.6595 52.27C46.4595 52.05 46.0895 51.8 45.4595 51.8C44.6695 51.8 44.0695 52.21 43.7695 52.86H43.7495V51.92H43.0495V57H43.8095ZM49.3247 53.31C49.4447 52.48 50.3247 52.42 50.7447 52.42C51.1047 52.42 51.5447 52.44 51.8047 52.79C51.9847 53.03 52.0047 53.37 52.0047 53.64V53.85H51.3447C50.5647 53.85 49.7647 53.86 49.1447 54.28C48.8447 54.48 48.4547 54.88 48.4547 55.57C48.4547 56.1 48.6947 56.45 48.9147 56.65C49.1647 56.88 49.5747 57.1 50.2247 57.1C51.4247 57.1 51.8647 56.34 52.0047 56.05C52.0147 56.3 52.0347 56.63 52.0947 57H52.8947C52.7947 56.55 52.7647 56.21 52.7647 55.93V53.97C52.7647 53.31 52.7547 52.61 52.2047 52.17C51.7547 51.81 51.0947 51.8 50.7547 51.8C49.6447 51.8 48.8147 52.1 48.5947 53.19L49.3247 53.31ZM52.0047 54.47V54.72C52.0047 55.08 51.8647 55.55 51.6047 55.87C51.3347 56.2 50.8947 56.44 50.3947 56.44C50.0447 56.44 49.8047 56.35 49.6647 56.25C49.3747 56.06 49.2947 55.77 49.2947 55.57C49.2947 55.31 49.3947 54.94 49.8147 54.72C50.0947 54.57 50.5547 54.47 51.3547 54.47H52.0047ZM55.2641 50.14H54.5041V57H55.2641V50.14ZM64.5709 52.23C64.4909 51.58 64.1809 51.02 63.7909 50.65C63.2409 50.14 62.6509 50.04 62.1009 50.04C61.6409 50.04 60.7409 50.12 60.0309 50.95C59.8209 51.19 59.2509 51.96 59.2509 53.46C59.2509 54.35 59.4709 55.26 59.9009 55.92C60.6009 56.98 61.5009 57.1 62.1209 57.1C62.6309 57.1 63.2109 57.01 63.8009 56.39C64.1909 55.98 64.4609 55.43 64.5709 54.86L63.7909 54.69C63.6709 55.31 63.3509 55.7 63.2209 55.85C62.9109 56.19 62.5809 56.36 62.0809 56.36C61.2309 56.36 60.7509 55.82 60.4909 55.27C60.2509 54.76 60.1709 54.09 60.1709 53.5C60.1709 53.01 60.2209 52.26 60.5509 51.69C60.9509 50.98 61.5109 50.78 62.0809 50.78C62.6509 50.78 63.0709 50.99 63.4009 51.49C63.6009 51.79 63.7109 52.13 63.7609 52.38L64.5709 52.23ZM69.1961 55.46C69.1361 55.64 69.0261 55.85 68.8861 56C68.7061 56.2 68.3761 56.44 67.8261 56.44C67.2061 56.44 66.7461 56.16 66.4961 55.55C66.3761 55.26 66.3161 54.9 66.3261 54.56H70.0261V54.38C70.0261 53.56 69.7161 51.8 67.8161 51.8C66.2061 51.8 65.4461 53.13 65.4461 54.49C65.4461 55.2 65.6161 55.85 66.0661 56.36C66.5061 56.86 67.0761 57.1 67.7961 57.1C68.2861 57.1 68.7061 56.99 69.1061 56.72C69.5361 56.42 69.7961 56.05 69.9361 55.61L69.1961 55.46ZM66.3661 53.94C66.3761 53.58 66.5061 53.21 66.7161 52.94C66.9461 52.66 67.3261 52.42 67.8261 52.42C68.4261 52.42 68.7461 52.75 68.9061 53.01C69.0561 53.26 69.1361 53.63 69.1461 53.94H66.3661ZM71.3881 51.9V57H72.1481V54.44C72.1481 53.88 72.2281 53.5 72.5181 53.13C72.9281 52.61 73.4181 52.56 73.7081 52.55C73.7581 52.55 73.8181 52.55 73.8681 52.55V51.81C73.7681 51.79 73.6781 51.79 73.5781 51.79C73.2181 51.79 72.8981 51.93 72.6781 52.12C72.4181 52.34 72.1981 52.72 72.1081 53.11H72.0881V51.9H71.3881ZM75.8766 50.54L75.1166 50.62V51.9H74.2266V52.52H75.1166V55.64C75.1166 55.9 75.1366 56.37 75.4566 56.7C75.7766 57.02 76.2566 57.06 76.5766 57.06C76.8266 57.06 77.0766 57.04 77.3066 57V56.38C77.1266 56.41 76.9166 56.44 76.7366 56.44C76.4166 56.44 76.2266 56.35 76.1166 56.25C75.8866 56.04 75.8766 55.73 75.8766 55.53V52.52H77.0266V51.9H75.8766V50.54ZM79.1106 51.9H78.3506V57H79.1106V51.9ZM79.1506 50.14H78.3106V51.02H79.1506V50.14ZM83.3634 50.11C83.2034 50.08 82.9434 50.04 82.6234 50.04C82.3334 50.04 81.8834 50.08 81.5634 50.36C81.1434 50.73 81.1034 51.32 81.1034 51.76V51.9H80.2034V52.52H81.1034V57H81.8634V52.52H83.0634V51.9H81.8634V51.56C81.8634 51.36 81.8934 51.07 82.0834 50.87C82.2634 50.68 82.5234 50.66 82.7134 50.66C82.8634 50.66 83.0734 50.67 83.3634 50.73V50.11ZM84.7645 51.9H84.0045V57H84.7645V51.9ZM84.8045 50.14H83.9645V51.02H84.8045V50.14ZM89.9273 55.46C89.8673 55.64 89.7573 55.85 89.6173 56C89.4373 56.2 89.1073 56.44 88.5573 56.44C87.9373 56.44 87.4773 56.16 87.2273 55.55C87.1073 55.26 87.0473 54.9 87.0573 54.56H90.7573V54.38C90.7573 53.56 90.4473 51.8 88.5473 51.8C86.9373 51.8 86.1773 53.13 86.1773 54.49C86.1773 55.2 86.3473 55.85 86.7973 56.36C87.2373 56.86 87.8073 57.1 88.5273 57.1C89.0173 57.1 89.4373 56.99 89.8373 56.72C90.2673 56.42 90.5273 56.05 90.6673 55.61L89.9273 55.46ZM87.0973 53.94C87.1073 53.58 87.2373 53.21 87.4473 52.94C87.6773 52.66 88.0573 52.42 88.5573 52.42C89.1573 52.42 89.4773 52.75 89.6373 53.01C89.7873 53.26 89.8673 53.63 89.8773 53.94H87.0973ZM95.2694 50.14V52.58C95.1694 52.43 95.0394 52.28 94.8794 52.15C94.5594 51.9 94.1994 51.8 93.7994 51.8C93.1994 51.8 92.7394 52.02 92.3894 52.39C91.9794 52.82 91.7094 53.54 91.7094 54.49C91.7094 55.38 91.9794 55.97 92.2594 56.34C92.6194 56.81 93.1094 57.1 93.7894 57.1C94.3094 57.1 94.7094 56.91 94.9894 56.63C95.1594 56.46 95.2594 56.28 95.3094 56.14H95.3294V57H96.0294V50.14H95.2694ZM95.2694 54.93C95.2694 55.28 95.1194 55.69 94.9294 55.94C94.7094 56.22 94.3394 56.44 93.8894 56.44C93.4294 56.44 93.1094 56.22 92.8894 55.84C92.7394 55.58 92.5894 55.16 92.5894 54.43C92.5894 53.86 92.6794 53.38 92.8994 53.03C93.1694 52.61 93.5294 52.46 93.9294 52.46C94.3794 52.46 94.7094 52.66 94.9094 52.89C95.1194 53.13 95.2694 53.5 95.2694 53.86V54.93ZM105.331 52.23C105.251 51.58 104.941 51.02 104.551 50.65C104.001 50.14 103.411 50.04 102.861 50.04C102.401 50.04 101.501 50.12 100.791 50.95C100.581 51.19 100.011 51.96 100.011 53.46C100.011 54.35 100.231 55.26 100.661 55.92C101.361 56.98 102.261 57.1 102.881 57.1C103.391 57.1 103.971 57.01 104.561 56.39C104.951 55.98 105.221 55.43 105.331 54.86L104.551 54.69C104.431 55.31 104.111 55.7 103.981 55.85C103.671 56.19 103.341 56.36 102.841 56.36C101.991 56.36 101.511 55.82 101.251 55.27C101.011 54.76 100.931 54.09 100.931 53.5C100.931 53.01 100.981 52.26 101.311 51.69C101.711 50.98 102.271 50.78 102.841 50.78C103.411 50.78 103.831 50.99 104.161 51.49C104.361 51.79 104.471 52.13 104.521 52.38L105.331 52.23ZM106.206 54.45C106.206 55.36 106.526 56.09 106.976 56.52C107.286 56.81 107.796 57.1 108.506 57.1C109.216 57.1 109.726 56.81 110.036 56.52C110.486 56.09 110.806 55.36 110.806 54.45C110.806 53.54 110.486 52.81 110.036 52.38C109.726 52.09 109.216 51.8 108.506 51.8C107.796 51.8 107.286 52.09 106.976 52.38C106.526 52.81 106.206 53.54 106.206 54.45ZM108.506 56.44C108.116 56.44 107.796 56.3 107.576 56.08C107.106 55.61 107.086 54.75 107.086 54.45C107.086 54.15 107.106 53.29 107.576 52.82C107.796 52.6 108.116 52.46 108.506 52.46C108.896 52.46 109.216 52.6 109.436 52.82C109.906 53.29 109.926 54.15 109.926 54.45C109.926 54.75 109.906 55.61 109.436 56.08C109.216 56.3 108.896 56.44 108.506 56.44ZM112.676 53.31C112.796 52.48 113.676 52.42 114.096 52.42C114.456 52.42 114.896 52.44 115.156 52.79C115.336 53.03 115.356 53.37 115.356 53.64V53.85H114.696C113.916 53.85 113.116 53.86 112.496 54.28C112.196 54.48 111.806 54.88 111.806 55.57C111.806 56.1 112.046 56.45 112.266 56.65C112.516 56.88 112.926 57.1 113.576 57.1C114.776 57.1 115.216 56.34 115.356 56.05C115.366 56.3 115.386 56.63 115.446 57H116.246C116.146 56.55 116.116 56.21 116.116 55.93V53.97C116.116 53.31 116.106 52.61 115.556 52.17C115.106 51.81 114.446 51.8 114.106 51.8C112.996 51.8 112.166 52.1 111.946 53.19L112.676 53.31ZM115.356 54.47V54.72C115.356 55.08 115.216 55.55 114.956 55.87C114.686 56.2 114.246 56.44 113.746 56.44C113.396 56.44 113.156 56.35 113.016 56.25C112.726 56.06 112.646 55.77 112.646 55.57C112.646 55.31 112.746 54.94 113.166 54.72C113.446 54.57 113.906 54.47 114.706 54.47H115.356ZM121.566 53.55C121.506 53.18 121.336 52.71 121.046 52.38C120.686 51.97 120.216 51.8 119.656 51.8C118.836 51.8 118.326 52.15 117.976 52.63C117.596 53.16 117.446 53.78 117.446 54.46C117.446 55.32 117.706 56.14 118.206 56.6C118.506 56.87 118.966 57.1 119.606 57.1C120.156 57.1 120.626 56.93 120.986 56.56C121.276 56.26 121.496 55.81 121.566 55.32L120.846 55.19C120.806 55.48 120.696 55.79 120.516 56.02C120.286 56.31 120.006 56.44 119.626 56.44C119.126 56.44 118.826 56.18 118.656 55.93C118.596 55.85 118.326 55.43 118.326 54.47C118.326 54.06 118.376 53.48 118.656 53.03C118.876 52.67 119.196 52.46 119.636 52.46C120.136 52.46 120.426 52.71 120.566 52.91C120.696 53.1 120.806 53.4 120.846 53.68L121.566 53.55ZM123.64 50.14H122.88V57H123.64V54.39C123.64 53.86 123.73 53.38 124.05 52.99C124.23 52.77 124.58 52.46 125.15 52.46C125.57 52.46 125.8 52.64 125.91 52.79C126.12 53.07 126.12 53.46 126.12 53.84V57H126.88V53.65C126.88 53.19 126.84 52.66 126.49 52.27C126.3 52.05 125.92 51.8 125.29 51.8C124.49 51.8 123.93 52.24 123.64 52.86V50.14Z" fill="#1E3793"/>
</svg>
