<?xml version="1.0" encoding="utf-8"?><!DOCTYPE svg PUBLIC "-//W3C//DTD SVG 1.1//EN" "http://www.w3.org/Graphics/SVG/1.1/DTD/svg11.dtd"><svg viewBox="0 0 512 834" xmlns="http://www.w3.org/2000/svg" xmlns:xlink="http://www.w3.org/1999/xlink"><style>:root>svg{display:none}:root>svg:target{display:block}</style><svg aria-hidden="true" data-prefix="fas" data-icon="camera" class="asvg-inline--fa afa-camera afa-w-16" viewBox="0 0 512 512" id="camera-solid" xmlns="http://www.w3.org/2000/svg"><path fill="currentColor" d="M512 144v288c0 26.5-21.5 48-48 48H48c-26.5 0-48-21.5-48-48V144c0-26.5 21.5-48 48-48h88l12.3-32.9c7-18.7 24.9-31.1 44.9-31.1h125.5c20 0 37.9 12.4 44.9 31.1L376 96h88c26.5 0 48 21.5 48 48zM376 288c0-66.2-53.8-120-120-120s-120 53.8-120 120 53.8 120 120 120 120-53.8 120-120zm-32 0c0 48.5-39.5 88-88 88s-88-39.5-88-88 39.5-88 88-88 88 39.5 88 88z"/></svg><svg fill="none" viewBox="0 0 40 51" id="icon-play" xmlns="http://www.w3.org/2000/svg"><path fill-rule="evenodd" clip-rule="evenodd" d="M37.773 22.85c1.734 1.193 1.734 3.752 0 4.944L5.503 49.99C3.511 51.359.801 49.934.801 47.518V3.127c0-2.416 2.71-3.84 4.7-2.472l32.271 22.196z" fill="#000"/></svg><svg fill="none" viewBox="0 0 17 28" id="icon-prev-arrow-gray" xmlns="http://www.w3.org/2000/svg"><path d="M15 26L3 14 15 2" stroke="#3C3E3F" stroke-width="3"/></svg><svg fill="none" viewBox="0 0 39 40" id="icp-logo-short" xmlns="http://www.w3.org/2000/svg"><path fill-rule="evenodd" clip-rule="evenodd" d="M29.124 14.654c5.107 0 9.279 4.172 9.279 9.28 0 5.106-4.172 9.278-9.28 9.278H21.45v6.418h-1.846A19.64 19.64 0 011.522 27.636L4.91 26.21c2.223 5.256 7.183 8.997 12.848 9.63V29.52h11.366c3.07 0 5.588-2.518 5.588-5.588 0-3.07-2.518-5.588-5.588-5.588H10.082v-3.69h19.042zM19.603.37a19.639 19.639 0 0118.08 11.994l-3.387 1.427c-2.223-5.256-7.182-8.997-12.847-9.629v6.75H10.082c-3.07 0-5.588 2.518-5.588 5.587 0 3.07 2.518 5.59 5.588 5.59h19.042v3.69H10.082c-5.107 0-9.28-4.172-9.28-9.279s4.172-9.279 9.28-9.279h7.676V.371h1.845z" fill="url(#dpaint0_linear)"/><defs><linearGradient id="dpaint0_linear" x1="57.203" y1="20" x2="17.979" y2="-17.565" gradientUnits="userSpaceOnUse"><stop stop-color="#fff"/><stop offset="1" stop-color="#fff"/></linearGradient></defs></svg><svg fill="none" viewBox="0 0 174 40" id="logo" xmlns="http://www.w3.org/2000/svg"><path fill-rule="evenodd" clip-rule="evenodd" d="M29.124 14.654c5.107 0 9.279 4.172 9.279 9.279s-4.172 9.279-9.279 9.279h-7.675v6.418h-1.846A19.64 19.64 0 011.522 27.636l3.388-1.427c2.223 5.256 7.183 8.997 12.848 9.629v-6.317h11.366c3.07 0 5.588-2.518 5.588-5.588 0-3.07-2.518-5.588-5.588-5.588H10.082v-3.691h19.042zM19.603.37a19.639 19.639 0 0118.081 11.994l-3.388 1.427c-2.223-5.256-7.182-8.997-12.847-9.629v6.75H10.082c-3.07 0-5.588 2.518-5.588 5.587 0 3.07 2.518 5.589 5.588 5.589h19.042v3.69H10.082c-5.107 0-9.279-4.171-9.279-9.278s4.171-9.279 9.279-9.279h7.676V.37h1.845z" fill="url(#epaint0_linear)"/><g clip-path="url(#eclip0)" fill-rule="evenodd" clip-rule="evenodd"><path d="M95.053 11.736c1.742 0 3.194.45 4.356 1.351 1.161.901 1.876 2.096 2.144 3.585h-3.484c-.373-1.31-1.378-1.966-3.016-1.966-1.37 0-2.416.495-3.138 1.486-.722.99-1.084 2.259-1.084 3.808s.362 2.818 1.084 3.809c.722.99 1.768 1.485 3.138 1.485.85 0 1.553-.212 2.111-.637.558-.424.92-1.016 1.083-1.775h3.463c-.239 1.623-.95 2.926-2.134 3.909-1.184.982-2.69 1.474-4.523 1.474-2.397 0-4.27-.756-5.618-2.267-1.347-1.512-2.02-3.511-2.02-5.998s.676-4.486 2.032-5.997c1.355-1.512 3.224-2.267 5.606-2.267zm20.072.29v2.971h-8.465v3.35h6.589v2.904h-6.589v3.753h8.711v2.97h-12.039V12.026h11.793zm6.09 0l5.852 10.811h.581V12.026h3.038v15.948h-4.311l-5.852-10.811h-.581v10.811h-3.038V12.026h4.311zm23.602 0v2.926h-4.959v13.022h-3.328V14.952h-4.959v-2.926h13.246zm8.412 0c1.772 0 3.149.436 4.132 1.307.983.871 1.474 2.088 1.474 3.652 0 2.01-.789 3.432-2.367 4.266l2.39 6.723h-3.351l-2.144-6.008h-2.848v-2.837h2.245c.953 0 1.638-.175 2.055-.525.417-.35.625-.875.625-1.575 0-.744-.227-1.276-.681-1.597-.454-.32-1.232-.48-2.334-.48h-3.373v13.022h-3.328V12.026h7.505zm19.201 0v2.971h-8.466v3.35h6.59v2.904h-6.59v3.753h8.712v2.97h-12.04V12.026h11.794z" fill="#283CB5"/><path d="M65.228 11.736c1.742 0 3.194.45 4.356 1.351 1.161.901 1.876 2.096 2.144 3.585h-3.485c-.372-1.31-1.377-1.966-3.015-1.966-1.37 0-2.416.495-3.138 1.486-.723.99-1.084 2.259-1.084 3.808s.361 2.818 1.084 3.809c.722.99 1.768 1.485 3.138 1.485.85 0 1.553-.212 2.111-.637.558-.424.92-1.016 1.083-1.775h3.463c-.239 1.623-.95 2.926-2.134 3.909-1.184.982-2.69 1.474-4.523 1.474-2.397 0-4.27-.756-5.618-2.267-1.347-1.512-2.02-3.511-2.02-5.998s.676-4.486 2.032-5.997c1.355-1.512 3.223-2.267 5.606-2.267zm-9.373.29v15.948h-3.328V12.026h3.328zm24.934 0c1.831 0 3.25.447 4.255 1.34 1.005.894 1.507 2.137 1.507 3.73 0 1.624-.502 2.889-1.507 3.798-1.006.908-2.424 1.362-4.255 1.362H78.3V19.33h2.02c.998 0 1.716-.182 2.156-.547.44-.365.66-.912.66-1.642 0-.73-.22-1.277-.66-1.642-.44-.364-1.158-.547-2.156-.547h-3.484v13.022h-3.328V12.026h7.282z" fill="#1488CC"/></g><defs><linearGradient id="epaint0_linear" x1="57.203" y1="20" x2="17.98" y2="-17.565" gradientUnits="userSpaceOnUse"><stop stop-color="#1488CC"/><stop offset="1" stop-color="#283CB5"/></linearGradient><clipPath id="eclip0"><path fill="#fff" transform="translate(52.527 11.736)" d="M0 0h121v17H0z"/></clipPath></defs></svg><svg viewBox="0 0 360 480" id="noavatar" xmlns="http://www.w3.org/2000/svg"><path fill="#F9F9F9" d="M0 0h360v480H0z"/><path fill="#0B050C" d="M133.806 183.806c0-25.674 20.887-46.561 46.561-46.561s46.562 20.887 46.562 46.561-20.888 46.561-46.562 46.561-46.561-20.887-46.561-46.561zm124.602 78.886c-12.021-12.021-26.328-20.919-41.939-26.306 16.72-11.516 27.704-30.789 27.704-52.581 0-35.183-28.623-63.806-63.806-63.806s-63.806 28.624-63.806 63.806c0 21.792 10.985 41.064 27.705 52.581-15.611 5.387-29.919 14.285-41.94 26.306C81.48 283.539 70 311.254 70 340.734h17.245c0-51.348 41.774-93.122 93.122-93.122s93.122 41.774 93.122 93.122h17.245c0-29.48-11.48-57.195-32.326-78.042z" opacity=".1"/></svg><svg preserveAspectRatio="xMinYMin slice" viewBox="0 0 56 834" fill="none" id="sale-pattern" xmlns="http://www.w3.org/2000/svg"><mask id="ga" maskUnits="userSpaceOnUse" x="0" y="0" width="57" height="834"><path transform="rotate(-90 0 834)" fill="#252E37" d="M0 834h834v57H0z"/></mask><g mask="url(#ga)"><path fill="#1488CC" d="M0 741v-56h56v56z"/><path fill="#fff" d="M0 546v-28h56v28z"/><path fill="#000" d="M0 518v-28h56v28z"/><path fill="#1488CC" d="M0 825v-28h56v28z"/><path fill="#283CB5" d="M0 490V322h56v168zM0 797V685h56v112z"/><path fill-rule="evenodd" clip-rule="evenodd" d="M0 462v-28l56 28v28L0 462zM0 769v-28l56 28v28L0 769zM0 713v-28l56 28v28L0 713zM28 518L0 546h56l-28-28z" fill="#1488CC"/><path fill-rule="evenodd" clip-rule="evenodd" d="M28 490L0 518h56l-28-28z" fill="#fff"/><path fill="#283CB5" d="M0 685v-56h56v56z"/><path fill="#1488CC" d="M0 629v-84h56v84z"/><path fill="#000" d="M0 853v-28h56v28z"/><circle cx="28" cy="657" r="28" transform="rotate(-90 28 657)" fill="#000"/><circle cx="28" cy="601" r="28" transform="rotate(-90 28 601)" fill="#fff"/><ellipse cx="28" cy="559" rx="14" ry="28" transform="rotate(-90 28 559)" fill="#000"/><path fill-rule="evenodd" clip-rule="evenodd" d="M0 406v-28l56 28v28L0 406z" fill="#000"/><path fill="#1488CC" d="M0 182v-56h56v56zM0 266v-28h56v28z"/><path fill="#283CB5" d="M0 238V126h56v112z"/><path fill-rule="evenodd" clip-rule="evenodd" d="M0 210v-28l56 28v28L0 210zM0 154v-28l56 28v28L0 154z" fill="#1488CC"/><path fill="#283CB5" d="M0 126V70h56v56z"/><path fill="#1488CC" d="M0 70v-84h56v84zM0 322v-28h56v28z"/><path fill="#000" d="M0 294v-28h56v28z"/><circle cx="28" cy="98" r="28" transform="rotate(-90 28 98)" fill="#000"/><circle cx="28" cy="42" r="28" transform="rotate(-90 28 42)" fill="#fff"/><ellipse cx="28" rx="14" ry="28" transform="rotate(-90 28 0)" fill="#000"/></g></svg></svg>