<?xml version="1.0" encoding="utf-8"?><svg viewBox="0 0 320 80" xmlns="http://www.w3.org/2000/svg" xmlns:xlink="http://www.w3.org/1999/xlink"><style>:root>svg{display:none}:root>svg:target{display:block}</style><svg fill="none" viewBox="0 0 320 80" id="icf-logo" xmlns="http://www.w3.org/2000/svg"><g clip-path="url(#aclip0)" fill="#fff"><path d="M155.54.79c2.93 0 5.3 2.38 5.28 5.31l-.04 5.5a5.28 5.28 0 01-5.28 5.24h-30.72c-.78 0-1.41.63-1.41 1.41v31.78l-.02.02v20.06c0 4.25-3.45 7.7-7.7 7.7h-4.7c-4.25 0-7.7-3.45-7.7-7.7V12.59c0-6.3 4.94-11.43 11.16-11.77.22-.01.43-.03.65-.03h40.48zm21.64 32.07h2.95V16.98h-2.95v15.88zm18.45-6.94c0-3.65-2.16-5.31-5.06-5.31-1.77 0-3.24.59-4.18 1.7v-1.57h-2.7v12.12h2.84v-6.13c0-2.43 1.36-3.65 3.38-3.65 1.82 0 2.88 1.04 2.88 3.2v6.58h2.84v-6.94zm9.65 4.27c-.43.34-1 .5-1.59.5-1.09 0-1.68-.64-1.68-1.82V23.1h3.24v-2.27h-3.24v-2.77h-2.84v2.77h-2v2.27h2v5.83c0 2.68 1.52 4.09 4.18 4.09 1.02 0 2.04-.27 2.72-.82l-.79-2.01zm4.08-4.36c.27-1.77 1.61-2.95 3.45-2.95 1.86 0 3.2 1.2 3.43 2.95h-6.88zm9.54 1.88c.02-.27.04-.61.04-.84 0-3.79-2.59-6.26-6.13-6.26-3.61 0-6.26 2.59-6.26 6.19 0 3.61 2.63 6.22 6.69 6.22 2.09 0 3.79-.68 4.88-1.97l-1.52-1.75c-.86.89-1.93 1.32-3.29 1.32-2.11 0-3.59-1.14-3.93-2.91h9.52zm9.32-7.1c-2.02 0-3.5.64-4.31 1.91v-1.77h-2.7v12.12h2.84v-5.88c0-2.47 1.36-3.74 3.52-3.74.21 0 .41.02.66.07v-2.71h-.01zm13.89 5.31c0-3.65-2.16-5.31-5.06-5.31-1.77 0-3.24.59-4.18 1.7v-1.57h-2.7v12.12h2.84v-6.13c0-2.43 1.36-3.65 3.38-3.65 1.82 0 2.88 1.04 2.88 3.2v6.58h2.84v-6.94zm10.46 3.15c-.47 1.25-1.68 1.88-3.06 1.88-1.45 0-2.31-.66-2.31-1.68 0-.88.52-1.61 2.45-1.61h2.93v1.41h-.01zm2.84-3.31c0-3.49-2.02-5.15-5.52-5.15-1.95 0-3.84.5-5.13 1.5l1.11 2.07c.91-.75 2.31-1.2 3.68-1.2 2.02 0 3.02.98 3.02 2.63v.18h-3.13c-3.68 0-5.04 1.59-5.04 3.61 0 2.11 1.75 3.63 4.52 3.63 1.82 0 3.13-.59 3.81-1.63v1.47h2.68v-7.11zm9.66 4.43c-.43.34-1 .5-1.59.5-1.09 0-1.68-.64-1.68-1.82V23.1h3.25v-2.27h-3.25v-2.77h-2.84v2.77h-2v2.27h2v5.83c0 2.68 1.52 4.09 4.18 4.09 1.02 0 2.04-.27 2.72-.82l-.79-2.01zm2.68 2.67h2.84V20.74h-2.84v12.12zm-.38-15.82c0 .95.77 1.7 1.82 1.7 1.07 0 1.82-.77 1.82-1.77 0-.93-.77-1.63-1.82-1.63s-1.82.75-1.82 1.7zm15.54 9.76c0 2.32-1.54 3.79-3.61 3.79-2.04 0-3.59-1.47-3.59-3.79 0-2.31 1.54-3.79 3.59-3.79 2.07 0 3.61 1.48 3.61 3.79zm-10.05 0c0 3.63 2.72 6.22 6.45 6.22 3.77 0 6.47-2.59 6.47-6.22s-2.7-6.19-6.47-6.19c-3.73 0-6.45 2.56-6.45 6.19zm27.11-.88c0-3.65-2.16-5.31-5.06-5.31-1.77 0-3.24.59-4.18 1.7v-1.57h-2.7v12.12h2.84v-6.13c0-2.43 1.36-3.65 3.38-3.65 1.82 0 2.88 1.04 2.88 3.2v6.58h2.84v-6.94zm10.47 3.15c-.47 1.25-1.68 1.88-3.06 1.88-1.45 0-2.31-.66-2.31-1.68 0-.88.52-1.61 2.45-1.61h2.93v1.41h-.01zm2.84-3.31c0-3.49-2.02-5.15-5.52-5.15-1.95 0-3.84.5-5.13 1.5l1.11 2.07c.91-.75 2.31-1.2 3.68-1.2 2.02 0 3.02.98 3.02 2.63v.18h-3.13c-3.68 0-5.04 1.59-5.04 3.61 0 2.11 1.75 3.63 4.52 3.63 1.82 0 3.13-.59 3.81-1.63v1.47h2.68v-7.11zm3.17 7.1h2.84V16.74h-2.84v16.12zm-140.4 14.98c0 4.75 3.63 8.17 8.49 8.17 2.61 0 4.83-.93 6.31-2.65l-1.91-1.82c-1.16 1.27-2.59 1.88-4.24 1.88-3.29 0-5.67-2.32-5.67-5.58 0-3.27 2.38-5.58 5.67-5.58 1.66 0 3.09.61 4.24 1.86l1.91-1.79c-1.48-1.72-3.7-2.65-6.29-2.65-4.88-.01-8.51 3.42-8.51 8.16zm25.51 1.88c0 2.32-1.54 3.79-3.61 3.79-2.04 0-3.59-1.48-3.59-3.79s1.54-3.79 3.59-3.79c2.07 0 3.61 1.48 3.61 3.79zm-10.06 0c0 3.63 2.72 6.22 6.45 6.22 3.77 0 6.47-2.59 6.47-6.22s-2.7-6.19-6.47-6.19c-3.72 0-6.45 2.56-6.45 6.19zm22.33 2.27c-.47 1.25-1.68 1.88-3.06 1.88-1.45 0-2.31-.66-2.31-1.68 0-.88.52-1.61 2.45-1.61h2.93v1.41h-.01zm2.84-3.31c0-3.5-2.02-5.15-5.52-5.15-1.95 0-3.84.5-5.13 1.5l1.11 2.07c.91-.75 2.31-1.2 3.68-1.2 2.02 0 3.02.98 3.02 2.63v.18h-3.13c-3.68 0-5.04 1.59-5.04 3.61 0 2.11 1.75 3.63 4.52 3.63 1.82 0 3.13-.59 3.81-1.63v1.47h2.68v-7.11zm2.29 1.04c0 3.63 2.72 6.22 6.56 6.22 2.36 0 4.24-1.02 5.17-2.84l-2.18-1.27c-.73 1.16-1.82 1.68-3.02 1.68-2.09 0-3.68-1.43-3.68-3.79 0-2.34 1.59-3.79 3.68-3.79 1.2 0 2.29.52 3.02 1.68l2.18-1.27c-.93-1.84-2.81-2.81-5.17-2.81-3.84 0-6.56 2.56-6.56 6.19zm25.56-.88c0-3.65-2.16-5.31-5.06-5.31-1.68 0-3.11.54-4.04 1.54v-6.13h-2.84v16.84h2.84v-6.13c0-2.43 1.36-3.65 3.38-3.65 1.82 0 2.88 1.04 2.88 3.2v6.58h2.84v-6.94zm3.15 6.94h2.84V43.66h-2.84v12.12zm-.39-15.82c0 .95.77 1.7 1.82 1.7 1.07 0 1.82-.77 1.82-1.77 0-.93-.77-1.63-1.82-1.63s-1.82.75-1.82 1.7zm18.43 8.88c0-3.65-2.16-5.31-5.06-5.31-1.77 0-3.24.59-4.18 1.7v-1.57h-2.7v12.12h2.84v-6.13c0-2.43 1.36-3.65 3.38-3.65 1.82 0 2.88 1.04 2.88 3.2v6.58h2.84v-6.94zm12.5.52c0 2.06-1.54 3.47-3.68 3.47-2.16 0-3.7-1.41-3.7-3.47 0-2.04 1.54-3.43 3.7-3.43 2.14 0 3.68 1.39 3.68 3.43zm.09-5.7v1.61c-1-1.2-2.5-1.75-4.2-1.75-3.47 0-6.13 2.32-6.13 5.83 0 3.52 2.66 5.88 6.13 5.88 1.63 0 3.06-.52 4.06-1.61v.63c0 2.45-1.18 3.68-3.86 3.68-1.68 0-3.4-.57-4.47-1.45l-1.27 2.13c1.38 1.13 3.63 1.72 5.9 1.72 4.24 0 6.54-2 6.54-6.4V43.66h-2.7zM188.78 64.2v-2.47h-11.6v15.89h2.95v-6.08h7.67v-2.5h-7.67V64.2h8.65zm3.61 6.37c.27-1.77 1.61-2.95 3.45-2.95 1.86 0 3.2 1.2 3.43 2.95h-6.88zm9.53 1.89c.02-.27.05-.61.05-.84 0-3.79-2.59-6.26-6.13-6.26-3.61 0-6.26 2.59-6.26 6.19 0 3.61 2.63 6.22 6.7 6.22 2.09 0 3.79-.68 4.88-1.97l-1.52-1.75c-.86.89-1.93 1.32-3.29 1.32-2.11 0-3.59-1.14-3.93-2.91h9.5zm11.39-.91c0 2.32-1.57 3.79-3.61 3.79s-3.61-1.47-3.61-3.79c0-2.31 1.57-3.79 3.61-3.79s3.61 1.48 3.61 3.79zm-.05-10.78v6.22c-.95-1.11-2.34-1.63-3.9-1.63-3.52 0-6.13 2.43-6.13 6.2s2.61 6.22 6.13 6.22c1.66 0 3.06-.57 4.02-1.72v1.57h2.72V60.77h-2.84zm7.92 9.8c.27-1.77 1.61-2.95 3.45-2.95 1.86 0 3.2 1.2 3.43 2.95h-6.88zm9.54 1.89c.02-.27.04-.61.04-.84 0-3.79-2.59-6.26-6.13-6.26-3.61 0-6.26 2.59-6.26 6.19 0 3.61 2.63 6.22 6.69 6.22 2.09 0 3.79-.68 4.88-1.97l-1.52-1.75c-.86.89-1.93 1.32-3.29 1.32-2.11 0-3.59-1.14-3.93-2.91h9.52zm9.32-7.11c-2.02 0-3.5.64-4.31 1.91v-1.77h-2.7v12.12h2.84v-5.88c0-2.47 1.36-3.74 3.52-3.74.21 0 .41.02.66.07v-2.71h-.01zm9.19 8.47c-.47 1.25-1.68 1.88-3.06 1.88-1.45 0-2.31-.66-2.31-1.68 0-.88.52-1.61 2.45-1.61h2.93v1.41h-.01zm2.84-3.31c0-3.49-2.02-5.15-5.52-5.15-1.95 0-3.84.5-5.13 1.5l1.11 2.07c.91-.75 2.31-1.2 3.68-1.2 2.02 0 3.02.98 3.02 2.63v.18h-3.13c-3.68 0-5.04 1.59-5.04 3.61 0 2.11 1.75 3.63 4.52 3.63 1.82 0 3.13-.59 3.81-1.63v1.47h2.68v-7.11zm9.67 4.42c-.43.34-1 .5-1.59.5-1.09 0-1.68-.64-1.68-1.82v-5.76h3.24v-2.27h-3.24v-2.77h-2.84v2.77h-2v2.27h2v5.83c0 2.68 1.52 4.09 4.18 4.09 1.02 0 2.04-.27 2.72-.82l-.79-2.02zm2.67 2.68h2.84V65.49h-2.84v12.12zm-.38-15.82c0 .95.77 1.7 1.82 1.7 1.07 0 1.82-.77 1.82-1.77 0-.93-.77-1.63-1.82-1.63s-1.82.75-1.82 1.7zm15.54 9.76c0 2.32-1.54 3.79-3.61 3.79-2.04 0-3.59-1.47-3.59-3.79 0-2.31 1.54-3.79 3.59-3.79 2.07 0 3.61 1.47 3.61 3.79zm-10.05 0c0 3.63 2.72 6.22 6.45 6.22 3.77 0 6.47-2.59 6.47-6.22s-2.7-6.19-6.47-6.19c-3.73-.01-6.45 2.56-6.45 6.19zm27.12-.88c0-3.65-2.16-5.31-5.06-5.31-1.77 0-3.24.59-4.18 1.7v-1.57h-2.7v12.12h2.84v-6.13c0-2.43 1.36-3.65 3.38-3.65 1.82 0 2.88 1.04 2.88 3.2v6.58h2.84v-6.94zM20.1 8.4c0-4.25-3.45-7.7-7.7-7.7H7.7C3.45.7 0 4.15 0 8.4v61.59c0 4.25 3.45 7.7 7.7 7.7h4.7c4.25 0 7.7-3.45 7.7-7.7V8.4z"/><path d="M57.16 2.34C48 4.73 39.74 10.32 33.99 17.82c-5.96 7.76-7.94 18.41-6.58 28.03.7 4.93 2.31 9.74 4.8 14.06 6.07 10.52 17.24 17.92 29.29 19.41 10.09 1.24 20.37-1.48 29.42-6.1 10.58-5.39 19.49-13.31 28.71-20.73 7.27-5.86 14.74-11.41 23.36-15.18 5.95-2.6 12.18-4.54 18.56-5.76-5.24-.61-5.24-.61-7.39-.74-2.69-.17-5.39-.21-8.08-.14-5.37.15-10.73.79-15.97 1.99-10.78 2.47-20.05 7.48-28.87 14.03-4.09 3.04-8.13 6.17-12.5 8.82-7.67 4.65-16.98 7.75-25.6 5.29-8.17-2.33-14.6-9.88-15.6-18.32s3.49-17.28 10.89-21.45c7.4-4.17 17.29-3.44 23.99 1.78 1.62 1.26 3.29 2.84 5.35 2.76 1.89-.08 3.38-1.56 4.64-2.96 2.34-2.57 4.78-5.82 3.89-9.17-.58-2.18-2.44-3.76-4.3-5.03C84.91 3.56 76.31 1 67.73 1c-3.56 0-7.12.44-10.57 1.34z"/></g><defs><clipPath id="aclip0"><path fill="#fff" d="M0 0h319.29v79.57H0z"/></clipPath></defs></svg></svg>