<svg width="1440" height="702" viewBox="0 0 1440 702" fill="none" xmlns="http://www.w3.org/2000/svg">
<g style="mix-blend-mode:multiply" opacity="0.25">
<mask id="mask0" mask-type="alpha" maskUnits="userSpaceOnUse" x="0" y="0" width="1440" height="702">
<rect width="1440" height="702" fill="#F5F5F5"/>
</mask>
<g mask="url(#mask0)">
<path fill-rule="evenodd" clip-rule="evenodd" d="M960 270H930V300H900V330H930V360H960V330H990V300H960V270Z" fill="#F7FCFF"/>
<path fill-rule="evenodd" clip-rule="evenodd" d="M420 -60H390V-30H360V0H390V30H420V0H450V-30H420V-60Z" fill="#F7FCFF"/>
<path fill-rule="evenodd" clip-rule="evenodd" d="M480 510H450V540H420V570H450V600H480V570H510V540H480V510Z" fill="#F7FCFF"/>
<path fill-rule="evenodd" clip-rule="evenodd" d="M1440 30H1410V60H1380V90H1410V120H1440V90H1470V60H1440V30Z" fill="#F7FCFF"/>
<path fill-rule="evenodd" clip-rule="evenodd" d="M840 30H810V60H780V90H810V120H840V90H870V60H840V30Z" fill="#F7FCFF"/>
<path fill-rule="evenodd" clip-rule="evenodd" d="M1140 480H1110V510H1080V540H1110V570H1140V540H1170V510H1140V480Z" fill="#F7FCFF"/>
<path fill-rule="evenodd" clip-rule="evenodd" d="M360 270H330V300H300V330H330V360H360V330H390V300H360V270Z" fill="#F7FCFF"/>
<path fill-rule="evenodd" clip-rule="evenodd" d="M1200 150H1170V180H1140V210H1170V240H1200V210H1230V180H1200V150Z" fill="#F7FCFF"/>
<path fill-rule="evenodd" clip-rule="evenodd" d="M240 630H210V660H180V690H210V720H240V690H270V660H240V630Z" fill="#F7FCFF"/>
<path fill-rule="evenodd" clip-rule="evenodd" d="M720 390H690V420H660V450H690V480H720V450H750V420H720V390Z" fill="#F7FCFF"/>
<path fill-rule="evenodd" clip-rule="evenodd" d="M180 60H150V90H120V120H150V150H180V120H210V90H180V60Z" fill="#F7FCFF"/>
<path fill-rule="evenodd" clip-rule="evenodd" d="M120 390H90V420H60V450H90V480H120V450H150V420H120V390Z" fill="#F7FCFF"/>
<path fill-rule="evenodd" clip-rule="evenodd" d="M1380 360H1350V390H1320V420H1350V450H1380V420H1410V390H1380V360Z" fill="#F7FCFF"/>
<path fill-rule="evenodd" clip-rule="evenodd" d="M600 150H570V180H540V210H570V240H600V210H630V180H600V150Z" fill="#F7FCFF"/>
<path fill-rule="evenodd" clip-rule="evenodd" d="M900 600H870V630H840V660H870V690H900V660H930V630H900V600Z" fill="#F7FCFF"/>
<path fill-rule="evenodd" clip-rule="evenodd" d="M1020 390H990V420H960V450H990V480H1020V450H1050V420H1020V390Z" fill="#F7FCFF"/>
<path fill-rule="evenodd" clip-rule="evenodd" d="M480 60H450V90H420V120H450V150H480V120H510V90H480V60Z" fill="#F7FCFF"/>
<path fill-rule="evenodd" clip-rule="evenodd" d="M540 630H510V660H480V690H510V720H540V690H570V660H540V630Z" fill="#F7FCFF"/>
<path fill-rule="evenodd" clip-rule="evenodd" d="M0 300H-30V330H-60V360H-30V390H0V360H30V330H0V300Z" fill="#F7FCFF"/>
<path fill-rule="evenodd" clip-rule="evenodd" d="M900 150H870V180H840V210H870V240H900V210H930V180H900V150Z" fill="#F7FCFF"/>
<path fill-rule="evenodd" clip-rule="evenodd" d="M1200 600H1170V630H1140V660H1170V690H1200V660H1230V630H1200V600Z" fill="#F7FCFF"/>
<path fill-rule="evenodd" clip-rule="evenodd" d="M420 390H390V420H360V450H390V480H420V450H450V420H420V390Z" fill="#F7FCFF"/>
<path fill-rule="evenodd" clip-rule="evenodd" d="M1260 270H1230V300H1200V330H1230V360H1260V330H1290V300H1260V270Z" fill="#F7FCFF"/>
<path fill-rule="evenodd" clip-rule="evenodd" d="M720 -60H690V-30H660V0H690V30H720V0H750V-30H720V-60Z" fill="#F7FCFF"/>
<path fill-rule="evenodd" clip-rule="evenodd" d="M780 510H750V540H720V570H750V600H780V570H810V540H780V510Z" fill="#F7FCFF"/>
<path fill-rule="evenodd" clip-rule="evenodd" d="M240 180H210V210H180V240H210V270H240V240H270V210H240V180Z" fill="#F7FCFF"/>
<path fill-rule="evenodd" clip-rule="evenodd" d="M1140 30H1110V60H1080V90H1110V120H1140V90H1170V60H1140V30Z" fill="#F7FCFF"/>
<path fill-rule="evenodd" clip-rule="evenodd" d="M180 510H150V540H120V570H150V600H180V570H210V540H180V510Z" fill="#F7FCFF"/>
<path fill-rule="evenodd" clip-rule="evenodd" d="M1440 480H1410V510H1380V540H1410V570H1440V540H1470V510H1440V480Z" fill="#F7FCFF"/>
<path fill-rule="evenodd" clip-rule="evenodd" d="M660 270H630V300H600V330H630V360H660V330H690V300H660V270Z" fill="#F7FCFF"/>
<path fill-rule="evenodd" clip-rule="evenodd" d="M120 -60H90V-30H60V0H90V30H120V0H150V-30H120V-60Z" fill="#F7FCFF"/>
<path fill-rule="evenodd" clip-rule="evenodd" d="M1080 210H1050V240H1020V270H1050V300H1080V270H1110V240H1080V210Z" fill="#F7FCFF"/>
<path fill-rule="evenodd" clip-rule="evenodd" d="M120 690H90V720H60V750H90V780H120V750H150V720H120V690Z" fill="#F7FCFF"/>
<path fill-rule="evenodd" clip-rule="evenodd" d="M1380 660H1350V690H1320V720H1350V750H1380V720H1410V690H1380V660Z" fill="#F7FCFF"/>
<path fill-rule="evenodd" clip-rule="evenodd" d="M600 450H570V480H540V510H570V540H600V510H630V480H600V450Z" fill="#F7FCFF"/>
<path fill-rule="evenodd" clip-rule="evenodd" d="M60 120H30V150H0V180H30V210H60V180H90V150H60V120Z" fill="#F7FCFF"/>
<path fill-rule="evenodd" clip-rule="evenodd" d="M960 -30H930V0H900V30H930V60H960V30H990V0H960V-30Z" fill="#F7FCFF"/>
<path fill-rule="evenodd" clip-rule="evenodd" d="M0 450H-30V480H-60V510H-30V540H0V510H30V480H0V450Z" fill="#F7FCFF"/>
<path fill-rule="evenodd" clip-rule="evenodd" d="M1260 420H1230V450H1200V480H1230V510H1260V480H1290V450H1260V420Z" fill="#F7FCFF"/>
<path fill-rule="evenodd" clip-rule="evenodd" d="M480 210H450V240H420V270H450V300H480V270H510V240H480V210Z" fill="#F7FCFF"/>
<path fill-rule="evenodd" clip-rule="evenodd" d="M780 660H750V690H720V720H750V750H780V720H810V690H780V660Z" fill="#F7FCFF"/>
<path fill-rule="evenodd" clip-rule="evenodd" d="M1320 90H1290V120H1260V150H1290V180H1320V150H1350V120H1320V90Z" fill="#F7FCFF"/>
<path fill-rule="evenodd" clip-rule="evenodd" d="M360 570H330V600H300V630H330V660H360V630H390V600H360V570Z" fill="#F7FCFF"/>
<path fill-rule="evenodd" clip-rule="evenodd" d="M840 330H810V360H780V390H810V420H840V390H870V360H840V330Z" fill="#F7FCFF"/>
<path fill-rule="evenodd" clip-rule="evenodd" d="M300 0H270V30H240V60H270V90H300V60H330V30H300V0Z" fill="#F7FCFF"/>
<path fill-rule="evenodd" clip-rule="evenodd" d="M240 330H210V360H180V390H210V420H240V390H270V360H240V330Z" fill="#F7FCFF"/>
<path fill-rule="evenodd" clip-rule="evenodd" d="M720 90H690V120H660V150H690V180H720V150H750V120H720V90Z" fill="#F7FCFF"/>
<path fill-rule="evenodd" clip-rule="evenodd" d="M1020 540H990V570H960V600H990V630H1020V600H1050V570H1020V540Z" fill="#F7FCFF"/>
<path fill-rule="evenodd" clip-rule="evenodd" d="M1140 330H1110V360H1080V390H1110V420H1140V390H1170V360H1140V330Z" fill="#F7FCFF"/>
<path fill-rule="evenodd" clip-rule="evenodd" d="M600 0H570V30H540V60H570V90H600V60H630V30H600V0Z" fill="#F7FCFF"/>
<path fill-rule="evenodd" clip-rule="evenodd" d="M660 570H630V600H600V630H630V660H660V630H690V600H660V570Z" fill="#F7FCFF"/>
<path fill-rule="evenodd" clip-rule="evenodd" d="M120 240H90V270H60V300H90V330H120V300H150V270H120V240Z" fill="#F7FCFF"/>
<path fill-rule="evenodd" clip-rule="evenodd" d="M1020 90H990V120H960V150H990V180H1020V150H1050V120H1020V90Z" fill="#F7FCFF"/>
<path fill-rule="evenodd" clip-rule="evenodd" d="M60 570H30V600H0V630H30V660H60V630H90V600H60V570Z" fill="#F7FCFF"/>
<path fill-rule="evenodd" clip-rule="evenodd" d="M1320 540H1290V570H1260V600H1290V630H1320V600H1350V570H1320V540Z" fill="#F7FCFF"/>
<path fill-rule="evenodd" clip-rule="evenodd" d="M540 330H510V360H480V390H510V420H540V390H570V360H540V330Z" fill="#F7FCFF"/>
<path fill-rule="evenodd" clip-rule="evenodd" d="M0 0H-30V30H-60V60H-30V90H0V60H30V30H0V0Z" fill="#F7FCFF"/>
<path fill-rule="evenodd" clip-rule="evenodd" d="M1380 210H1350V240H1320V270H1350V300H1380V270H1410V240H1380V210Z" fill="#F7FCFF"/>
<path fill-rule="evenodd" clip-rule="evenodd" d="M420 690H390V720H360V750H390V780H420V750H450V720H420V690Z" fill="#F7FCFF"/>
<path fill-rule="evenodd" clip-rule="evenodd" d="M900 450H870V480H840V510H870V540H900V510H930V480H900V450Z" fill="#F7FCFF"/>
<path fill-rule="evenodd" clip-rule="evenodd" d="M360 120H330V150H300V180H330V210H360V180H390V150H360V120Z" fill="#F7FCFF"/>
<path fill-rule="evenodd" clip-rule="evenodd" d="M1260 -30H1230V0H1200V30H1230V60H1260V30H1290V0H1260V-30Z" fill="#F7FCFF"/>
<path fill-rule="evenodd" clip-rule="evenodd" d="M300 450H270V480H240V510H270V540H300V510H330V480H300V450Z" fill="#F7FCFF"/>
<path fill-rule="evenodd" clip-rule="evenodd" d="M780 210H750V240H720V270H750V300H780V270H810V240H780V210Z" fill="#F7FCFF"/>
<path fill-rule="evenodd" clip-rule="evenodd" d="M1080 660H1050V690H1020V720H1050V750H1080V720H1110V690H1080V660Z" fill="#F7FCFF"/>
<path fill-rule="evenodd" clip-rule="evenodd" d="M930 360H900V390H870V420H900V450H930V420H960V390H930V360Z" fill="white"/>
<path fill-rule="evenodd" clip-rule="evenodd" d="M390 30H360V60H330V90H360V120H390V90H420V60H390V30Z" fill="white"/>
<path fill-rule="evenodd" clip-rule="evenodd" d="M450 600H420V630H390V660H420V690H450V660H480V630H450V600Z" fill="white"/>
<path fill-rule="evenodd" clip-rule="evenodd" d="M1410 120H1380V150H1350V180H1380V210H1410V180H1440V150H1410V120Z" fill="white"/>
<path fill-rule="evenodd" clip-rule="evenodd" d="M810 120H780V150H750V180H780V210H810V180H840V150H810V120Z" fill="white"/>
<path fill-rule="evenodd" clip-rule="evenodd" d="M1110 570H1080V600H1050V630H1080V660H1110V630H1140V600H1110V570Z" fill="white"/>
<path fill-rule="evenodd" clip-rule="evenodd" d="M330 360H300V390H270V420H300V450H330V420H360V390H330V360Z" fill="white"/>
<path fill-rule="evenodd" clip-rule="evenodd" d="M1170 240H1140V270H1110V300H1140V330H1170V300H1200V270H1170V240Z" fill="white"/>
<path fill-rule="evenodd" clip-rule="evenodd" d="M1470 690H1440V720H1410V750H1440V780H1470V750H1500V720H1470V690Z" fill="white"/>
<path fill-rule="evenodd" clip-rule="evenodd" d="M690 480H660V510H630V540H660V570H690V540H720V510H690V480Z" fill="white"/>
<path fill-rule="evenodd" clip-rule="evenodd" d="M150 150H120V180H90V210H120V240H150V210H180V180H150V150Z" fill="white"/>
<path fill-rule="evenodd" clip-rule="evenodd" d="M1050 0H1020V30H990V60H1020V90H1050V60H1080V30H1050V0Z" fill="white"/>
<path fill-rule="evenodd" clip-rule="evenodd" d="M90 480H60V510H30V540H60V570H90V540H120V510H90V480Z" fill="white"/>
<path fill-rule="evenodd" clip-rule="evenodd" d="M1350 450H1320V480H1290V510H1320V540H1350V510H1380V480H1350V450Z" fill="white"/>
<path fill-rule="evenodd" clip-rule="evenodd" d="M570 240H540V270H510V300H540V330H570V300H600V270H570V240Z" fill="white"/>
<path fill-rule="evenodd" clip-rule="evenodd" d="M870 690H840V720H810V750H840V780H870V750H900V720H870V690Z" fill="white"/>
<path fill-rule="evenodd" clip-rule="evenodd" d="M990 480H960V510H930V540H960V570H990V540H1020V510H990V480Z" fill="white"/>
<path fill-rule="evenodd" clip-rule="evenodd" d="M450 150H420V180H390V210H420V240H450V210H480V180H450V150Z" fill="white"/>
<path fill-rule="evenodd" clip-rule="evenodd" d="M1470 240H1440V270H1410V300H1440V330H1470V300H1500V270H1470V240Z" fill="white"/>
<path fill-rule="evenodd" clip-rule="evenodd" d="M870 240H840V270H810V300H840V330H870V300H900V270H870V240Z" fill="white"/>
<path fill-rule="evenodd" clip-rule="evenodd" d="M1170 690H1140V720H1110V750H1140V780H1170V750H1200V720H1170V690Z" fill="white"/>
<path fill-rule="evenodd" clip-rule="evenodd" d="M390 480H360V510H330V540H360V570H390V540H420V510H390V480Z" fill="white"/>
<path fill-rule="evenodd" clip-rule="evenodd" d="M1350 0H1320V30H1290V60H1320V90H1350V60H1380V30H1350V0Z" fill="white"/>
<path fill-rule="evenodd" clip-rule="evenodd" d="M1230 360H1200V390H1170V420H1200V450H1230V420H1260V390H1230V360Z" fill="white"/>
<path fill-rule="evenodd" clip-rule="evenodd" d="M690 30H660V60H630V90H660V120H690V90H720V60H690V30Z" fill="white"/>
<path fill-rule="evenodd" clip-rule="evenodd" d="M750 600H720V630H690V660H720V690H750V660H780V630H750V600Z" fill="white"/>
<path fill-rule="evenodd" clip-rule="evenodd" d="M210 270H180V300H150V330H180V360H210V330H240V300H210V270Z" fill="white"/>
<path fill-rule="evenodd" clip-rule="evenodd" d="M1110 120H1080V150H1050V180H1080V210H1110V180H1140V150H1110V120Z" fill="white"/>
<path fill-rule="evenodd" clip-rule="evenodd" d="M150 600H120V630H90V660H120V690H150V660H180V630H150V600Z" fill="white"/>
<path fill-rule="evenodd" clip-rule="evenodd" d="M1410 570H1380V600H1350V630H1380V660H1410V630H1440V600H1410V570Z" fill="white"/>
<path fill-rule="evenodd" clip-rule="evenodd" d="M630 360H600V390H570V420H600V450H630V420H660V390H630V360Z" fill="white"/>
<path fill-rule="evenodd" clip-rule="evenodd" d="M90 30H60V60H30V90H60V120H90V90H120V60H90V30Z" fill="white"/>
<path fill-rule="evenodd" clip-rule="evenodd" d="M1050 300H1020V330H990V360H1020V390H1050V360H1080V330H1050V300Z" fill="white"/>
<path fill-rule="evenodd" clip-rule="evenodd" d="M510 -30H480V0H450V30H480V60H510V30H540V0H510V-30Z" fill="white"/>
<path fill-rule="evenodd" clip-rule="evenodd" d="M570 540H540V570H510V600H540V630H570V600H600V570H570V540Z" fill="white"/>
<path fill-rule="evenodd" clip-rule="evenodd" d="M30 210H0V240H-30V270H0V300H30V270H60V240H30V210Z" fill="white"/>
<path fill-rule="evenodd" clip-rule="evenodd" d="M930 60H900V90H870V120H900V150H930V120H960V90H930V60Z" fill="white"/>
<path fill-rule="evenodd" clip-rule="evenodd" d="M1230 510H1200V540H1170V570H1200V600H1230V570H1260V540H1230V510Z" fill="white"/>
<path fill-rule="evenodd" clip-rule="evenodd" d="M450 300H420V330H390V360H420V390H450V360H480V330H450V300Z" fill="white"/>
<path fill-rule="evenodd" clip-rule="evenodd" d="M1290 180H1260V210H1230V240H1260V270H1290V240H1320V210H1290V180Z" fill="white"/>
<path fill-rule="evenodd" clip-rule="evenodd" d="M330 660H300V690H270V720H300V750H330V720H360V690H330V660Z" fill="white"/>
<path fill-rule="evenodd" clip-rule="evenodd" d="M810 420H780V450H750V480H780V510H810V480H840V450H810V420Z" fill="white"/>
<path fill-rule="evenodd" clip-rule="evenodd" d="M270 90H240V120H210V150H240V180H270V150H300V120H270V90Z" fill="white"/>
<path fill-rule="evenodd" clip-rule="evenodd" d="M1170 -60H1140V-30H1110V0H1140V30H1170V0H1200V-30H1170V-60Z" fill="white"/>
<path fill-rule="evenodd" clip-rule="evenodd" d="M210 420H180V450H150V480H180V510H210V480H240V450H210V420Z" fill="white"/>
<path fill-rule="evenodd" clip-rule="evenodd" d="M1470 390H1440V420H1410V450H1440V480H1470V450H1500V420H1470V390Z" fill="white"/>
<path fill-rule="evenodd" clip-rule="evenodd" d="M690 180H660V210H630V240H660V270H690V240H720V210H690V180Z" fill="white"/>
<path fill-rule="evenodd" clip-rule="evenodd" d="M990 630H960V660H930V690H960V720H990V690H1020V660H990V630Z" fill="white"/>
<path fill-rule="evenodd" clip-rule="evenodd" d="M1110 420H1080V450H1050V480H1080V510H1110V480H1140V450H1110V420Z" fill="white"/>
<path fill-rule="evenodd" clip-rule="evenodd" d="M570 90H540V120H510V150H540V180H570V150H600V120H570V90Z" fill="white"/>
<path fill-rule="evenodd" clip-rule="evenodd" d="M630 660H600V690H570V720H600V750H630V720H660V690H630V660Z" fill="white"/>
<path fill-rule="evenodd" clip-rule="evenodd" d="M90 330H60V360H30V390H60V420H90V390H120V360H90V330Z" fill="white"/>
<path fill-rule="evenodd" clip-rule="evenodd" d="M990 180H960V210H930V240H960V270H990V240H1020V210H990V180Z" fill="white"/>
<path fill-rule="evenodd" clip-rule="evenodd" d="M30 660H0V690H-30V720H0V750H30V720H60V690H30V660Z" fill="white"/>
<path fill-rule="evenodd" clip-rule="evenodd" d="M1290 630H1260V660H1230V690H1260V720H1290V690H1320V660H1290V630Z" fill="white"/>
<path fill-rule="evenodd" clip-rule="evenodd" d="M510 420H480V450H450V480H480V510H510V480H540V450H510V420Z" fill="white"/>
<path fill-rule="evenodd" clip-rule="evenodd" d="M1470 -60H1440V-30H1410V0H1440V30H1470V0H1500V-30H1470V-60Z" fill="white"/>
<path fill-rule="evenodd" clip-rule="evenodd" d="M1350 300H1320V330H1290V360H1320V390H1350V360H1380V330H1350V300Z" fill="white"/>
<path fill-rule="evenodd" clip-rule="evenodd" d="M810 -30H780V0H750V30H780V60H810V30H840V0H810V-30Z" fill="white"/>
<path fill-rule="evenodd" clip-rule="evenodd" d="M870 540H840V570H810V600H840V630H870V600H900V570H870V540Z" fill="white"/>
<path fill-rule="evenodd" clip-rule="evenodd" d="M330 210H300V240H270V270H300V300H330V270H360V240H330V210Z" fill="white"/>
<path fill-rule="evenodd" clip-rule="evenodd" d="M1230 60H1200V90H1170V120H1200V150H1230V120H1260V90H1230V60Z" fill="white"/>
<path fill-rule="evenodd" clip-rule="evenodd" d="M270 540H240V570H210V600H240V630H270V600H300V570H270V540Z" fill="white"/>
<path fill-rule="evenodd" clip-rule="evenodd" d="M750 300H720V330H690V360H720V390H750V360H780V330H750V300Z" fill="white"/>
<path fill-rule="evenodd" clip-rule="evenodd" d="M210 -30H180V0H150V30H180V60H210V30H240V0H210V-30Z" fill="white"/>
<path fill-rule="evenodd" clip-rule="evenodd" d="M900 300H870V330H840V360H870V390H900V360H930V330H900V300Z" fill="#44BCF0"/>
<path fill-rule="evenodd" clip-rule="evenodd" d="M360 -30H330V0H300V30H330V60H360V30H390V0H360V-30Z" fill="#44BCF0"/>
<path fill-rule="evenodd" clip-rule="evenodd" d="M420 540H390V570H360V600H390V630H420V600H450V570H420V540Z" fill="#44BCF0"/>
<path fill-rule="evenodd" clip-rule="evenodd" d="M1380 60H1350V90H1320V120H1350V150H1380V120H1410V90H1380V60Z" fill="#44BCF0"/>
<path fill-rule="evenodd" clip-rule="evenodd" d="M780 60H750V90H720V120H750V150H780V120H810V90H780V60Z" fill="#44BCF0"/>
<path fill-rule="evenodd" clip-rule="evenodd" d="M1080 510H1050V540H1020V570H1050V600H1080V570H1110V540H1080V510Z" fill="#44BCF0"/>
<path fill-rule="evenodd" clip-rule="evenodd" d="M300 300H270V330H240V360H270V390H300V360H330V330H300V300Z" fill="#44BCF0"/>
<path fill-rule="evenodd" clip-rule="evenodd" d="M1140 180H1110V210H1080V240H1110V270H1140V240H1170V210H1140V180Z" fill="#44BCF0"/>
<path fill-rule="evenodd" clip-rule="evenodd" d="M180 660H150V690H120V720H150V750H180V720H210V690H180V660Z" fill="#44BCF0"/>
<path fill-rule="evenodd" clip-rule="evenodd" d="M1440 630H1410V660H1380V690H1410V720H1440V690H1470V660H1440V630Z" fill="#44BCF0"/>
<path fill-rule="evenodd" clip-rule="evenodd" d="M660 420H630V450H600V480H630V510H660V480H690V450H660V420Z" fill="#44BCF0"/>
<path fill-rule="evenodd" clip-rule="evenodd" d="M120 90H90V120H60V150H90V180H120V150H150V120H120V90Z" fill="#44BCF0"/>
<path fill-rule="evenodd" clip-rule="evenodd" d="M1020 -60H990V-30H960V0H990V30H1020V0H1050V-30H1020V-60Z" fill="#44BCF0"/>
<path fill-rule="evenodd" clip-rule="evenodd" d="M60 420H30V450H0V480H30V510H60V480H90V450H60V420Z" fill="#44BCF0"/>
<path fill-rule="evenodd" clip-rule="evenodd" d="M1320 390H1290V420H1260V450H1290V480H1320V450H1350V420H1320V390Z" fill="#44BCF0"/>
<path fill-rule="evenodd" clip-rule="evenodd" d="M540 180H510V210H480V240H510V270H540V240H570V210H540V180Z" fill="#44BCF0"/>
<path fill-rule="evenodd" clip-rule="evenodd" d="M840 630H810V660H780V690H810V720H840V690H870V660H840V630Z" fill="#44BCF0"/>
<path fill-rule="evenodd" clip-rule="evenodd" d="M960 420H930V450H900V480H930V510H960V480H990V450H960V420Z" fill="#44BCF0"/>
<path fill-rule="evenodd" clip-rule="evenodd" d="M420 90H390V120H360V150H390V180H420V150H450V120H420V90Z" fill="#44BCF0"/>
<path fill-rule="evenodd" clip-rule="evenodd" d="M480 660H450V690H420V720H450V750H480V720H510V690H480V660Z" fill="#44BCF0"/>
<path fill-rule="evenodd" clip-rule="evenodd" d="M1440 180H1410V210H1380V240H1410V270H1440V240H1470V210H1440V180Z" fill="#44BCF0"/>
<path fill-rule="evenodd" clip-rule="evenodd" d="M840 180H810V210H780V240H810V270H840V240H870V210H840V180Z" fill="#44BCF0"/>
<path fill-rule="evenodd" clip-rule="evenodd" d="M1140 630H1110V660H1080V690H1110V720H1140V690H1170V660H1140V630Z" fill="#44BCF0"/>
<path fill-rule="evenodd" clip-rule="evenodd" d="M360 420H330V450H300V480H330V510H360V480H390V450H360V420Z" fill="#44BCF0"/>
<path fill-rule="evenodd" clip-rule="evenodd" d="M1320 -60H1290V-30H1260V0H1290V30H1320V0H1350V-30H1320V-60Z" fill="#44BCF0"/>
<path fill-rule="evenodd" clip-rule="evenodd" d="M1200 300H1170V330H1140V360H1170V390H1200V360H1230V330H1200V300Z" fill="#44BCF0"/>
<path fill-rule="evenodd" clip-rule="evenodd" d="M660 -30H630V0H600V30H630V60H660V30H690V0H660V-30Z" fill="#44BCF0"/>
<path fill-rule="evenodd" clip-rule="evenodd" d="M720 540H690V570H660V600H690V630H720V600H750V570H720V540Z" fill="#44BCF0"/>
<path fill-rule="evenodd" clip-rule="evenodd" d="M180 210H150V240H120V270H150V300H180V270H210V240H180V210Z" fill="#44BCF0"/>
<path fill-rule="evenodd" clip-rule="evenodd" d="M1080 60H1050V90H1020V120H1050V150H1080V120H1110V90H1080V60Z" fill="#44BCF0"/>
<path fill-rule="evenodd" clip-rule="evenodd" d="M120 540H90V570H60V600H90V630H120V600H150V570H120V540Z" fill="#44BCF0"/>
<path fill-rule="evenodd" clip-rule="evenodd" d="M1380 510H1350V540H1320V570H1350V600H1380V570H1410V540H1380V510Z" fill="#44BCF0"/>
<path fill-rule="evenodd" clip-rule="evenodd" d="M600 300H570V330H540V360H570V390H600V360H630V330H600V300Z" fill="#44BCF0"/>
<path fill-rule="evenodd" clip-rule="evenodd" d="M60 -30H30V0H0V30H30V60H60V30H90V0H60V-30Z" fill="#44BCF0"/>
<path fill-rule="evenodd" clip-rule="evenodd" d="M1020 240H990V270H960V300H990V330H1020V300H1050V270H1020V240Z" fill="#44BCF0"/>
<path fill-rule="evenodd" clip-rule="evenodd" d="M1320 690H1290V720H1260V750H1290V780H1320V750H1350V720H1320V690Z" fill="#44BCF0"/>
<path fill-rule="evenodd" clip-rule="evenodd" d="M540 480H510V510H480V540H510V570H540V540H570V510H540V480Z" fill="#44BCF0"/>
<path fill-rule="evenodd" clip-rule="evenodd" d="M0 150H-30V180H-60V210H-30V240H0V210H30V180H0V150Z" fill="#44BCF0"/>
<path fill-rule="evenodd" clip-rule="evenodd" d="M900 0H870V30H840V60H870V90H900V60H930V30H900V0Z" fill="#44BCF0"/>
<path fill-rule="evenodd" clip-rule="evenodd" d="M1200 450H1170V480H1140V510H1170V540H1200V510H1230V480H1200V450Z" fill="#44BCF0"/>
<path fill-rule="evenodd" clip-rule="evenodd" d="M420 240H390V270H360V300H390V330H420V300H450V270H420V240Z" fill="#44BCF0"/>
<path fill-rule="evenodd" clip-rule="evenodd" d="M720 690H690V720H660V750H690V780H720V750H750V720H720V690Z" fill="#44BCF0"/>
<path fill-rule="evenodd" clip-rule="evenodd" d="M1260 120H1230V150H1200V180H1230V210H1260V180H1290V150H1260V120Z" fill="#44BCF0"/>
<path fill-rule="evenodd" clip-rule="evenodd" d="M300 600H270V630H240V660H270V690H300V660H330V630H300V600Z" fill="#44BCF0"/>
<path fill-rule="evenodd" clip-rule="evenodd" d="M780 360H750V390H720V420H750V450H780V420H810V390H780V360Z" fill="#44BCF0"/>
<path fill-rule="evenodd" clip-rule="evenodd" d="M240 30H210V60H180V90H210V120H240V90H270V60H240V30Z" fill="#44BCF0"/>
<path fill-rule="evenodd" clip-rule="evenodd" d="M180 360H150V390H120V420H150V450H180V420H210V390H180V360Z" fill="#44BCF0"/>
<path fill-rule="evenodd" clip-rule="evenodd" d="M1440 330H1410V360H1380V390H1410V420H1440V390H1470V360H1440V330Z" fill="#44BCF0"/>
<path fill-rule="evenodd" clip-rule="evenodd" d="M660 120H630V150H600V180H630V210H660V180H690V150H660V120Z" fill="#44BCF0"/>
<path fill-rule="evenodd" clip-rule="evenodd" d="M960 570H930V600H900V630H930V660H960V630H990V600H960V570Z" fill="#44BCF0"/>
<path fill-rule="evenodd" clip-rule="evenodd" d="M1080 360H1050V390H1020V420H1050V450H1080V420H1110V390H1080V360Z" fill="#44BCF0"/>
<path fill-rule="evenodd" clip-rule="evenodd" d="M540 30H510V60H480V90H510V120H540V90H570V60H540V30Z" fill="#44BCF0"/>
<path fill-rule="evenodd" clip-rule="evenodd" d="M600 600H570V630H540V660H570V690H600V660H630V630H600V600Z" fill="#44BCF0"/>
<path fill-rule="evenodd" clip-rule="evenodd" d="M60 270H30V300H0V330H30V360H60V330H90V300H60V270Z" fill="#44BCF0"/>
<path fill-rule="evenodd" clip-rule="evenodd" d="M960 120H930V150H900V180H930V210H960V180H990V150H960V120Z" fill="#44BCF0"/>
<path fill-rule="evenodd" clip-rule="evenodd" d="M0 600H-30V630H-60V660H-30V690H0V660H30V630H0V600Z" fill="#44BCF0"/>
<path fill-rule="evenodd" clip-rule="evenodd" d="M1260 570H1230V600H1200V630H1230V660H1260V630H1290V600H1260V570Z" fill="#44BCF0"/>
<path fill-rule="evenodd" clip-rule="evenodd" d="M480 360H450V390H420V420H450V450H480V420H510V390H480V360Z" fill="#44BCF0"/>
<path fill-rule="evenodd" clip-rule="evenodd" d="M1320 240H1290V270H1260V300H1290V330H1320V300H1350V270H1320V240Z" fill="#44BCF0"/>
<path fill-rule="evenodd" clip-rule="evenodd" d="M840 480H810V510H780V540H810V570H840V540H870V510H840V480Z" fill="#44BCF0"/>
<path fill-rule="evenodd" clip-rule="evenodd" d="M300 150H270V180H240V210H270V240H300V210H330V180H300V150Z" fill="#44BCF0"/>
<path fill-rule="evenodd" clip-rule="evenodd" d="M1200 0H1170V30H1140V60H1170V90H1200V60H1230V30H1200V0Z" fill="#44BCF0"/>
<path fill-rule="evenodd" clip-rule="evenodd" d="M240 480H210V510H180V540H210V570H240V540H270V510H240V480Z" fill="#44BCF0"/>
<path fill-rule="evenodd" clip-rule="evenodd" d="M720 240H690V270H660V300H690V330H720V300H750V270H720V240Z" fill="#44BCF0"/>
<path fill-rule="evenodd" clip-rule="evenodd" d="M1020 690H990V720H960V750H990V780H1020V750H1050V720H1020V690Z" fill="#44BCF0"/>
<path fill-rule="evenodd" clip-rule="evenodd" d="M990 330H960V360H930V390H960V420H990V390H1020V360H990V330Z" fill="#32E4EF"/>
<path fill-rule="evenodd" clip-rule="evenodd" d="M450 0H420V30H390V60H420V90H450V60H480V30H450V0Z" fill="#32E4EF"/>
<path fill-rule="evenodd" clip-rule="evenodd" d="M510 570H480V600H450V630H480V660H510V630H540V600H510V570Z" fill="#32E4EF"/>
<path fill-rule="evenodd" clip-rule="evenodd" d="M1470 90H1440V120H1410V150H1440V180H1470V150H1500V120H1470V90Z" fill="#32E4EF"/>
<path fill-rule="evenodd" clip-rule="evenodd" d="M870 90H840V120H810V150H840V180H870V150H900V120H870V90Z" fill="#32E4EF"/>
<path fill-rule="evenodd" clip-rule="evenodd" d="M1170 540H1140V570H1110V600H1140V630H1170V600H1200V570H1170V540Z" fill="#32E4EF"/>
<path fill-rule="evenodd" clip-rule="evenodd" d="M390 330H360V360H330V390H360V420H390V390H420V360H390V330Z" fill="#32E4EF"/>
<path fill-rule="evenodd" clip-rule="evenodd" d="M1230 210H1200V240H1170V270H1200V300H1230V270H1260V240H1230V210Z" fill="#32E4EF"/>
<path fill-rule="evenodd" clip-rule="evenodd" d="M270 690H240V720H210V750H240V780H270V750H300V720H270V690Z" fill="#32E4EF"/>
<path fill-rule="evenodd" clip-rule="evenodd" d="M750 450H720V480H690V510H720V540H750V510H780V480H750V450Z" fill="#32E4EF"/>
<path fill-rule="evenodd" clip-rule="evenodd" d="M210 120H180V150H150V180H180V210H210V180H240V150H210V120Z" fill="#32E4EF"/>
<path fill-rule="evenodd" clip-rule="evenodd" d="M1110 -30H1080V0H1050V30H1080V60H1110V30H1140V0H1110V-30Z" fill="#32E4EF"/>
<path fill-rule="evenodd" clip-rule="evenodd" d="M150 450H120V480H90V510H120V540H150V510H180V480H150V450Z" fill="#32E4EF"/>
<path fill-rule="evenodd" clip-rule="evenodd" d="M1410 420H1380V450H1350V480H1380V510H1410V480H1440V450H1410V420Z" fill="#32E4EF"/>
<path fill-rule="evenodd" clip-rule="evenodd" d="M630 210H600V240H570V270H600V300H630V270H660V240H630V210Z" fill="#32E4EF"/>
<path fill-rule="evenodd" clip-rule="evenodd" d="M930 660H900V690H870V720H900V750H930V720H960V690H930V660Z" fill="#32E4EF"/>
<path fill-rule="evenodd" clip-rule="evenodd" d="M1050 450H1020V480H990V510H1020V540H1050V510H1080V480H1050V450Z" fill="#32E4EF"/>
<path fill-rule="evenodd" clip-rule="evenodd" d="M510 120H480V150H450V180H480V210H510V180H540V150H510V120Z" fill="#32E4EF"/>
<path fill-rule="evenodd" clip-rule="evenodd" d="M570 690H540V720H510V750H540V780H570V750H600V720H570V690Z" fill="#32E4EF"/>
<path fill-rule="evenodd" clip-rule="evenodd" d="M30 360H0V390H-30V420H0V450H30V420H60V390H30V360Z" fill="#32E4EF"/>
<path fill-rule="evenodd" clip-rule="evenodd" d="M930 210H900V240H870V270H900V300H930V270H960V240H930V210Z" fill="#32E4EF"/>
<path fill-rule="evenodd" clip-rule="evenodd" d="M1230 660H1200V690H1170V720H1200V750H1230V720H1260V690H1230V660Z" fill="#32E4EF"/>
<path fill-rule="evenodd" clip-rule="evenodd" d="M450 450H420V480H390V510H420V540H450V510H480V480H450V450Z" fill="#32E4EF"/>
<path fill-rule="evenodd" clip-rule="evenodd" d="M1410 -30H1380V0H1350V30H1380V60H1410V30H1440V0H1410V-30Z" fill="#32E4EF"/>
<path fill-rule="evenodd" clip-rule="evenodd" d="M1290 330H1260V360H1230V390H1260V420H1290V390H1320V360H1290V330Z" fill="#32E4EF"/>
<path fill-rule="evenodd" clip-rule="evenodd" d="M750 0H720V30H690V60H720V90H750V60H780V30H750V0Z" fill="#32E4EF"/>
<path fill-rule="evenodd" clip-rule="evenodd" d="M810 570H780V600H750V630H780V660H810V630H840V600H810V570Z" fill="#32E4EF"/>
<path fill-rule="evenodd" clip-rule="evenodd" d="M270 240H240V270H210V300H240V330H270V300H300V270H270V240Z" fill="#32E4EF"/>
<path fill-rule="evenodd" clip-rule="evenodd" d="M1170 90H1140V120H1110V150H1140V180H1170V150H1200V120H1170V90Z" fill="#32E4EF"/>
<path fill-rule="evenodd" clip-rule="evenodd" d="M210 570H180V600H150V630H180V660H210V630H240V600H210V570Z" fill="#32E4EF"/>
<path fill-rule="evenodd" clip-rule="evenodd" d="M1470 540H1440V570H1410V600H1440V630H1470V600H1500V570H1470V540Z" fill="#32E4EF"/>
<path fill-rule="evenodd" clip-rule="evenodd" d="M690 330H660V360H630V390H660V420H690V390H720V360H690V330Z" fill="#32E4EF"/>
<path fill-rule="evenodd" clip-rule="evenodd" d="M150 0H120V30H90V60H120V90H150V60H180V30H150V0Z" fill="#32E4EF"/>
<path fill-rule="evenodd" clip-rule="evenodd" d="M1110 270H1080V300H1050V330H1080V360H1110V330H1140V300H1110V270Z" fill="#32E4EF"/>
<path fill-rule="evenodd" clip-rule="evenodd" d="M570 -60H540V-30H510V0H540V30H570V0H600V-30H570V-60Z" fill="#32E4EF"/>
<path fill-rule="evenodd" clip-rule="evenodd" d="M630 510H600V540H570V570H600V600H630V570H660V540H630V510Z" fill="#32E4EF"/>
<path fill-rule="evenodd" clip-rule="evenodd" d="M90 180H60V210H30V240H60V270H90V240H120V210H90V180Z" fill="#32E4EF"/>
<path fill-rule="evenodd" clip-rule="evenodd" d="M990 30H960V60H930V90H960V120H990V90H1020V60H990V30Z" fill="#32E4EF"/>
<path fill-rule="evenodd" clip-rule="evenodd" d="M30 510H0V540H-30V570H0V600H30V570H60V540H30V510Z" fill="#32E4EF"/>
<path fill-rule="evenodd" clip-rule="evenodd" d="M1290 480H1260V510H1230V540H1260V570H1290V540H1320V510H1290V480Z" fill="#32E4EF"/>
<path fill-rule="evenodd" clip-rule="evenodd" d="M510 270H480V300H450V330H480V360H510V330H540V300H510V270Z" fill="#32E4EF"/>
<path fill-rule="evenodd" clip-rule="evenodd" d="M1350 150H1320V180H1290V210H1320V240H1350V210H1380V180H1350V150Z" fill="#32E4EF"/>
<path fill-rule="evenodd" clip-rule="evenodd" d="M390 630H360V660H330V690H360V720H390V690H420V660H390V630Z" fill="#32E4EF"/>
<path fill-rule="evenodd" clip-rule="evenodd" d="M870 390H840V420H810V450H840V480H870V450H900V420H870V390Z" fill="#32E4EF"/>
<path fill-rule="evenodd" clip-rule="evenodd" d="M330 60H300V90H270V120H300V150H330V120H360V90H330V60Z" fill="#32E4EF"/>
<path fill-rule="evenodd" clip-rule="evenodd" d="M270 390H240V420H210V450H240V480H270V450H300V420H270V390Z" fill="#32E4EF"/>
<path fill-rule="evenodd" clip-rule="evenodd" d="M750 150H720V180H690V210H720V240H750V210H780V180H750V150Z" fill="#32E4EF"/>
<path fill-rule="evenodd" clip-rule="evenodd" d="M1050 600H1020V630H990V660H1020V690H1050V660H1080V630H1050V600Z" fill="#32E4EF"/>
<path fill-rule="evenodd" clip-rule="evenodd" d="M1170 390H1140V420H1110V450H1140V480H1170V450H1200V420H1170V390Z" fill="#32E4EF"/>
<path fill-rule="evenodd" clip-rule="evenodd" d="M630 60H600V90H570V120H600V150H630V120H660V90H630V60Z" fill="#32E4EF"/>
<path fill-rule="evenodd" clip-rule="evenodd" d="M690 630H660V660H630V690H660V720H690V690H720V660H690V630Z" fill="#32E4EF"/>
<path fill-rule="evenodd" clip-rule="evenodd" d="M150 300H120V330H90V360H120V390H150V360H180V330H150V300Z" fill="#32E4EF"/>
<path fill-rule="evenodd" clip-rule="evenodd" d="M1050 150H1020V180H990V210H1020V240H1050V210H1080V180H1050V150Z" fill="#32E4EF"/>
<path fill-rule="evenodd" clip-rule="evenodd" d="M90 630H60V660H30V690H60V720H90V690H120V660H90V630Z" fill="#32E4EF"/>
<path fill-rule="evenodd" clip-rule="evenodd" d="M1350 600H1320V630H1290V660H1320V690H1350V660H1380V630H1350V600Z" fill="#32E4EF"/>
<path fill-rule="evenodd" clip-rule="evenodd" d="M570 390H540V420H510V450H540V480H570V450H600V420H570V390Z" fill="#32E4EF"/>
<path fill-rule="evenodd" clip-rule="evenodd" d="M30 60H0V90H-30V120H0V150H30V120H60V90H30V60Z" fill="#32E4EF"/>
<path fill-rule="evenodd" clip-rule="evenodd" d="M1410 270H1380V300H1350V330H1380V360H1410V330H1440V300H1410V270Z" fill="#32E4EF"/>
<path fill-rule="evenodd" clip-rule="evenodd" d="M870 -60H840V-30H810V0H840V30H870V0H900V-30H870V-60Z" fill="#32E4EF"/>
<path fill-rule="evenodd" clip-rule="evenodd" d="M930 510H900V540H870V570H900V600H930V570H960V540H930V510Z" fill="#32E4EF"/>
<path fill-rule="evenodd" clip-rule="evenodd" d="M390 180H360V210H330V240H360V270H390V240H420V210H390V180Z" fill="#32E4EF"/>
<path fill-rule="evenodd" clip-rule="evenodd" d="M1290 30H1260V60H1230V90H1260V120H1290V90H1320V60H1290V30Z" fill="#32E4EF"/>
<path fill-rule="evenodd" clip-rule="evenodd" d="M330 510H300V540H270V570H300V600H330V570H360V540H330V510Z" fill="#32E4EF"/>
<path fill-rule="evenodd" clip-rule="evenodd" d="M810 270H780V300H750V330H780V360H810V330H840V300H810V270Z" fill="#32E4EF"/>
<path fill-rule="evenodd" clip-rule="evenodd" d="M270 -60H240V-30H210V0H240V30H270V0H300V-30H270V-60Z" fill="#32E4EF"/>
</g>
</g>
</svg>
