<svg width="1440" height="56" viewBox="0 0 1440 56" fill="none" xmlns="http://www.w3.org/2000/svg">
<rect x="140" width="56" height="56" fill="#1488CC"/>
<rect x="335" width="28" height="56" fill="white"/>
<rect x="363" width="28" height="56" fill="black"/>
<rect x="56" width="28" height="56" fill="#1488CC"/>
<rect x="391" width="168" height="56" fill="#283CB5"/>
<rect x="84" width="112" height="56" fill="#283CB5"/>
<path fill-rule="evenodd" clip-rule="evenodd" d="M419 0H447L419 56H391L419 0Z" fill="#1488CC"/>
<path fill-rule="evenodd" clip-rule="evenodd" d="M112 0H140L112 56H84L112 0Z" fill="#1488CC"/>
<path fill-rule="evenodd" clip-rule="evenodd" d="M168 0H196L168 56H140L168 0Z" fill="#1488CC"/>
<path fill-rule="evenodd" clip-rule="evenodd" d="M363 28L335 0V56L363 28Z" fill="#1488CC"/>
<path fill-rule="evenodd" clip-rule="evenodd" d="M391 28L363 0V56L391 28Z" fill="white"/>
<rect x="196" width="56" height="56" fill="#283CB5"/>
<rect x="252" width="84" height="56" fill="#1488CC"/>
<rect width="28" height="56" fill="#1488CC"/>
<rect x="28" width="28" height="56" fill="black"/>
<circle cx="224" cy="28" r="28" fill="black"/>
<circle cx="280" cy="28" r="28" fill="white"/>
<ellipse cx="322" cy="28" rx="14" ry="28" fill="black"/>
<path fill-rule="evenodd" clip-rule="evenodd" d="M475 0H503L475 56H447L475 0Z" fill="black"/>
<rect x="699" width="56" height="56" fill="#1488CC"/>
<rect x="894" width="28" height="56" fill="white"/>
<rect x="922" width="28" height="56" fill="black"/>
<rect x="615" width="28" height="56" fill="#1488CC"/>
<rect x="950" width="168" height="56" fill="#283CB5"/>
<rect x="643" width="112" height="56" fill="#283CB5"/>
<path fill-rule="evenodd" clip-rule="evenodd" d="M978 0H1006L978 56H950L978 0Z" fill="#1488CC"/>
<path fill-rule="evenodd" clip-rule="evenodd" d="M671 0H699L671 56H643L671 0Z" fill="#1488CC"/>
<path fill-rule="evenodd" clip-rule="evenodd" d="M727 0H755L727 56H699L727 0Z" fill="#1488CC"/>
<path fill-rule="evenodd" clip-rule="evenodd" d="M922 28L894 0V56L922 28Z" fill="#1488CC"/>
<path fill-rule="evenodd" clip-rule="evenodd" d="M950 28L922 0V56L950 28Z" fill="white"/>
<rect x="755" width="56" height="56" fill="#283CB5"/>
<rect x="811" width="84" height="56" fill="#1488CC"/>
<rect x="559" width="28" height="56" fill="#1488CC"/>
<rect x="587" width="28" height="56" fill="black"/>
<circle cx="783" cy="28" r="28" fill="black"/>
<circle cx="839" cy="28" r="28" fill="white"/>
<ellipse cx="881" cy="28" rx="14" ry="28" fill="black"/>
<path fill-rule="evenodd" clip-rule="evenodd" d="M1034 0H1062L1034 56H1006L1034 0Z" fill="black"/>
<rect x="1258" width="56" height="56" fill="#1488CC"/>
<rect x="1174" width="28" height="56" fill="#1488CC"/>
<rect x="1202" width="112" height="56" fill="#283CB5"/>
<path fill-rule="evenodd" clip-rule="evenodd" d="M1230 0H1258L1230 56H1202L1230 0Z" fill="#1488CC"/>
<path fill-rule="evenodd" clip-rule="evenodd" d="M1286 0H1314L1286 56H1258L1286 0Z" fill="#1488CC"/>
<rect x="1314" width="56" height="56" fill="#283CB5"/>
<rect x="1370" width="84" height="56" fill="#1488CC"/>
<rect x="1118" width="28" height="56" fill="#1488CC"/>
<rect x="1146" width="28" height="56" fill="black"/>
<circle cx="1342" cy="28" r="28" fill="black"/>
<circle cx="1398" cy="28" r="28" fill="white"/>
<ellipse cx="1440" cy="28" rx="14" ry="28" fill="black"/>
</svg>
