<svg width="531" height="71" viewBox="0 0 531 71" fill="none" xmlns="http://www.w3.org/2000/svg">
<path fill-rule="evenodd" clip-rule="evenodd" d="M530.39 35.6427C530.39 54.8551 514.841 70.4299 495.66 70.4299C476.48 70.4299 460.931 54.8551 460.931 35.6427C460.931 16.4302 476.48 0.855469 495.66 0.855469C514.841 0.855469 530.39 16.4302 530.39 35.6427ZM495.66 68.9953C514.05 68.9953 528.957 54.0628 528.957 35.6427C528.957 17.2225 514.05 2.28999 495.66 2.28999C477.271 2.28999 462.363 17.2225 462.363 35.6427C462.363 54.0628 477.271 68.9953 495.66 68.9953Z" fill="white"/>
<path fill-rule="evenodd" clip-rule="evenodd" d="M511.609 33.744C512.85 34.5991 512.85 36.4348 511.609 37.2899L488.501 53.2099C487.075 54.1919 485.135 53.1698 485.135 51.437V19.5969C485.135 17.8641 487.075 16.842 488.501 17.824L511.609 33.744Z" fill="white"/>
<path d="M11.9893 24.0222V4.44096H4.57799L0.102539 7.59691V13.8371L4.61379 10.717H5.61629V24.0222H0.102539V29.5451H16.966V24.0222H11.9893Z" fill="white"/>
<path d="M29.8483 3.93888C24.1197 3.93888 19.6801 7.77623 19.6801 16.9572C19.6801 26.1381 24.1197 30.0114 29.8483 30.0114C35.5769 30.0114 40.0165 26.1381 40.0165 16.9572C40.0165 7.77623 35.5769 3.93888 29.8483 3.93888ZM29.8483 24.3808C26.3038 24.3808 26.0889 19.6469 26.0889 16.9572C26.0889 14.2316 26.3038 9.56938 29.8483 9.56938C33.3929 9.56938 33.6077 14.2316 33.6077 16.9572C33.6077 19.6469 33.3929 24.3808 29.8483 24.3808Z" fill="white"/>
<path d="M55.3103 24.0222V4.44096H47.8989L43.4235 7.59691V13.8371L47.9347 10.717H48.9372V24.0222H43.4235V29.5451H60.287V24.0222H55.3103Z" fill="white"/>
<path d="M89.6146 20.8304C89.2923 22.9822 87.717 24.1298 85.4255 24.1298C81.702 24.1298 79.7686 21.0456 79.7686 16.742C79.7686 12.4026 81.702 9.35421 85.4255 9.35421C87.4305 9.35421 88.8985 10.1791 89.3281 11.8646H96.2382C95.3789 6.98724 91.4763 3.47266 85.4255 3.47266C77.5488 3.47266 72.9659 8.7804 72.9659 16.742C72.9659 24.7036 77.5488 30.0114 85.4255 30.0114C91.727 30.0114 95.7728 26.2457 96.453 20.8304H89.6146Z" fill="white"/>
<path d="M117.435 19.36V13.6219H107.553V9.82043H120.514V3.93888H100.894V29.5451H120.836V23.6636H107.553V19.36H117.435Z" fill="white"/>
<path d="M125.054 29.5451H131.713V19.36H136.905L141.595 29.5451H148.29L142.24 16.3834L147.968 3.93888H141.273L136.869 13.3709H131.713V3.93888H125.054V29.5451Z" fill="white"/>
<path d="M161.471 14.1599L156.172 3.93888H149.298L158.786 21.8704L155.134 29.5451H161.686L173.931 3.93888H167.307L162.474 14.1599H161.471Z" fill="white"/>
<path d="M193.438 3.93888V13.4067H183.95V3.93888H177.291V29.5451H183.95V19.3959H193.438V29.5451H200.098V3.93888H193.438Z" fill="white"/>
<path d="M225.125 29.5451V35.8212H231.57V23.6636H227.953V3.93888H209.049V11.757C209.049 17.3517 207.796 21.2249 206.256 23.6636H203.607V35.8212H210.052V29.5451H225.125ZM221.509 23.6636H212.773C214.241 21.2249 215.028 17.3517 215.028 11.757V9.82043H221.509V23.6636Z" fill="white"/>
<path d="M250.731 3.93888H240.671L233.009 29.5451H239.489L241.315 22.9105H249.908L251.77 29.5451H258.393L250.731 3.93888ZM244.824 10.2508H246.399L248.44 17.6744H242.747L244.824 10.2508Z" fill="white"/>
<path d="M283.402 3.47266C275.131 3.47266 270.62 9.13903 270.62 16.742C270.62 24.345 275.131 30.0114 283.402 30.0114C291.672 30.0114 296.184 24.345 296.184 16.742C296.184 9.13903 291.672 3.47266 283.402 3.47266ZM283.402 24.1298C279.427 24.1298 277.422 21.0456 277.422 16.742C277.422 12.4026 279.427 9.35421 283.402 9.35421C287.376 9.35421 289.381 12.4384 289.381 16.742C289.381 21.0456 287.376 24.1298 283.402 24.1298Z" fill="white"/>
<path d="M328.485 3.93888H306.537V9.82043H314.163V29.5451H320.823V9.82043H328.485V3.93888Z" fill="white"/>
<path d="M343.436 3.47266C335.165 3.47266 330.654 9.13903 330.654 16.742C330.654 24.345 335.165 30.0114 343.436 30.0114C351.706 30.0114 356.217 24.345 356.217 16.742C356.217 9.13903 351.706 3.47266 343.436 3.47266ZM343.436 24.1298C339.461 24.1298 337.456 21.0456 337.456 16.742C337.456 12.4026 339.461 9.35421 343.436 9.35421C347.41 9.35421 349.415 12.4384 349.415 16.742C349.415 21.0456 347.41 24.1298 343.436 24.1298Z" fill="white"/>
<path d="M377.222 3.93888L374.394 13.2274H373.391L370.563 3.93888H360.609V29.5451H366.732V12.2233H367.734L370.634 21.4401H377.151L380.051 12.2233H381.053V29.5451H387.176V3.93888H377.222Z" fill="white"/>
<path d="M398.865 30.5493V23.305H392.277V29.5451H395.105V30.5493L391.883 35.2115H395.643L398.865 30.5493Z" fill="white"/>
<path d="M1.10504 68.9946H7.7645V58.8094H12.956L17.6463 68.9946H24.3416L18.2908 55.8328L24.0193 43.3883H17.3241L12.9202 52.8203H7.7645V43.3883H1.10504V68.9946Z" fill="white"/>
<path d="M43.3225 43.3883H33.2617L25.5997 68.9946H32.0802L33.9061 62.3599H42.499L44.3608 68.9946H50.9845L43.3225 43.3883ZM37.4149 49.7002H38.9903L41.0311 57.1239H35.3383L37.4149 49.7002Z" fill="white"/>
<path d="M54.3559 68.9946H61.0153V58.8094H66.2068L70.8971 68.9946H77.5924L71.5416 55.8328L77.2701 43.3883H70.5749L66.171 52.8203H61.0153V43.3883H54.3559V68.9946Z" fill="white"/>
<path d="M90.9636 43.3883V68.9946H99.5207L107.075 52.8203H108.078V68.9946H114.164V43.3883H105.607L98.0527 59.5626H97.0502V43.3883H90.9636Z" fill="white"/>
<path d="M128.668 43.3883V51.9954C128.668 56.0838 129.026 60.2439 138.156 60.2439C139.91 60.2439 141.736 60.0646 143.311 59.6701V68.9946H149.971V43.3883H143.311V53.8962C142.201 54.219 140.984 54.3624 139.982 54.3624C135.363 54.3624 135.327 52.4975 135.327 50.6685V43.3883H128.668Z" fill="white"/>
<path d="M172.014 58.8094V53.0713H162.132V49.2698H175.093V43.3883H155.473V68.9946H175.416V63.113H162.132V58.8094H172.014Z" fill="white"/>
<path d="M196.246 43.3883L193.418 52.6768H192.415L189.587 43.3883H179.633V68.9946H185.756V51.6727H186.758L189.658 60.8895H196.175L199.075 51.6727H200.077V68.9946H206.2V43.3883H196.246Z" fill="white"/>
<path d="M221.505 53.6093L216.206 43.3883H209.332L218.82 61.3198L215.168 68.9946H221.72L233.965 43.3883H227.341L222.508 53.6093H221.505Z" fill="white"/>
<path d="M263.902 43.3883L261.074 52.6768H260.071L257.243 43.3883H247.29V68.9946H253.412V51.6727H254.414L257.315 60.8895H263.831L266.731 51.6727H267.733V68.9946H273.856V43.3883H263.902Z" fill="white"/>
<path d="M286.046 51.4575V43.3883H279.387V68.9946H290.414C296.68 68.9946 300.26 65.731 300.26 60.1364C300.26 54.6493 296.68 51.4575 290.414 51.4575H286.046ZM286.046 63.2923V57.1597H289.412C292.384 57.1597 293.458 58.1998 293.458 60.2081C293.458 62.2164 292.384 63.2923 289.412 63.2923H286.046ZM309.39 43.3883H302.731V68.9946H309.39V43.3883Z" fill="white"/>
<path d="M334.65 53.6093L329.351 43.3883H322.477L331.965 61.3198L328.313 68.9946H334.865L347.11 43.3883H340.486L335.652 53.6093H334.65Z" fill="white"/>
<path d="M349.503 43.3883V51.9954C349.503 56.0838 349.861 60.2439 358.991 60.2439C360.745 60.2439 362.571 60.0646 364.147 59.6701V68.9946H370.806V43.3883H364.147V53.8962C363.037 54.219 361.819 54.3624 360.817 54.3624C356.198 54.3624 356.162 52.4975 356.162 50.6685V43.3883H349.503Z" fill="white"/>
<path d="M376.308 43.3883V68.9946H384.865L392.42 52.8203H393.422V68.9946H399.509V43.3883H390.952L383.397 59.5626H382.395V43.3883H376.308Z" fill="white"/>
<path d="M421.627 43.3883L418.798 52.6768H417.796L414.967 43.3883H405.014V68.9946H411.137V51.6727H412.139L415.039 60.8895H421.555L424.455 51.6727H425.458V68.9946H431.58V43.3883H421.627Z" fill="white"/>
</svg>
