<svg width="1024" height="672" viewBox="0 0 1024 672" fill="none" xmlns="http://www.w3.org/2000/svg">
<rect y="134.234" width="1024" height="537.765" fill="#1488CC"/>
<g clip-path="url(#clip0)" filter="url(#filter0_d)">
<rect width="802" height="482" transform="translate(112 82)" fill="#283CB5"/>
<rect x="112" y="82" width="802" height="482" fill="black"/>
<rect x="112" y="82" width="161.116" height="160.667" fill="#1488CC"/>
<rect x="593.2" y="242.668" width="161.116" height="160.667" fill="#283CB5"/>
<rect x="273.116" y="82" width="80.2" height="160.667" fill="white"/>
<rect x="352.6" y="82" width="80.2" height="160.667" fill="black"/>
<rect x="112" y="242.668" width="80.2" height="160.667" fill="#283CB5"/>
<rect x="112" y="403.332" width="80.2" height="160.667" fill="#1488CC"/>
<rect x="432.8" y="82" width="481.2" height="160.667" fill="#283CB5"/>
<rect x="192.2" y="403.332" width="320.8" height="160.667" fill="#283CB5"/>
<path fill-rule="evenodd" clip-rule="evenodd" d="M513.358 82H593.916L513.358 242.667H432.8L513.358 82Z" fill="#1488CC"/>
<path fill-rule="evenodd" clip-rule="evenodd" d="M272.758 403.332H353.316L272.758 563.999H192.2L272.758 403.332Z" fill="#1488CC"/>
<path fill-rule="evenodd" clip-rule="evenodd" d="M432.442 403.332H513L432.442 563.999H351.884L432.442 403.332Z" fill="#1488CC"/>
<path fill-rule="evenodd" clip-rule="evenodd" d="M353.316 162.335L273.116 82.0013V242.668L353.316 162.335Z" fill="#1488CC"/>
<path fill-rule="evenodd" clip-rule="evenodd" d="M432.8 162.335L352.6 82.0013V242.668L432.8 162.335Z" fill="white"/>
<rect x="513" y="403.332" width="161.116" height="160.667" fill="#283CB5"/>
<rect x="674.116" y="403.332" width="239.884" height="160.667" fill="#1488CC"/>
<rect x="754.316" y="242.668" width="80.2" height="160.667" fill="#1488CC"/>
<rect x="833.8" y="243.383" width="80.2" height="160.667" fill="black"/>
<ellipse cx="593.558" cy="483.665" rx="80.558" ry="80.3333" fill="black"/>
<ellipse cx="753.242" cy="483.665" rx="80.558" ry="80.3333" fill="white"/>
<ellipse cx="914" cy="483.665" rx="80.2" ry="80.3333" fill="black"/>
<path fill-rule="evenodd" clip-rule="evenodd" d="M673.758 82H754.316L673.758 242.667H593.2L673.758 82Z" fill="black"/>
<path fill-rule="evenodd" clip-rule="evenodd" d="M833.442 82H914L833.442 242.667H752.884L833.442 82Z" fill="#1488CC"/>
<path fill-rule="evenodd" clip-rule="evenodd" d="M271.684 323.717L191.484 243.384V404.051L271.684 323.717Z" fill="#283CB5"/>
<ellipse cx="593.558" cy="323.001" rx="80.558" ry="80.3333" fill="#283CB5"/>
<path fill-rule="evenodd" clip-rule="evenodd" d="M726.39 322.643C726.39 341.855 710.841 357.43 691.66 357.43C672.48 357.43 656.931 341.855 656.931 322.643C656.931 303.43 672.48 287.855 691.66 287.855C710.841 287.855 726.39 303.43 726.39 322.643ZM691.66 355.995C710.05 355.995 724.957 341.063 724.957 322.643C724.957 304.222 710.05 289.29 691.66 289.29C673.271 289.29 658.363 304.222 658.363 322.643C658.363 341.063 673.271 355.995 691.66 355.995Z" fill="white"/>
<path fill-rule="evenodd" clip-rule="evenodd" d="M707.609 320.744C708.85 321.599 708.85 323.435 707.609 324.29L684.501 340.21C683.075 341.192 681.135 340.17 681.135 338.437V306.597C681.135 304.864 683.075 303.842 684.501 304.824L707.609 320.744Z" fill="white"/>
<path d="M207.989 311.022V291.441H200.578L196.103 294.597V300.837L200.614 297.717H201.616V311.022H196.103V316.545H212.966V311.022H207.989Z" fill="white"/>
<path d="M225.848 290.939C220.12 290.939 215.68 294.776 215.68 303.957C215.68 313.138 220.12 317.011 225.848 317.011C231.577 317.011 236.017 313.138 236.017 303.957C236.017 294.776 231.577 290.939 225.848 290.939ZM225.848 311.381C222.304 311.381 222.089 306.647 222.089 303.957C222.089 301.232 222.304 296.569 225.848 296.569C229.393 296.569 229.608 301.232 229.608 303.957C229.608 306.647 229.393 311.381 225.848 311.381Z" fill="white"/>
<path d="M251.31 311.022V291.441H243.899L239.423 294.597V300.837L243.935 297.717H244.937V311.022H239.423V316.545H256.287V311.022H251.31Z" fill="white"/>
<path d="M285.615 307.83C285.292 309.982 283.717 311.13 281.426 311.13C277.702 311.13 275.769 308.046 275.769 303.742C275.769 299.403 277.702 296.354 281.426 296.354C283.431 296.354 284.898 297.179 285.328 298.865H292.238C291.379 293.987 287.476 290.473 281.426 290.473C273.549 290.473 268.966 295.78 268.966 303.742C268.966 311.704 273.549 317.011 281.426 317.011C287.727 317.011 291.773 313.246 292.453 307.83H285.615Z" fill="white"/>
<path d="M313.435 306.36V300.622H303.553V296.82H316.514V290.939H296.894V316.545H316.836V310.664H303.553V306.36H313.435Z" fill="white"/>
<path d="M321.054 316.545H327.713V306.36H332.905L337.595 316.545H344.29L338.24 303.383L343.968 290.939H337.273L332.869 300.371H327.713V290.939H321.054V316.545Z" fill="white"/>
<path d="M357.471 301.16L352.172 290.939H345.298L354.786 308.87L351.134 316.545H357.686L369.931 290.939H363.307L358.474 301.16H357.471Z" fill="white"/>
<path d="M389.438 290.939V300.407H379.95V290.939H373.291V316.545H379.95V306.396H389.438V316.545H396.098V290.939H389.438Z" fill="white"/>
<path d="M421.125 316.545V322.821H427.57V310.664H423.953V290.939H405.049V298.757C405.049 304.352 403.796 308.225 402.256 310.664H399.607V322.821H406.052V316.545H421.125ZM417.509 310.664H408.773C410.241 308.225 411.028 304.352 411.028 298.757V296.82H417.509V310.664Z" fill="white"/>
<path d="M446.731 290.939H436.671L429.009 316.545H435.489L437.315 309.91H445.908L447.77 316.545H454.393L446.731 290.939ZM440.824 297.251H442.399L444.44 304.674H438.747L440.824 297.251Z" fill="white"/>
<path d="M479.402 290.473C471.131 290.473 466.62 296.139 466.62 303.742C466.62 311.345 471.131 317.011 479.402 317.011C487.672 317.011 492.184 311.345 492.184 303.742C492.184 296.139 487.672 290.473 479.402 290.473ZM479.402 311.13C475.427 311.13 473.422 308.046 473.422 303.742C473.422 299.403 475.427 296.354 479.402 296.354C483.376 296.354 485.381 299.438 485.381 303.742C485.381 308.046 483.376 311.13 479.402 311.13Z" fill="white"/>
<path d="M524.485 290.939H502.537V296.82H510.163V316.545H516.823V296.82H524.485V290.939Z" fill="white"/>
<path d="M539.436 290.473C531.165 290.473 526.654 296.139 526.654 303.742C526.654 311.345 531.165 317.011 539.436 317.011C547.706 317.011 552.217 311.345 552.217 303.742C552.217 296.139 547.706 290.473 539.436 290.473ZM539.436 311.13C535.461 311.13 533.456 308.046 533.456 303.742C533.456 299.403 535.461 296.354 539.436 296.354C543.41 296.354 545.415 299.438 545.415 303.742C545.415 308.046 543.41 311.13 539.436 311.13Z" fill="white"/>
<path d="M573.222 290.939L570.394 300.227H569.391L566.563 290.939H556.609V316.545H562.732V299.223H563.734L566.634 308.44H573.151L576.051 299.223H577.053V316.545H583.176V290.939H573.222Z" fill="white"/>
<path d="M594.865 317.549V310.305H588.277V316.545H591.105V317.549L587.883 322.212H591.643L594.865 317.549Z" fill="white"/>
<path d="M197.105 355.995H203.765V345.809H208.956L213.646 355.995H220.342L214.291 342.833L220.019 330.388H213.324L208.92 339.82H203.765V330.388H197.105V355.995Z" fill="white"/>
<path d="M239.322 330.388H229.262L221.6 355.995H228.08L229.906 349.36H238.499L240.361 355.995H246.984L239.322 330.388ZM233.415 336.7H234.99L237.031 344.124H231.338L233.415 336.7Z" fill="white"/>
<path d="M250.356 355.995H257.015V345.809H262.207L266.897 355.995H273.592L267.542 342.833L273.27 330.388H266.575L262.171 339.82H257.015V330.388H250.356V355.995Z" fill="white"/>
<path d="M286.964 330.388V355.995H295.521L303.075 339.82H304.078V355.995H310.164V330.388H301.607L294.053 346.563H293.05V330.388H286.964Z" fill="white"/>
<path d="M324.668 330.388V338.995C324.668 343.084 325.026 347.244 334.156 347.244C335.91 347.244 337.736 347.065 339.311 346.67V355.995H345.971V330.388H339.311V340.896C338.201 341.219 336.984 341.362 335.982 341.362C331.363 341.362 331.327 339.498 331.327 337.669V330.388H324.668Z" fill="white"/>
<path d="M368.014 345.809V340.071H358.132V336.27H371.093V330.388H351.473V355.995H371.416V350.113H358.132V345.809H368.014Z" fill="white"/>
<path d="M392.246 330.388L389.418 339.677H388.415L385.587 330.388H375.633V355.995H381.756V338.673H382.758L385.658 347.889H392.175L395.075 338.673H396.077V355.995H402.2V330.388H392.246Z" fill="white"/>
<path d="M417.505 340.609L412.206 330.388H405.332L414.82 348.32L411.168 355.995H417.72L429.965 330.388H423.341L418.508 340.609H417.505Z" fill="white"/>
<path d="M459.902 330.388L457.074 339.677H456.071L453.243 330.388H443.29V355.995H449.412V338.673H450.414L453.315 347.889H459.831L462.731 338.673H463.733V355.995H469.856V330.388H459.902Z" fill="white"/>
<path d="M482.046 338.457V330.388H475.387V355.995H486.414C492.68 355.995 496.26 352.731 496.26 347.136C496.26 341.649 492.68 338.457 486.414 338.457H482.046ZM482.046 350.292V344.16H485.412C488.384 344.16 489.458 345.2 489.458 347.208C489.458 349.216 488.384 350.292 485.412 350.292H482.046ZM505.39 330.388H498.731V355.995H505.39V330.388Z" fill="white"/>
<path d="M530.65 340.609L525.351 330.388H518.477L527.965 348.32L524.313 355.995H530.865L543.11 330.388H536.486L531.652 340.609H530.65Z" fill="white"/>
<path d="M545.503 330.388V338.995C545.503 343.084 545.861 347.244 554.991 347.244C556.745 347.244 558.571 347.065 560.147 346.67V355.995H566.806V330.388H560.147V340.896C559.037 341.219 557.819 341.362 556.817 341.362C552.198 341.362 552.162 339.498 552.162 337.669V330.388H545.503Z" fill="white"/>
<path d="M572.308 330.388V355.995H580.865L588.42 339.82H589.422V355.995H595.509V330.388H586.952L579.397 346.563H578.395V330.388H572.308Z" fill="white"/>
<path d="M617.627 330.388L614.798 339.677H613.796L610.967 330.388H601.014V355.995H607.137V338.673H608.139L611.039 347.889H617.555L620.455 338.673H621.458V355.995H627.58V330.388H617.627Z" fill="white"/>
</g>
<defs>
<filter id="filter0_d" x="37" y="32" width="952" height="632" filterUnits="userSpaceOnUse" color-interpolation-filters="sRGB">
<feFlood flood-opacity="0" result="BackgroundImageFix"/>
<feColorMatrix in="SourceAlpha" type="matrix" values="0 0 0 0 0 0 0 0 0 0 0 0 0 0 0 0 0 0 127 0"/>
<feMorphology radius="15" operator="dilate" in="SourceAlpha" result="effect1_dropShadow"/>
<feOffset dy="25"/>
<feGaussianBlur stdDeviation="30"/>
<feColorMatrix type="matrix" values="0 0 0 0 0 0 0 0 0 0 0 0 0 0 0 0 0 0 0.4 0"/>
<feBlend mode="normal" in2="BackgroundImageFix" result="effect1_dropShadow"/>
<feBlend mode="normal" in="SourceGraphic" in2="effect1_dropShadow" result="shape"/>
</filter>
<clipPath id="clip0">
<rect width="802" height="482" fill="white" transform="translate(112 82)"/>
</clipPath>
</defs>
</svg>
