<svg width="108" height="41" viewBox="0 0 108 41" fill="none" xmlns="http://www.w3.org/2000/svg">
<path d="M46.2137 3.73193L40.2205 39.9253H31.9775L37.9708 3.73193C37.9708 3.73193 46.2137 3.73193 46.2137 3.73193Z" fill="white"/>
<path d="M77.8536 17.374L69.6287 17.77C69.6826 17.2121 69.7006 16.7981 69.7006 16.4921C69.7006 14.6564 69.2507 13.1086 68.3328 11.8487C67.4329 10.5889 66.0651 9.94098 64.2113 9.94098C61.2057 9.94098 59.064 11.7767 57.7682 15.4123C56.4723 19.0478 55.8244 22.6474 55.8244 26.1389C55.8244 28.7306 56.3823 30.6384 57.4802 31.8262C58.5781 33.0141 59.9999 33.626 61.7277 33.626C65.2372 33.626 67.6489 31.3943 68.9627 26.9308L76.3418 28.2267C73.6061 36.4696 68.5308 40.5911 61.0977 40.5911C56.4903 40.5911 52.9808 39.0613 50.5511 36.0017C48.1214 32.9421 46.9155 29.2345 46.9155 24.8971C46.9155 19.1198 48.4993 14.0445 51.6669 9.63502C54.8345 5.24357 59.046 3.04785 64.2833 3.04785C68.0808 3.04785 71.2664 4.21771 73.8041 6.53941C76.3598 8.87911 77.6916 12.4967 77.8536 17.374Z" fill="white"/>
<path d="M108 3.73187L106.866 10.607H90.7942L89.4804 18.67H103.141L102.007 25.5451H88.6165L86.2588 39.9073H77.6919L83.6851 3.71387L108 3.73187Z" fill="white"/>
<path d="M3.61313 38.5034C3.68512 38.5574 3.7751 38.6114 3.8471 38.6654C6.69073 34.004 10.2543 28.8567 14.6997 23.6013C19.1092 18.382 24.4365 12.9827 30.9697 7.67334C30.9697 7.67334 26.5242 10.337 20.603 15.0704C14.7897 19.7318 7.46464 26.445 0.949463 35.1559C1.56139 36.5237 2.44327 37.6755 3.61313 38.5034Z" fill="#FEBD3B"/>
<path d="M0.283574 26.733C-0.0583823 28.8027 -0.0943778 30.7645 0.193586 32.5103C3.72114 28.4968 8.0046 24.1053 13.026 19.8579C15.5636 17.7161 18.2993 15.5924 21.2509 13.5767C24.2385 11.5249 27.4781 9.52717 30.9697 7.69141C30.9697 7.69141 26.7942 8.98724 20.819 12.1008C17.9213 13.6127 14.5918 15.5384 11.0822 17.9681C7.64464 20.3258 3.9911 23.2234 0.283574 26.733Z" fill="#FEBD3B"/>
<path d="M28.1081 0.276293C26.3983 -0.155652 24.5086 -0.0656643 22.5288 0.438272C20.6031 0.92421 18.5873 1.8421 16.6076 3.06594C12.7021 5.47763 8.79656 9.27515 5.66496 13.9546C5.14302 14.7285 4.65709 15.5384 4.18914 16.3303C2.87531 18.634 1.84944 20.9737 1.16553 23.2234C4.87306 20.2358 9.2645 17.0862 14.1419 14.3685C16.6256 12.9647 19.2712 11.6688 22.0429 10.553C24.8685 9.40114 27.8561 8.42926 31.0057 7.69135C31.0057 7.69135 28.1261 7.52937 23.5187 8.42926C21.287 8.86121 18.6773 9.52712 15.7977 10.589C12.99 11.6149 9.91242 13.0007 6.63683 14.8724C6.72682 14.7465 6.79881 14.6205 6.87081 14.4945C9.64245 10.337 13.116 6.97145 16.5896 4.82972C18.3533 3.74985 20.1351 2.95795 21.8269 2.544C23.5547 2.13006 25.2285 2.07607 26.7223 2.49001C29.8179 3.33591 31.6177 5.99957 31.9056 9.74309C32.0676 11.6868 31.8156 13.9006 31.1317 16.2583C30.4478 18.67 29.332 21.2436 27.7482 23.7993C23.7347 30.3505 18.0294 35.0479 12.882 36.6497C14.6458 32.3302 16.9315 27.6868 19.9012 22.7914C22.8168 17.9681 26.4163 12.9287 30.9518 7.67335C30.9518 7.67335 26.9923 11.2009 22.0069 16.8162C19.4872 19.6598 16.7156 23.0434 13.9979 26.8409C11.2443 30.6744 8.5266 34.9939 6.16889 39.6913C7.46473 40.0153 8.86855 40.0333 10.1824 39.8893C11.4602 39.7453 12.7741 39.2953 13.9799 38.8274C15.0778 38.3775 16.1216 37.8555 17.1295 37.2616C18.2274 36.6137 19.2712 35.8938 20.2791 35.1019C21.341 34.274 22.3668 33.3561 23.3387 32.4022C24.3646 31.3943 25.3185 30.3325 26.2184 29.2166C27.1722 28.0468 28.0541 26.8409 28.846 25.5811C29.062 25.2571 29.26 24.9152 29.4759 24.5912C31.2757 21.6216 32.5536 18.67 33.3275 15.8803C34.0654 13.1627 34.3353 10.625 34.1374 8.42926C33.9394 6.28753 33.2915 4.46976 32.2476 3.06594C31.2757 1.66212 29.8719 0.726236 28.1081 0.276293Z" fill="#FEBD3B"/>
</svg>
