<svg width="33" height="28" viewBox="0 0 33 28" fill="none" xmlns="http://www.w3.org/2000/svg">
<path fill-rule="evenodd" clip-rule="evenodd" d="M16.9517 18.8208C19.1813 18.8649 21.3346 18.0052 22.9257 16.4357C26.1379 13.2172 26.7518 8.21327 24.4136 4.30764C22.6857 1.48858 20.1675 -0.0157708 16.8013 0.000301326H9.56665C8.6485 -0.00792136 7.73657 0.152208 6.87563 0.472822C3.88064 1.62037 2.08237 3.82869 1.24722 6.87597C1.09594 7.41921 0.988931 7.97392 0.927246 8.53461V10.2961C1.02341 10.9357 1.15265 11.5698 1.31442 12.1958C2.32555 15.5099 4.40541 17.7439 7.81637 18.6247C8.04995 18.6697 8.11395 18.7597 8.11395 18.9911V22.6331C8.10533 22.9706 8.23255 23.2972 8.46683 23.5393C8.7011 23.7813 9.02263 23.9181 9.35866 23.9189C9.76096 23.9149 10.1417 23.7354 10.4018 23.4271C11.1402 22.6439 11.885 21.8617 12.6308 21.0784C13.2748 20.4021 13.9195 19.725 14.5615 19.0458C14.6985 18.8904 14.8993 18.8073 15.1055 18.8208H16.9517ZM27.3734 10.1643C28.5519 10.367 29.6491 10.9008 30.538 11.704C33.981 14.777 33.6514 20.5341 29.882 23.1378C29.2872 23.5017 28.6513 23.793 27.9878 24.0057C27.719 24.1085 27.6454 24.205 27.6454 24.4782V26.7669C27.6735 27.1301 27.533 27.4861 27.2646 27.7312C26.8074 28.1286 26.1164 28.0797 25.7191 27.6219C25.3957 27.2969 25.0804 26.9637 24.7663 26.6318C24.6423 26.5007 24.5185 26.3698 24.3944 26.2397C24.2046 26.0404 24.014 25.8418 23.8234 25.6432C23.4423 25.246 23.0612 24.8489 22.6857 24.446C22.5551 24.2979 22.3639 24.2185 22.1674 24.2307C21.3239 24.2503 20.4802 24.2084 19.6428 24.1053C17.7069 23.7678 16.2926 22.6331 15.2815 20.9745C15.0991 20.6755 15.2591 20.3991 15.6174 20.3991H16.9325C21.0891 20.3476 24.0872 18.3804 26.0647 14.7802C26.8015 13.4126 27.238 11.9022 27.3446 10.3508C27.3467 10.3348 27.3506 10.3185 27.3548 10.3007C27.3634 10.2646 27.3734 10.2224 27.3734 10.1643Z" fill="white"/>
</svg>
