<svg width="20" height="20" viewBox="0 0 20 20" fill="none" xmlns="http://www.w3.org/2000/svg">
<path fill-rule="evenodd" clip-rule="evenodd" d="M10 20C15.5228 20 20 15.5228 20 10C20 4.47715 15.5228 0 10 0C4.47715 0 0 4.47715 0 10C0 15.5228 4.47715 20 10 20ZM10.3435 6.92941C10.7882 6.92941 11.4141 6.43529 11.4141 5.82588C11.4141 5.41412 11.1012 4.70588 10.4588 4.70588C10.1294 4.70588 9.76707 4.85412 9.56943 5.05176C9.35531 5.26588 9.27295 5.61176 9.27295 5.82588C9.27295 6.20471 9.42119 6.45176 9.61884 6.63294C9.81648 6.83059 10.1788 6.92941 10.3435 6.92941ZM8.71294 15.0023C8.83099 15.0023 9.05734 14.9906 9.3192 14.977C9.67847 14.9585 10.1046 14.9364 10.4094 14.9364C10.6411 14.9364 11.1016 14.9566 11.4338 14.9712L11.4339 14.9712C11.6213 14.9794 11.7678 14.9858 11.8094 14.9858C12.0729 14.9858 12.32 14.9035 12.32 14.7552C12.32 14.607 12.1882 14.5082 11.9412 14.4258C11.5129 14.2941 11.3976 14.1952 11.3812 13.7176L11.3737 13.4604L11.3737 13.4602C11.3624 13.0698 11.3523 12.7221 11.3492 12.4634L11.3492 11.8728C11.3532 10.7878 11.3713 9.0092 11.4141 8.38112C11.4141 8.31524 11.3318 8.18347 11.2494 8.19994C11.1693 8.21997 11.0054 8.27198 10.7962 8.33837C10.3174 8.49034 9.60113 8.71765 9.10824 8.80935C8.81176 8.85876 8.61412 8.99053 8.61412 9.12229C8.61412 9.19988 8.68518 9.27747 8.76355 9.36303C8.785 9.38644 8.807 9.41046 8.82824 9.43524L8.86664 9.47148C9.14168 9.73102 9.32308 9.90219 9.33882 10.0282C9.37177 10.2258 9.37177 10.4894 9.37177 10.9835C9.37177 12.4823 9.33882 13.7341 9.27294 13.9646C9.22353 14.1294 9.09176 14.3435 8.69647 14.4588C8.35059 14.5576 8.23529 14.6399 8.23529 14.7717C8.23529 14.887 8.44941 15.0023 8.71294 15.0023Z" fill="#1488CC"/>
</svg>
