<svg width="30" height="31" viewBox="0 0 30 31" fill="none" xmlns="http://www.w3.org/2000/svg">
<path fill-rule="evenodd" clip-rule="evenodd" d="M15 30.5C6.72923 30.5 0 23.7708 0 15.5C0 7.22923 6.72923 0.5 15 0.5C23.2708 0.5 30 7.22923 30 15.5C30 23.7708 23.2708 30.5 15 30.5ZM15 2.80769C8.00077 2.80769 2.30769 8.50308 2.30769 15.5C2.30769 22.4969 8.00077 28.1923 15 28.1923C21.9992 28.1923 27.6923 22.4969 27.6923 15.5C27.6923 8.50308 21.9992 2.80769 15 2.80769ZM15 7.5C15.5128 7.5 15.9355 7.88604 15.9933 8.38338L16 8.5V14H21.5C22.0523 14 22.5 14.4477 22.5 15C22.5 15.5128 22.114 15.9355 21.6166 15.9933L21.5 16H16V21.5C16 22.0523 15.5523 22.5 15 22.5C14.4872 22.5 14.0645 22.114 14.0067 21.6166L14 21.5V16H8.5C7.94772 16 7.5 15.5523 7.5 15C7.5 14.4872 7.88604 14.0645 8.38338 14.0067L8.5 14H14V8.5C14 7.94772 14.4477 7.5 15 7.5Z" fill="#1488CC"/>
</svg>
