<svg width="30" height="31" viewBox="0 0 30 31" fill="none" xmlns="http://www.w3.org/2000/svg">
<path fill-rule="evenodd" clip-rule="evenodd" d="M15 30.5C6.72923 30.5 0 23.7708 0 15.5C0 7.22923 6.72923 0.5 15 0.5C23.2708 0.5 30 7.22923 30 15.5C30 23.7708 23.2708 30.5 15 30.5ZM15 2.80769C8.00077 2.80769 2.30769 8.50308 2.30769 15.5C2.30769 22.4969 8.00077 28.1923 15 28.1923C21.9992 28.1923 27.6923 22.4969 27.6923 15.5C27.6923 8.50308 21.9992 2.80769 15 2.80769ZM8.38338 14.0067C7.88604 14.0645 7.5 14.4872 7.5 15C7.5 15.5523 7.94772 16 8.5 16H21.5L21.6166 15.9933C22.114 15.9355 22.5 15.5128 22.5 15C22.5 14.4477 22.0523 14 21.5 14H8.5L8.38338 14.0067Z" fill="#CCCCCC"/>
</svg>
