<?xml version="1.0" encoding="UTF-8"?>
<!DOCTYPE svg PUBLIC "-//W3C//DTD SVG 1.1//EN" "http://www.w3.org/Graphics/SVG/1.1/DTD/svg11.dtd">
<!-- Creator: CorelDRAW 2020 (64-Bit) -->
<svg xmlns="http://www.w3.org/2000/svg" xml:space="preserve" width="1120px" height="672px" version="1.1" style="shape-rendering:geometricPrecision; text-rendering:geometricPrecision; image-rendering:optimizeQuality; fill-rule:evenodd; clip-rule:evenodd"
viewBox="0 0 1120 672"
 xmlns:xlink="http://www.w3.org/1999/xlink"
 xmlns:xodm="http://www.corel.com/coreldraw/odm/2003">
 <defs>
  <style type="text/css">
   <![CDATA[
    .fil6 {fill:black}
    .fil4 {fill:#1488CC}
    .fil7 {fill:#283CB5}
    .fil5 {fill:white}
    .fil0 {fill:black;fill-rule:nonzero}
    .fil1 {fill:#1488CC;fill-rule:nonzero}
    .fil2 {fill:#283CB5;fill-rule:nonzero}
    .fil3 {fill:white;fill-rule:nonzero}
   ]]>
  </style>
 </defs>
 <g id="Слой_x0020_1">
  <metadata id="CorelCorpID_0Corel-Layer"/>
  <g id="_2552629112560">
   <rect class="fil0" width="1120" height="672"/>
   <rect class="fil1" width="225" height="224"/>
   <rect class="fil2" x="672" y="224" width="225" height="224"/>
   <rect class="fil3" x="225" width="112" height="224"/>
   <rect class="fil0" x="336" width="112" height="224"/>
   <rect class="fil2" y="224" width="112" height="224"/>
   <rect class="fil1" y="448" width="112" height="224"/>
   <rect class="fil2" x="448" width="672" height="224"/>
   <rect class="fil2" x="112" y="448" width="448" height="224"/>
   <polygon class="fil4" points="560.5,0 673,0 560.5,224.001 448,224.001 "/>
   <polygon class="fil4" points="224.5,448 337,448 224.5,672 112,672 "/>
   <polygon class="fil4" points="447.5,448 560,448 447.5,672 335,672 "/>
   <polygon class="fil4" points="337,112 225,0 225,224.001 "/>
   <polygon class="fil5" points="448,112 336,0 336,224.001 "/>
   <rect class="fil2" x="560" y="448" width="225" height="224"/>
   <rect class="fil1" x="785" y="448" width="335" height="224"/>
   <rect class="fil1" x="897" y="224" width="112" height="224"/>
   <rect class="fil0" x="1008" y="225" width="112" height="224"/>
   <ellipse class="fil0" cx="672.5" cy="560" rx="112.5" ry="112"/>
   <ellipse class="fil3" cx="895.5" cy="560" rx="112.5" ry="112"/>
   <path class="fil0" d="M1119.999 560.001l0.001 111.999c-0.001,0 -0.001,0 -0.001,0 -61.855,0 -111.999,-50.144 -111.999,-111.999 0,-61.856 50.144,-112 111.999,-112 0,0 0,0 0.001,0l-0.001 112z"/>
   <polygon class="fil6" points="784.5,0 897,0 784.5,224.001 672,224.001 "/>
   <polygon class="fil4" points="1007.5,0 1120,0 1007.5,224.001 895,224.001 "/>
   <polygon class="fil7" points="223,337 111,225 111,449 "/>
   <ellipse class="fil2" cx="672.5" cy="336" rx="112.5" ry="112"/>
  </g>
  <g id="_2552627515456">
   <path class="fil5" d="M859.501 336.96c0,27.097 -21.931,49.065 -48.985,49.065 -27.052,0 -48.983,-21.968 -48.983,-49.065 0,-27.099 21.931,-49.066 48.983,-49.066 27.054,0 48.985,21.967 48.985,49.066zm-48.985 47.041c25.938,0 46.963,-21.061 46.963,-47.041 0,-25.981 -21.025,-47.042 -46.963,-47.042 -25.936,0 -46.963,21.061 -46.963,47.042 0,25.98 21.027,47.041 46.963,47.041z"/>
   <path class="fil5" d="M833.011 334.282c1.75,1.205 1.75,3.795 0,5.001l-32.593 22.454c-2.01,1.385 -4.747,-0.057 -4.747,-2.501l0 -44.908c0,-2.444 2.737,-3.886 4.747,-2.501l32.593 22.455z"/>
   <polygon class="fil3" points="128.33,320.57 128.33,292.952 117.877,292.952 111.565,297.403 111.565,306.204 117.928,301.803 119.342,301.803 119.342,320.57 111.565,320.57 111.565,328.359 135.35,328.359 135.35,320.57 "/>
   <path class="fil3" d="M153.519 292.244c-8.08,0 -14.341,5.412 -14.341,18.361 0,12.949 6.261,18.412 14.341,18.412 8.08,0 14.342,-5.463 14.342,-18.412 0,-12.949 -6.262,-18.361 -14.342,-18.361zm0 28.831c-4.999,0 -5.302,-6.677 -5.302,-10.47 0,-3.845 0.303,-10.42 5.302,-10.42 5,0 5.303,6.575 5.303,10.42 0,3.793 -0.303,10.47 -5.303,10.47z"/>
   <polygon class="fil3" points="189.432,320.57 189.432,292.952 178.979,292.952 172.667,297.403 172.667,306.204 179.029,301.803 180.443,301.803 180.443,320.57 172.667,320.57 172.667,328.359 196.451,328.359 196.451,320.57 "/>
   <path class="fil3" d="M237.816 316.068c-0.455,3.035 -2.677,4.653 -5.909,4.653 -5.252,0 -7.978,-4.35 -7.978,-10.42 0,-6.12 2.726,-10.419 7.978,-10.419 2.828,0 4.899,1.163 5.505,3.54l9.746 0c-1.212,-6.879 -6.716,-11.836 -15.251,-11.836 -11.11,0 -17.573,7.486 -17.573,18.715 0,11.23 6.463,18.716 17.573,18.716 8.888,0 14.594,-5.311 15.554,-12.949l-9.645 0z"/>
   <polygon class="fil3" points="277.055,313.994 277.055,305.901 263.117,305.901 263.117,300.539 281.397,300.539 281.397,292.244 253.725,292.244 253.725,328.359 281.851,328.359 281.851,320.064 263.117,320.064 263.117,313.994 "/>
   <polygon class="fil3" points="287.801,328.359 297.193,328.359 297.193,313.994 304.516,313.994 311.131,328.359 320.574,328.359 312.041,309.796 320.119,292.244 310.676,292.244 304.465,305.547 297.193,305.547 297.193,292.244 287.801,292.244 "/>
   <polygon class="fil3" points="339.165,306.66 331.69,292.244 321.995,292.244 335.378,317.534 330.227,328.359 339.467,328.359 356.739,292.244 347.396,292.244 340.579,306.66 "/>
   <polygon class="fil3" points="384.252,292.244 384.252,305.597 370.87,305.597 370.87,292.244 361.478,292.244 361.478,328.359 370.87,328.359 370.87,314.044 384.252,314.044 384.252,328.359 393.645,328.359 393.645,292.244 "/>
   <path class="fil3" d="M428.944 328.359l0 8.852 9.091 0 0 -17.147 -5.102 0 0 -27.82 -26.663 0 0 11.026c0,7.891 -1.767,13.354 -3.939,16.794l-3.737 0 0 17.147 9.091 0 0 -8.852 21.259 0zm-5.1 -8.295l-12.322 0c2.071,-3.44 3.181,-8.903 3.181,-16.794l0 -2.731 9.141 0 0 19.525z"/>
   <path class="fil3" d="M465.06 292.244l-14.189 0 -10.807 36.115 9.14 0 2.575 -9.358 12.12 0 2.626 9.358 9.342 0 -10.807 -36.115zm-8.332 8.902l2.222 0 2.879 10.47 -8.03 0 2.929 -10.47z"/>
   <path class="fil3" d="M511.14 291.586c-11.666,0 -18.028,7.992 -18.028,18.715 0,10.724 6.362,18.716 18.028,18.716 11.665,0 18.028,-7.992 18.028,-18.716 0,-10.723 -6.363,-18.715 -18.028,-18.715zm0 29.135c-5.606,0 -8.434,-4.35 -8.434,-10.42 0,-6.12 2.828,-10.419 8.434,-10.419 5.605,0 8.433,4.35 8.433,10.419 0,6.07 -2.828,10.42 -8.433,10.42z"/>
   <polygon class="fil3" points="574.727,292.244 543.771,292.244 543.771,300.539 554.526,300.539 554.526,328.359 563.92,328.359 563.92,300.539 574.727,300.539 "/>
   <path class="fil3" d="M595.814 291.586c-11.666,0 -18.028,7.992 -18.028,18.715 0,10.724 6.362,18.716 18.028,18.716 11.665,0 18.027,-7.992 18.027,-18.716 0,-10.723 -6.362,-18.715 -18.027,-18.715zm0 29.135c-5.607,0 -8.434,-4.35 -8.434,-10.42 0,-6.12 2.827,-10.419 8.434,-10.419 5.605,0 8.433,4.35 8.433,10.419 0,6.07 -2.828,10.42 -8.433,10.42z"/>
   <polygon class="fil3" points="643.467,292.244 639.478,305.344 638.064,305.344 634.075,292.244 620.036,292.244 620.036,328.359 628.672,328.359 628.672,303.928 630.085,303.928 634.175,316.928 643.367,316.928 647.457,303.928 648.87,303.928 648.87,328.359 657.506,328.359 657.506,292.244 "/>
   <polygon class="fil3" points="673.993,329.775 673.993,319.558 664.701,319.558 664.701,328.359 668.69,328.359 668.69,329.775 664.145,336.351 669.449,336.351 "/>
   <polygon class="fil3" points="112.979,384 122.372,384 122.372,369.635 129.694,369.635 136.309,384 145.752,384 137.218,365.436 145.298,347.884 135.855,347.884 129.643,361.188 122.372,361.188 122.372,347.884 112.979,347.884 "/>
   <path class="fil3" d="M172.524 347.884l-14.19 0 -10.807 36.116 9.14 0 2.576 -9.358 12.12 0 2.626 9.358 9.342 0 -10.807 -36.116zm-8.332 8.902l2.222 0 2.878 10.471 -8.029 0 2.929 -10.471z"/>
   <polygon class="fil3" points="188.086,384 197.478,384 197.478,369.635 204.8,369.635 211.416,384 220.859,384 212.325,365.436 220.405,347.884 210.962,347.884 204.75,361.188 197.478,361.188 197.478,347.884 188.086,347.884 "/>
   <polygon class="fil3" points="239.719,347.884 239.719,384 251.787,384 262.443,361.188 263.857,361.188 263.857,384 272.441,384 272.441,347.884 260.372,347.884 249.717,370.697 248.303,370.697 248.303,347.884 "/>
   <path class="fil3" d="M292.898 347.884l0 12.14c0,5.766 0.505,11.634 13.382,11.634 2.474,0 5.05,-0.253 7.271,-0.809l0 13.151 9.394 0 0 -36.116 -9.394 0 0 14.821c-1.566,0.455 -3.282,0.658 -4.696,0.658 -6.514,0 -6.565,-2.631 -6.565,-5.211l0 -10.268 -9.392 0z"/>
   <polygon class="fil3" points="354.035,369.635 354.035,361.542 340.097,361.542 340.097,356.18 358.377,356.18 358.377,347.884 330.705,347.884 330.705,384 358.833,384 358.833,375.704 340.097,375.704 340.097,369.635 "/>
   <polygon class="fil3" points="388.212,347.884 384.224,360.985 382.809,360.985 378.82,347.884 364.781,347.884 364.781,384 373.417,384 373.417,359.569 374.83,359.569 378.921,372.568 388.112,372.568 392.203,359.569 393.616,359.569 393.616,384 402.252,384 402.252,347.884 "/>
   <polygon class="fil3" points="423.839,362.3 416.364,347.884 406.669,347.884 420.051,373.176 414.901,384 424.141,384 441.413,347.884 432.07,347.884 425.253,362.3 "/>
   <polygon class="fil3" points="483.637,347.884 479.648,360.985 478.233,360.985 474.244,347.884 460.206,347.884 460.206,384 468.841,384 468.841,359.569 470.254,359.569 474.346,372.568 483.537,372.568 487.627,359.569 489.04,359.569 489.04,384 497.676,384 497.676,347.884 "/>
   <path class="fil3" d="M514.869 359.265l0 -11.381 -9.392 0 0 36.116 15.553 0c8.838,0 13.887,-4.603 13.887,-12.494 0,-7.739 -5.049,-12.241 -13.887,-12.241l-6.161 0zm0 16.692l0 -8.649 4.748 0c4.192,0 5.706,1.467 5.706,4.3 0,2.832 -1.514,4.349 -5.706,4.349l-4.748 0zm32.926 -28.073l-9.393 0 0 36.116 9.393 0 0 -36.116z"/>
   <polygon class="fil3" points="583.422,362.3 575.948,347.884 566.253,347.884 579.635,373.176 574.484,384 583.725,384 600.996,347.884 591.653,347.884 584.835,362.3 "/>
   <path class="fil3" d="M604.371 347.884l0 12.14c0,5.766 0.505,11.634 13.383,11.634 2.473,0 5.049,-0.253 7.272,-0.809l0 13.151 9.392 0 0 -36.116 -9.392 0 0 14.821c-1.566,0.455 -3.284,0.658 -4.697,0.658 -6.515,0 -6.565,-2.631 -6.565,-5.211l0 -10.268 -9.393 0z"/>
   <polygon class="fil3" points="642.178,347.884 642.178,384 654.247,384 664.903,361.188 666.316,361.188 666.316,384 674.901,384 674.901,347.884 662.832,347.884 652.176,370.697 650.763,370.697 650.763,347.884 "/>
   <polygon class="fil3" points="706.097,347.884 702.107,360.985 700.694,360.985 696.704,347.884 682.666,347.884 682.666,384 691.302,384 691.302,359.569 692.715,359.569 696.805,372.568 705.996,372.568 710.086,359.569 711.501,359.569 711.501,384 720.135,384 720.135,347.884 "/>
  </g>
 </g>
</svg>
