<svg width="158" height="98" viewBox="0 0 158 98" fill="none" xmlns="http://www.w3.org/2000/svg">
<g clip-path="url(#clip0)">
<path d="M38.5302 8.81009C37.9502 10.5301 37.3802 12.2501 36.7902 13.9701C35.8602 16.6901 34.9002 19.4001 33.9902 22.1201C33.8302 22.5901 33.6102 22.7601 33.1102 22.7401C32.2502 22.7001 31.3802 22.7001 30.5202 22.7401C30.0202 22.7601 29.8102 22.5901 29.6802 22.1101C28.6102 18.1101 27.5102 14.1101 26.4302 10.1201C26.3302 9.74009 26.2302 9.36009 25.9502 8.99009C25.7702 10.2101 25.5902 11.4301 25.4102 12.6401C24.9302 15.8101 24.4402 18.9901 23.9602 22.1601C23.8802 22.7001 23.7202 22.9901 23.0702 22.9601C21.8702 22.8901 20.6702 22.9301 19.4702 22.9501C19.0602 22.9601 18.9302 22.8601 19.0102 22.4201C20.0502 16.6101 21.0702 10.8001 22.1002 5.00009C22.3302 3.68009 22.5802 2.36009 22.7802 1.04009C22.8602 0.530093 23.0302 0.310093 23.5902 0.330093C25.0502 0.380093 26.5202 0.380093 27.9802 0.330093C28.5502 0.310093 28.7602 0.490093 28.8802 1.04009C29.7702 5.11009 30.6902 9.17009 31.6002 13.2301C31.7602 13.9401 31.9402 14.6601 32.1302 15.4801C32.4102 15.1901 32.4202 14.9301 32.4902 14.6901C33.7402 10.1201 35.0002 5.54009 36.2302 0.960093C36.3502 0.530093 36.4902 0.320093 36.9902 0.330093C38.5002 0.360093 40.0102 0.360093 41.5202 0.330093C42.0102 0.320093 42.1902 0.500093 42.2602 0.960093C43.2802 8.02009 44.3102 15.0901 45.3702 22.1501C45.4702 22.7901 45.3602 22.9801 44.6802 22.9501C43.4802 22.8901 42.2802 22.9001 41.0802 22.9401C40.5102 22.9601 40.3602 22.7501 40.3002 22.2201C39.7602 17.8401 39.2002 13.4701 38.7502 9.08009C38.7402 8.99009 38.7002 8.90009 38.6802 8.82009C38.6302 8.82009 38.5802 8.81009 38.5302 8.81009Z" fill="white"/>
<path d="M3.65014 11.6401C3.65014 8.14007 3.66014 4.64007 3.64014 1.14007C3.64014 0.530068 3.75014 0.320068 4.42014 0.320068C8.21014 0.360068 12.0001 0.350068 15.7801 0.330068C16.3201 0.330068 16.5501 0.440068 16.5201 1.04007C16.4701 1.95007 16.4801 2.86007 16.5201 3.77007C16.5401 4.26007 16.3601 4.37007 15.9101 4.37007C13.7001 4.35007 11.5001 4.38007 9.29014 4.35007C8.66014 4.34007 8.39014 4.47007 8.43014 5.18007C8.49014 6.30007 8.48014 7.43007 8.43014 8.56007C8.39014 9.14007 8.60014 9.28007 9.16014 9.27007C11.1501 9.24007 13.1401 9.30007 15.1301 9.24007C15.8601 9.22007 16.0301 9.46007 15.9901 10.1301C15.9401 10.9201 15.9401 11.7101 15.9901 12.5001C16.0301 13.0901 15.8601 13.2901 15.2401 13.2801C13.2301 13.2401 11.2101 13.2901 9.20014 13.2501C8.61014 13.2401 8.41014 13.4001 8.43014 14.0101C8.47014 15.3801 8.48014 16.7401 8.42014 18.1101C8.39014 18.8101 8.65014 18.9401 9.28014 18.9301C11.5801 18.9001 13.8801 18.9301 16.1801 18.9001C16.7501 18.8901 17.0001 19.0101 16.9601 19.6401C16.9001 20.5201 16.9201 21.4101 16.9601 22.3001C16.9801 22.8201 16.7901 22.9301 16.3001 22.9301C12.3201 22.9101 8.34014 22.9101 4.36014 22.9401C3.78014 22.9401 3.64014 22.7601 3.64014 22.2101C3.65014 18.6901 3.64014 15.1701 3.65014 11.6401C3.64014 11.6401 3.65014 11.6401 3.65014 11.6401Z" fill="white"/>
<path d="M46.6302 11.8801C46.6902 7.4801 48.2702 3.8701 52.2002 1.6001C54.9902 -0.0198996 58.0602 -0.2299 61.2002 0.1701C62.1302 0.2901 63.0402 0.5101 63.9102 0.8501C64.3202 1.0101 64.4402 1.2201 64.3102 1.6701C64.0302 2.5901 63.7902 3.5201 63.5802 4.4501C63.4702 4.9201 63.3402 5.0001 62.8602 4.8101C60.8502 4.0001 58.7802 3.7701 56.6602 4.3201C54.4002 4.9101 52.8602 6.3201 52.1002 8.5201C51.3502 10.7001 51.3602 12.9201 52.1702 15.0801C53.1802 17.7701 55.7702 19.2801 59.0302 19.1801C60.3802 19.1401 61.7102 18.9701 62.9702 18.4501C63.3802 18.2801 63.5002 18.3701 63.5802 18.7901C63.7502 19.7301 63.9402 20.6801 64.1702 21.6101C64.2902 22.0701 64.1302 22.2501 63.7302 22.4101C62.1002 23.0401 60.3902 23.2301 58.6602 23.2801C56.0702 23.3601 53.5902 22.9201 51.3902 21.4801C48.1402 19.3601 46.7902 16.2201 46.6302 12.4601C46.6202 12.2701 46.6302 12.0801 46.6302 11.8801Z" fill="white"/>
<path d="M77.0802 0.0200098C78.7202 0.0700098 80.3302 0.24001 81.8802 0.81001C82.3702 0.99001 82.5402 1.24001 82.3702 1.77001C82.1002 2.61001 81.8902 3.47001 81.6902 4.34001C81.5702 4.86001 81.4102 5.03001 80.8202 4.79001C78.8902 4.00001 76.8902 3.81001 74.8402 4.31001C72.6002 4.86001 71.0502 6.21001 70.2502 8.36001C69.4902 10.4 69.4502 12.5 70.0902 14.57C71.0402 17.65 73.6602 19.33 77.1402 19.19C78.4902 19.14 79.8202 18.97 81.0702 18.44C81.5302 18.25 81.6102 18.48 81.6802 18.82C81.8602 19.71 82.0302 20.6 82.2302 21.49C82.3502 22 82.2202 22.28 81.7102 22.45C79.3602 23.24 76.9402 23.47 74.4902 23.18C70.4102 22.7 67.3102 20.78 65.6302 16.9C64.7802 14.95 64.5802 12.87 64.7402 10.77C65.2502 4.33001 69.8502 0.0800098 76.3602 0.0100098C76.6002 0.0100098 76.8402 0.0200098 77.0802 0.0200098Z" fill="white"/>
<path d="M77.6801 37.3501C77.8601 36.9701 78.0201 36.5801 78.2201 36.2001C79.2701 34.2101 80.3201 32.2101 81.3801 30.2201C81.5501 29.9001 82.6201 29.6701 82.9201 29.8801C83.1301 30.0201 83.0201 30.2301 83.0001 30.4101C82.6601 33.1701 82.3101 35.9301 81.9801 38.6901C81.9201 39.1601 81.6601 39.1901 81.2901 39.1901C80.7501 39.1901 80.8701 38.8201 80.9101 38.5401C81.2001 36.3601 81.5101 34.1701 81.8201 31.9901C81.8501 31.7601 81.9601 31.5401 81.8101 31.2001C81.0601 32.8301 80.2701 34.3501 79.4401 35.8401C78.9301 36.7601 78.4101 37.6801 77.9401 38.6301C77.7401 39.0201 77.4901 39.1501 77.0801 39.0901C76.6501 39.0301 76.7501 38.6701 76.7201 38.4101C76.4001 36.0401 76.0101 33.6701 75.8301 31.1301C75.4301 31.8301 75.4301 32.4801 75.2701 33.0801C74.7901 34.9101 74.3701 36.7501 73.9001 38.5801C73.8301 38.8501 73.8401 39.2001 73.3601 39.2001C72.8701 39.2001 72.6801 39.1501 72.8401 38.5801C73.5801 35.8601 74.2901 33.1201 74.9701 30.3801C75.1501 29.6501 75.6601 29.9101 76.0801 29.8501C76.5601 29.7801 76.6101 30.0801 76.6501 30.4501C76.9101 32.6201 77.3001 34.7701 77.4701 36.9401C77.4701 37.0801 77.4501 37.2401 77.6801 37.3501Z" fill="white"/>
<path d="M140.92 39.1502C140.28 39.1902 139.67 39.3402 139.3 38.6102C139.13 38.2602 138.92 38.4902 138.73 38.6202C138.02 39.1402 137.23 39.3402 136.36 39.3202C134.31 39.2702 133.27 37.3602 134.34 35.5902C134.66 35.0702 135.08 34.6302 135.62 34.3502C136.12 34.0902 136.22 33.8502 135.98 33.3002C135.46 32.1202 135.82 30.8402 136.77 30.1402C137.46 29.6302 138.63 29.5302 139.29 29.9302C139.87 30.2902 140.21 31.0802 140.08 31.8102C139.94 32.5902 139.42 33.1002 138.84 33.5902C138.5 33.8802 137.78 33.8602 137.82 34.4102C137.85 34.8102 138.26 35.1902 138.5 35.5702C138.56 35.6702 138.63 35.7702 138.69 35.8702C139.45 37.0502 139.46 37.0602 140.13 35.7802C140.36 35.3402 140.54 34.8602 140.73 34.4002C140.82 34.1802 140.93 34.0602 141.19 34.0402C141.69 34.0102 141.92 34.0802 141.67 34.6602C141.29 35.5402 140.93 36.4402 140.29 37.1702C139.93 37.5802 140.03 37.8602 140.31 38.2102C140.52 38.5102 140.81 38.7402 140.92 39.1502ZM136.77 38.4902C137.28 38.4702 137.75 38.3102 138.18 38.0302C138.56 37.7902 138.64 37.5602 138.34 37.1702C137.93 36.6402 137.57 36.0802 137.21 35.5102C136.59 34.5302 136.47 34.5102 135.69 35.3702C135.46 35.6202 135.27 35.8902 135.16 36.2102C134.76 37.3902 135.53 38.4902 136.77 38.4902ZM136.76 32.1902C136.86 32.5902 136.78 33.2602 137.24 33.4602C137.67 33.6402 138.07 33.1202 138.45 32.8502C138.47 32.8402 138.48 32.8202 138.5 32.8002C139.05 32.2402 139.22 31.4402 138.9 30.9102C138.63 30.4702 138.22 30.4102 137.77 30.5302C137.2 30.6802 136.77 31.3502 136.76 32.1902Z" fill="white"/>
<path d="M65.7302 52.7401C65.3702 52.8101 65.2902 53.1001 65.0902 53.2501C64.3402 53.8401 63.5202 54.1001 62.6102 53.7201C61.6702 53.3201 61.3702 52.4801 61.3602 51.5501C61.3202 48.3701 64.2202 46.2901 67.2402 47.2901C67.6202 47.4201 67.7802 47.5701 67.7002 48.0001C67.3102 49.9201 66.9902 51.8601 66.5702 53.7801C66.0102 56.3001 64.1402 57.3701 61.7202 56.6201C61.3902 56.5201 60.9902 56.4801 61.1802 55.9201C61.3602 55.3901 61.6302 55.6301 61.9402 55.7301C63.7302 56.3201 65.0002 55.6301 65.5002 53.8001C65.5902 53.4701 65.6502 53.1201 65.7302 52.7401ZM62.5402 51.3201C62.5302 51.9701 62.6502 52.5901 63.3102 52.8901C64.0002 53.2001 64.5602 52.8901 65.0602 52.4201C65.6002 51.9101 65.9202 51.2801 66.0902 50.5701C66.2202 49.9901 66.2702 49.3901 66.4402 48.8201C66.6202 48.1901 66.3702 48.0101 65.8002 47.9501C64.0802 47.7401 62.5602 49.3001 62.5402 51.3201Z" fill="white"/>
<path d="M128.65 37.9001C128.07 38.5801 127.52 39.0201 126.78 39.1401C125.54 39.3501 124.54 38.6101 124.37 37.3701C123.91 34.0201 127.06 31.4701 130.25 32.6001C130.63 32.7301 130.72 32.9301 130.65 33.2901C130.27 35.2401 129.92 37.1901 129.51 39.1301C128.9 42.0301 126.78 42.4201 124.55 41.8801C124.24 41.8001 123.98 41.7101 124.13 41.2401C124.27 40.8001 124.46 40.8601 124.8 40.9701C127.03 41.7201 128.36 40.7201 128.65 37.9001ZM128.32 33.1801C127.84 33.2101 127.37 33.3601 126.95 33.6701C126.04 34.3401 125.63 35.2901 125.48 36.3601C125.36 37.2201 125.69 37.9501 126.27 38.2101C126.86 38.4701 127.58 38.2301 128.17 37.5501C128.57 37.0901 128.86 36.5701 129 35.9701C129.12 35.4301 129.22 34.8901 129.32 34.3501C129.52 33.3701 129.35 33.1701 128.32 33.1801Z" fill="white"/>
<path d="M44.1102 33.54C44.4902 33.17 44.8602 32.8 45.3402 32.58C46.8302 31.91 48.1902 32.63 48.4402 34.24C48.7002 35.9 47.7602 37.96 46.3302 38.83C45.4902 39.34 44.5702 39.47 43.6302 39.21C43.1102 39.06 42.9702 39.22 42.9102 39.7C42.8302 40.31 42.6502 40.92 42.5702 41.53C42.4802 42.2 41.9902 41.89 41.6802 41.9C41.2802 41.91 41.4502 41.56 41.4802 41.36C42.0002 38.56 42.6202 35.79 43.0202 32.97C43.0902 32.5 43.3502 32.48 43.7202 32.49C44.2402 32.51 44.0401 32.84 44.0101 33.1C44.0201 33.22 43.9602 33.36 44.1102 33.54ZM47.3302 34.83C47.2702 34.27 47.1602 33.67 46.5402 33.37C45.9202 33.07 45.3802 33.31 44.8902 33.71C44.4802 34.05 44.1902 34.48 43.9602 34.97C43.6402 35.65 43.5402 36.39 43.4102 37.11C43.2102 38.26 43.6601 38.66 44.8501 38.46C45.3701 38.37 45.7802 38.09 46.1402 37.73C46.9202 36.94 47.2402 35.95 47.3302 34.83Z" fill="white"/>
<path d="M22.89 29.8501C22.98 30.7301 22.54 30.8501 21.89 30.8001C21.15 30.7501 20.4 30.8001 19.66 30.7801C19.29 30.7701 19.1 30.8801 19.04 31.2801C18.95 31.9701 18.79 32.6501 18.65 33.3301C18.58 33.7001 18.69 33.8601 19.09 33.8501C19.88 33.8301 20.67 33.8401 21.46 33.8501C21.63 33.8501 21.97 33.7301 21.91 34.1001C21.87 34.3701 21.93 34.7401 21.42 34.7201C20.63 34.6901 19.84 34.7401 19.05 34.7101C18.55 34.6901 18.31 34.8401 18.24 35.3501C18.13 36.1301 17.97 36.9101 17.81 37.6801C17.73 38.0901 17.85 38.2501 18.28 38.2401C19.21 38.2201 20.15 38.2301 21.09 38.2401C21.27 38.2401 21.6 38.1501 21.51 38.5301C21.45 38.7701 21.54 39.1601 21.09 39.1601C19.65 39.1601 18.21 39.1601 16.77 39.1601C16.33 39.1601 16.51 38.8401 16.54 38.6401C16.83 37.0201 17.14 35.4001 17.45 33.7701C17.67 32.6201 17.89 31.4701 18.11 30.3101C18.16 30.0301 18.22 29.8201 18.59 29.8201C20.03 29.8601 21.46 29.8501 22.89 29.8501Z" fill="white"/>
<path d="M46.01 48.07C46.64 47.63 47.2 47.2 47.93 47.06C49.13 46.83 50.04 47.53 50.04 48.75C50.04 50.39 49.52 51.95 49.28 53.56C49.2 54.11 48.7 53.87 48.39 53.87C47.94 53.88 48.19 53.52 48.22 53.34C48.42 52.21 48.65 51.08 48.86 49.96C49.06 48.91 48.89 48.3 48.32 48.05C47.76 47.8 46.98 48.09 46.37 48.78C45.88 49.34 45.62 50 45.49 50.72C45.32 51.64 45.13 52.55 44.99 53.48C44.9 54.06 44.49 53.87 44.17 53.88C43.69 53.89 43.88 53.53 43.92 53.31C44.46 50.41 45.02 47.52 45.58 44.63C45.63 44.37 45.59 44.04 46.04 44.04C46.53 44.03 46.84 44.02 46.67 44.71C46.38 45.81 46.22 46.94 46.01 48.07Z" fill="white"/>
<path d="M35.5301 52.3601C35.2201 52.7301 35.0001 53.0601 34.7101 53.3301C33.9801 54.0001 33.1201 54.2601 32.1901 53.8601C31.2801 53.4601 31.0501 52.6401 31.0601 51.7201C31.1001 48.5601 33.9201 46.4101 37.0501 47.1601C37.4601 47.2601 37.4501 47.4601 37.3901 47.7801C37.1101 49.2901 36.7401 50.7701 36.5901 52.3001C36.5601 52.6601 36.5001 53.0201 36.5201 53.3701C36.5401 53.8001 36.3601 53.8901 35.9701 53.8901C35.5501 53.8901 35.5001 53.6901 35.5301 53.3501C35.5501 53.0501 35.5301 52.7501 35.5301 52.3601ZM32.2001 51.6401C32.2201 52.1301 32.2601 52.7301 32.8801 53.0201C33.5401 53.3301 34.0901 53.0201 34.5701 52.5801C35.0901 52.1001 35.4501 51.5001 35.6401 50.8201C35.8501 50.0901 35.9401 49.3201 36.1401 48.5901C36.2801 48.0701 36.1101 47.9301 35.6101 47.9101C33.8401 47.8401 32.2301 49.5501 32.2001 51.6401Z" fill="white"/>
<path d="M60.1503 37.5802C59.7203 38.2202 59.3703 38.6702 58.8703 38.9702C57.3203 39.9102 55.7203 39.0402 55.6703 37.2402C55.5803 33.9802 58.4803 31.6702 61.6503 32.4602C62.0403 32.5602 62.0603 32.7302 62.0003 33.0602C61.7403 34.5402 61.3503 36.0002 61.2003 37.5002C61.1603 37.8802 61.1203 38.2602 61.1303 38.6402C61.1403 39.0402 61.0103 39.1802 60.6003 39.1802C60.1303 39.1802 60.1103 38.9402 60.1503 38.5902C60.1703 38.3302 60.1503 38.0502 60.1503 37.5802ZM56.8103 36.9602C56.8603 37.4502 56.9003 38.0602 57.5203 38.3402C58.1503 38.6202 58.6903 38.3502 59.1403 37.9102C59.3903 37.6602 59.6203 37.3802 59.8203 37.0802C60.3903 36.2202 60.4803 35.2002 60.6903 34.2202C60.8903 33.2502 60.6903 33.0502 59.6803 33.2202C58.1103 33.4802 56.8203 35.1202 56.8103 36.9602Z" fill="white"/>
<path d="M78.4102 51.1102C78.4802 49.1002 79.6202 47.5802 81.4002 47.1102C82.9502 46.7002 84.3202 47.5402 84.6502 49.1002C85.0802 51.1302 83.8002 53.3902 81.9402 53.9002C79.8802 54.4602 78.3302 53.2402 78.4102 51.1102ZM79.5602 50.9302C79.5502 52.1402 79.9202 52.7902 80.6502 53.0702C81.3302 53.3302 82.1402 53.0402 82.7202 52.3002C83.3702 51.4702 83.6702 50.5302 83.5602 49.4802C83.4902 48.8302 83.2202 48.2602 82.5602 48.0202C81.9302 47.7902 81.3302 47.9302 80.8102 48.3602C79.9402 49.0902 79.6302 50.0702 79.5602 50.9302Z" fill="white"/>
<path d="M30.3302 49.8601C30.3102 52.1601 28.7202 53.9801 26.7902 54.0301C25.2802 54.0601 24.3502 53.3101 24.0602 51.8401C23.7602 50.2801 24.6802 48.2401 26.0902 47.4701C27.0902 46.9201 28.1502 46.8101 29.1702 47.4201C30.1102 47.9801 30.3802 48.9001 30.3302 49.8601ZM29.2202 49.9501C29.1902 49.1501 29.0402 48.4301 28.2602 48.0501C27.6602 47.7501 26.8102 47.9201 26.2802 48.4801C25.4102 49.4001 25.0102 50.5101 25.2502 51.7801C25.5102 53.1401 26.8802 53.6101 27.9402 52.7201C28.7902 51.9901 29.1202 51.0101 29.2202 49.9501Z" fill="white"/>
<path d="M34.8302 36.0401C34.9102 34.9101 35.4502 33.6101 36.8402 32.7901C37.8302 32.2101 38.8902 32.1001 39.9202 32.6901C40.9302 33.2701 41.1802 34.2501 41.1402 35.3401C41.0702 37.1501 39.8802 38.7901 38.3302 39.2001C36.3002 39.7501 34.7602 38.5401 34.8302 36.0401ZM35.9402 36.4101C35.9402 37.3701 36.3802 38.1401 37.0202 38.3701C37.7102 38.6201 38.4702 38.3701 39.0602 37.6801C39.6902 36.9401 39.9802 36.0601 40.0002 35.1101C40.0202 34.2001 39.5702 33.5101 38.8802 33.2801C38.0602 33.0101 37.4302 33.3601 36.9102 33.9401C36.2602 34.6601 36.0102 35.5501 35.9402 36.4101Z" fill="white"/>
<path d="M20.5701 54.0201C18.1301 54.0501 16.7001 52.6301 16.6801 50.1501C16.6501 46.2901 20.0701 43.5401 23.6001 44.5701C24.0601 44.7001 24.2601 44.8501 24.0101 45.3501C23.8601 45.6601 23.7001 45.6101 23.4501 45.5401C19.5601 44.4201 17.2601 47.9601 18.0001 51.1001C18.3601 52.6301 19.6901 53.3101 21.5801 53.0201C21.8201 52.9801 22.0501 52.9201 22.2801 52.8501C22.5001 52.7801 22.7101 52.6801 22.7801 53.0001C22.8401 53.2701 22.9601 53.5801 22.5501 53.7101C21.9101 53.9101 21.2501 54.0201 20.5701 54.0201Z" fill="white"/>
<path d="M108.32 35.1701C108.3 37.5101 106.63 39.3501 104.55 39.3201C103.25 39.3001 102.38 38.6101 102.08 37.3501C101.67 35.6201 102.62 33.4901 104.17 32.7001C106.3 31.6101 108.34 32.8301 108.32 35.1701ZM103.13 36.8101C103.14 37.4401 103.58 38.1801 104.26 38.3901C105.07 38.6401 105.7 38.2901 106.23 37.7001C106.88 36.9701 107.15 36.0801 107.2 35.1301C107.24 34.2401 106.78 33.5401 106.1 33.2901C105.41 33.0401 104.58 33.3201 104.02 34.0301C103.43 34.7701 103.15 35.6201 103.13 36.8101Z" fill="white"/>
<path d="M74.9302 54.0302C72.6302 54.0402 71.2802 52.8302 71.0702 50.5602C70.7002 46.6002 74.3402 43.5002 78.0402 44.6002C78.5002 44.7402 78.6202 44.9002 78.3902 45.3502C78.2502 45.6302 78.1302 45.6502 77.8402 45.5702C74.2802 44.4902 71.8502 47.4902 72.2802 50.6902C72.5202 52.5302 73.9802 53.4002 76.0402 53.0202C76.2502 52.9802 76.4602 52.9202 76.6702 52.8602C76.8802 52.8002 77.1102 52.6702 77.1602 53.0302C77.2002 53.3002 77.3502 53.6002 76.9202 53.7302C76.2602 53.9102 75.6002 54.0302 74.9302 54.0302Z" fill="white"/>
<path d="M94.7203 48.28C95.2603 47.76 95.7603 47.28 96.5003 47.11C97.8903 46.79 98.8703 47.51 98.7903 48.94C98.7003 50.52 98.2703 52.05 97.9703 53.6C97.8703 54.11 97.4303 53.85 97.1403 53.87C96.7603 53.89 96.9103 53.58 96.9403 53.4C97.1303 52.31 97.3403 51.23 97.5403 50.15C97.5903 49.84 97.6302 49.53 97.6302 49.22C97.6302 48.07 96.8003 47.6 95.8003 48.2C94.8503 48.78 94.4303 49.7 94.2203 50.75C94.0503 51.62 93.9103 52.49 93.7303 53.36C93.6403 53.83 93.1403 54.06 92.7203 53.87C92.4903 53.77 92.5903 53.6 92.6203 53.45C92.9803 51.47 93.3503 49.5 93.6903 47.52C93.7803 47.01 94.1403 47.2 94.4103 47.17C94.7603 47.13 94.7103 47.37 94.6903 47.59C94.6603 47.8 94.6003 48.01 94.7203 48.28Z" fill="white"/>
<path d="M56.2401 48.3002C56.7801 47.7302 57.3701 47.2302 58.1701 47.0602C59.3401 46.8202 60.2701 47.4602 60.2801 48.6602C60.3101 50.3502 59.7601 51.9602 59.4901 53.6102C59.4101 54.0902 58.9401 53.8602 58.6401 53.8602C58.2601 53.8602 58.4301 53.5502 58.4601 53.3802C58.6701 52.2002 58.9101 51.0302 59.1101 49.8502C59.2201 49.1902 59.3501 48.4802 58.6001 48.0702C58.0501 47.7702 57.2401 48.0802 56.6401 48.7602C56.0001 49.5002 55.7901 50.4002 55.6301 51.3302C55.5101 52.0402 55.3101 52.7302 55.2401 53.4402C55.1701 54.0902 54.7201 53.8802 54.3901 53.8702C53.9301 53.8602 54.1301 53.5002 54.1701 53.2802C54.5001 51.4502 54.8701 49.6202 55.1801 47.7802C55.2601 47.3202 55.3901 47.1002 55.8801 47.1602C56.4901 47.2402 56.1201 47.6602 56.1701 47.9302C56.2001 48.0302 56.1001 48.1502 56.2401 48.3002Z" fill="white"/>
<path d="M27.3901 38.2002C26.8901 38.5402 26.4901 38.9102 25.9801 39.1202C24.4501 39.7602 23.2401 38.9802 23.2901 37.3402C23.3401 35.8002 23.8101 34.3302 24.0601 32.8202C24.1401 32.3102 24.5801 32.5002 24.8801 32.4902C25.3001 32.4802 25.1501 32.8002 25.1201 33.0102C24.9101 34.1602 24.6901 35.3102 24.4701 36.4702C24.2901 37.4802 24.4601 38.0702 25.0001 38.3202C25.5801 38.5902 26.3501 38.3002 26.9501 37.5902C27.4001 37.0602 27.6301 36.4402 27.7601 35.7702C27.9301 34.9002 28.1101 34.0302 28.2301 33.1602C28.3101 32.6302 28.5401 32.4302 29.0801 32.4902C29.4001 32.5202 29.5001 32.6002 29.4301 32.9302C29.0301 34.9002 28.6001 36.8602 28.3301 38.8502C28.2701 39.3202 27.9301 39.1602 27.6801 39.1902C27.3601 39.2202 27.3301 39.0302 27.3701 38.7802C27.3801 38.5802 27.3801 38.3902 27.3901 38.2002Z" fill="white"/>
<path d="M89.8602 52.6701C89.1302 53.4801 88.4702 54.0001 87.5302 54.0301C86.4102 54.0601 85.7902 53.4901 85.7402 52.3501C85.6802 51.1101 86.0802 49.9401 86.2602 48.7301C86.3102 48.3801 86.4502 48.0301 86.4702 47.6801C86.5002 47.2201 86.7502 47.1701 87.1302 47.1601C87.5802 47.1501 87.6602 47.3301 87.5802 47.7201C87.3602 48.8001 87.1602 49.8801 86.9602 50.9601C86.9102 51.2401 86.8602 51.5301 86.8602 51.8101C86.8602 52.2401 86.8602 52.7101 87.3102 52.9401C87.7602 53.1701 88.2402 53.1401 88.6902 52.8701C89.4702 52.3901 89.9302 51.6701 90.1202 50.8001C90.3402 49.8201 90.5402 48.8301 90.6802 47.8301C90.7602 47.2701 90.9802 47.1201 91.5202 47.1401C91.9602 47.1601 91.8902 47.3501 91.8302 47.6401C91.5102 49.3101 91.2002 50.9801 90.8802 52.6501C90.8402 52.8601 90.7902 53.0801 90.7902 53.2901C90.7902 53.7501 90.5902 53.9101 90.1302 53.8801C89.5502 53.8401 89.8502 53.4501 89.8302 53.2001C89.8102 53.1001 89.8402 52.9801 89.8602 52.6701Z" fill="white"/>
<path d="M118.88 33.5302C119.48 33.0902 119.99 32.6302 120.69 32.4402C122.11 32.0402 123.12 32.7602 123.06 34.2302C123 35.7902 122.54 37.3002 122.28 38.8302C122.19 39.3902 121.72 39.1902 121.41 39.1702C121.01 39.1402 121.2 38.8102 121.24 38.6102C121.45 37.4102 121.68 36.2102 121.9 35.0002C121.97 34.6202 121.99 34.2302 121.84 33.8602C121.62 33.3002 120.95 33.0702 120.32 33.3802C119.32 33.8702 118.8 34.7402 118.57 35.7902C118.36 36.7502 118.15 37.7102 118.02 38.6802C117.94 39.2802 117.57 39.2002 117.2 39.1802C116.69 39.1502 116.91 38.7702 116.95 38.5302C117.27 36.7202 117.6 34.9002 117.94 33.0902C117.98 32.8702 117.91 32.5302 118.31 32.4902C118.78 32.4502 119.15 32.4902 118.95 33.1202C118.91 33.2502 118.9 33.3902 118.88 33.5302Z" fill="white"/>
<path d="M65.0601 33.5902C65.5301 33.2102 65.8901 32.7902 66.4101 32.5702C68.0501 31.8702 69.3401 32.7002 69.1501 34.4602C69.0001 35.9102 68.6601 37.3402 68.4001 38.7702C68.2901 39.3502 67.8301 39.1902 67.4901 39.1602C67.0501 39.1202 67.3201 38.7902 67.3501 38.6102C67.5601 37.3802 67.8001 36.1602 68.0101 34.9302C68.1101 34.3502 68.1301 33.7302 67.5401 33.3902C66.9001 33.0202 66.3301 33.3202 65.8301 33.7402C65.1901 34.2902 64.8201 35.0102 64.6501 35.8302C64.4701 36.7502 64.2601 37.6602 64.1401 38.5902C64.0601 39.1702 63.7501 39.2402 63.3001 39.1602C62.7701 39.0702 63.0301 38.6802 63.0701 38.4302C63.3801 36.6602 63.7301 34.9002 64.0301 33.1202C64.1101 32.6802 64.2001 32.4102 64.7301 32.4702C65.3701 32.5402 64.9401 32.9702 65.0101 33.2302C65.0401 33.3202 65.0401 33.4202 65.0601 33.5902Z" fill="white"/>
<path d="M92.2101 33.6902C92.8901 32.9102 93.5501 32.4202 94.4501 32.3502C95.5601 32.2702 96.2401 32.8202 96.3401 33.9302C96.3701 34.2102 96.3601 34.5102 96.3101 34.7902C96.0801 36.0902 95.8001 37.3802 95.6001 38.6802C95.5001 39.3202 95.0701 39.2102 94.6901 39.1702C94.1301 39.1102 94.5101 38.7102 94.5401 38.5102C94.7301 37.3002 94.9801 36.1102 95.1901 34.9002C95.2901 34.3102 95.2801 33.7102 94.6801 33.3802C94.0701 33.0502 93.5201 33.3102 93.0301 33.7202C92.3401 34.3002 91.9701 35.0602 91.8001 35.9402C91.6201 36.8602 91.4101 37.7702 91.2901 38.6902C91.2101 39.3002 90.8201 39.1902 90.4601 39.1702C89.9401 39.1302 90.1901 38.7502 90.2301 38.5202C90.5501 36.7302 90.9001 34.9402 91.2101 33.1402C91.2801 32.7302 91.3301 32.4002 91.8901 32.4702C92.5001 32.5502 92.1501 32.9702 92.2001 33.2402C92.2201 33.3302 92.2101 33.4202 92.2101 33.6902Z" fill="white"/>
<path d="M52.1102 39.3201C50.5302 39.3301 49.6902 38.6401 49.4302 37.2201C49.0702 35.2901 50.4002 33.0001 52.1902 32.4601C52.7302 32.3001 53.2802 32.2801 53.8202 32.4601C54.4402 32.6601 54.8602 33.0501 54.9502 33.7201C55.0502 34.4201 54.9102 35.0501 54.2802 35.4901C53.6702 35.9201 52.9802 36.0701 52.2602 36.1501C52.0702 36.1701 51.8702 36.1301 51.6902 36.1901C51.2802 36.3101 50.6502 35.9301 50.5002 36.6101C50.3402 37.3101 50.8502 38.1001 51.5202 38.3301C52.1902 38.5601 52.8402 38.4301 53.4902 38.2201C53.6702 38.1601 53.9302 37.8801 54.0402 38.3201C54.1302 38.6301 54.1002 38.8601 53.7402 38.9901C53.1602 39.1901 52.5702 39.2701 52.1102 39.3201ZM53.0202 33.1801C52.0102 33.1701 50.7902 34.2601 50.7302 35.0701C50.7102 35.2601 50.7702 35.3401 50.9602 35.3401C51.7802 35.3701 52.6002 35.3601 53.3402 34.9601C53.7502 34.7401 54.0002 34.4001 53.8802 33.9001C53.7502 33.3601 53.3502 33.2001 53.0202 33.1801Z" fill="white"/>
<path d="M83.8401 36.4302C83.9001 35.2102 84.3901 34.0002 85.4901 33.0802C86.2101 32.4802 87.0501 32.2402 87.9701 32.3902C88.7601 32.5102 89.2901 33.0002 89.4201 33.7002C89.5601 34.4702 89.2401 35.2102 88.5701 35.6102C87.6701 36.1402 86.6601 36.2102 85.6501 36.2102C84.9801 36.2102 84.8301 36.4602 84.9801 37.0802C85.2001 37.9902 85.7201 38.4402 86.6501 38.4502C87.1101 38.4502 87.5601 38.3902 87.9901 38.2102C88.2201 38.1102 88.4201 38.0002 88.5201 38.3902C88.6001 38.7002 88.5801 38.8802 88.2501 38.9902C87.3501 39.3002 86.4401 39.4602 85.5001 39.2102C84.4201 38.9102 83.8501 37.9802 83.8401 36.4302ZM85.9301 35.3402C86.5501 35.3702 87.0901 35.2502 87.6001 35.0502C88.1601 34.8402 88.5001 34.4402 88.3301 33.8402C88.1501 33.2102 87.6101 33.1202 87.0601 33.2102C86.3201 33.3302 85.8401 33.8302 85.4801 34.4502C85.3401 34.6902 85.0701 34.9702 85.2001 35.2302C85.3501 35.5002 85.7301 35.2902 85.9301 35.3402Z" fill="white"/>
<path d="M102.57 54.0201C100.82 54.0101 99.8702 53.0401 99.8802 51.3701C99.9002 48.9501 101.78 46.9701 104.02 47.0301C104.3 47.0401 104.59 47.1001 104.87 47.1601C105.12 47.2201 105.41 47.2601 105.24 47.6701C105.12 47.9401 105.09 48.1701 104.66 48.0801C102.59 47.6601 100.75 49.4501 101.04 51.5501C101.22 52.8601 102.11 53.3601 103.6 53.0401C103.82 52.9901 104.17 52.5601 104.33 53.1401C104.47 53.6301 104.16 53.7801 103.78 53.8701C103.34 53.9501 102.92 54.0601 102.57 54.0201Z" fill="white"/>
<path d="M38.2302 51.3601C38.2402 48.6101 40.6402 46.5001 43.0802 47.1301C43.3202 47.1901 43.7202 47.1201 43.5802 47.6201C43.4702 47.9801 43.3802 48.1801 42.9002 48.0501C41.8302 47.7701 40.9002 48.0901 40.2002 48.9601C39.4402 49.9101 39.1002 50.9901 39.5202 52.1801C39.8202 53.0401 40.7402 53.3101 41.9202 53.0301C42.1502 52.9701 42.4802 52.5801 42.6502 53.1601C42.8102 53.7101 42.4302 53.7801 42.0902 53.8601C41.7202 53.9501 41.3402 54.0101 40.9602 54.0201C39.1602 54.0701 38.2302 53.1501 38.2302 51.3601Z" fill="white"/>
<path d="M98.1002 37.85C98.2102 36.56 98.5602 35.23 98.8002 33.89C98.8702 33.49 98.8402 33.29 98.3902 33.32C98.1502 33.34 97.9602 33.29 98.0202 32.97C98.0602 32.74 98.0402 32.45 98.4002 32.5C99.0402 32.59 99.1702 32.22 99.2102 31.7C99.2502 31.07 99.8002 31.1 100.21 30.98C100.36 30.94 100.43 31.04 100.41 31.19C100.39 31.33 100.35 31.47 100.32 31.61C100.14 32.48 100.14 32.47 101.03 32.5C101.27 32.51 101.7 32.27 101.7 32.84C101.69 33.34 101.36 33.37 101.01 33.32C100.21 33.2 99.8702 33.49 99.8002 34.32C99.7102 35.36 99.4302 36.39 99.2602 37.42C99.1602 38.01 99.3502 38.42 100.04 38.4C100.25 38.39 100.42 38.43 100.4 38.71C100.39 38.92 100.41 39.12 100.16 39.25C99.1902 39.71 98.0702 38.99 98.1002 37.85Z" fill="white"/>
<path d="M109 53.8702C108.62 53.9302 108.5 53.8102 108.58 53.4002C109.16 50.4202 109.73 47.4302 110.28 44.4402C110.39 43.8202 110.84 44.0302 111.18 44.0402C111.61 44.0502 111.4 44.4002 111.36 44.5802C110.81 47.5202 110.24 50.4502 109.7 53.3902C109.61 53.8602 109.38 53.9302 109 53.8702Z" fill="white"/>
<path d="M111.17 33.8901C111.63 33.2401 111.97 32.7102 112.58 32.4702C112.85 32.3602 113.15 32.2501 113.41 32.3901C113.64 32.5201 113.46 32.7801 113.44 32.9801C113.42 33.3501 113.19 33.4102 112.87 33.4502C112.16 33.5402 111.76 34.0602 111.42 34.6302C110.83 35.6002 110.78 36.7302 110.54 37.7902C110.47 38.0902 110.41 38.4001 110.38 38.7101C110.32 39.3201 109.87 39.1802 109.51 39.1502C109.03 39.1202 109.28 38.7601 109.31 38.5501C109.63 36.6601 110.07 34.7902 110.28 32.8802C110.33 32.4502 110.57 32.4802 110.88 32.4702C111.3 32.4602 111.28 32.7102 111.25 32.9902C111.22 33.2302 111.2 33.4601 111.17 33.8901Z" fill="white"/>
<path d="M32.4102 33.7201C32.8102 33.0501 33.2802 32.5101 34.0502 32.3701C34.2402 32.3401 34.6002 32.2501 34.5802 32.5001C34.5602 32.8001 34.6902 33.3501 34.2402 33.4101C32.8902 33.5801 32.4302 34.5701 32.1102 35.6401C31.8202 36.6201 31.6402 37.6501 31.5002 38.6701C31.4102 39.3201 30.9902 39.2201 30.6102 39.1601C30.1302 39.0901 30.3802 38.7101 30.4202 38.4701C30.7302 36.7001 31.1402 34.9501 31.3502 33.1701C31.4002 32.7501 31.4602 32.4201 32.0102 32.4801C32.6502 32.5401 32.2702 32.9601 32.3002 33.2301C32.3202 33.3601 32.2202 33.5001 32.4102 33.7201Z" fill="white"/>
<path d="M106.09 53.8701C105.61 53.9401 105.48 53.8301 105.58 53.3301C105.97 51.4901 106.33 49.6301 106.64 47.7801C106.74 47.1701 107.06 47.1401 107.53 47.1601C107.79 47.1801 107.86 47.2501 107.81 47.5101C107.42 49.5001 107.04 51.5001 106.67 53.4901C106.6 53.8701 106.38 53.9401 106.09 53.8701Z" fill="white"/>
<path d="M114.23 39.1701C113.78 39.2501 113.63 39.0702 113.72 38.6102C114.1 36.7202 114.48 34.8201 114.82 32.9201C114.93 32.3101 115.36 32.4702 115.7 32.4902C116.16 32.5202 115.91 32.8801 115.87 33.0901C115.53 34.9502 115.17 36.8002 114.83 38.6502C114.76 39.0202 114.64 39.2601 114.23 39.1701Z" fill="white"/>
<path d="M51.6702 53.8602C51.1602 53.9602 51.0602 53.7902 51.1602 53.3302C51.5502 51.4302 51.9202 49.5302 52.2502 47.6302C52.3602 47.0202 52.7602 47.1602 53.1002 47.1802C53.5502 47.2102 53.3602 47.5602 53.3102 47.7802C52.9602 49.6302 52.6002 51.4802 52.2502 53.3402C52.1902 53.7102 52.1202 54.0102 51.6702 53.8602Z" fill="white"/>
<path d="M116.49 30.49C116.49 30.96 116.27 31.25 115.81 31.27C115.37 31.3 115.13 31.03 115.13 30.62C115.14 30.2 115.34 29.88 115.81 29.86C116.27 29.83 116.46 30.09 116.49 30.49Z" fill="white"/>
<path d="M52.5801 45.42C52.5901 44.87 52.8001 44.59 53.2601 44.57C53.6901 44.55 53.9301 44.79 53.9301 45.22C53.9301 45.67 53.6801 45.93 53.2401 45.97C52.8001 46 52.6101 45.73 52.5801 45.42Z" fill="white"/>
<path d="M107.63 45.97C107.16 45.97 106.98 45.67 107 45.28C107.03 44.86 107.25 44.55 107.73 44.57C108.18 44.58 108.37 44.85 108.35 45.27C108.34 45.72 108.1 45.97 107.63 45.97Z" fill="white"/>
<path d="M155.05 64.57L150.63 66.25C148.63 67.01 146.39 66 145.63 64L143.95 59.58C143.19 57.58 144.2 55.34 146.2 54.58L150.62 52.9C152.62 52.14 154.86 53.15 155.62 55.15L157.3 59.57C158.05 61.58 157.05 63.81 155.05 64.57Z" fill="#E5A12B"/>
<path d="M129.7 79.24L125.56 80.81C123.68 81.52 121.59 80.58 120.88 78.7L119.31 74.56C118.6 72.68 119.54 70.59 121.42 69.88L125.56 68.31C127.44 67.6 129.53 68.54 130.24 70.42L131.81 74.56C132.52 76.43 131.58 78.52 129.7 79.24Z" fill="#EAB35D"/>
<path d="M101.8 91.1301L99.0301 92.1801C97.1101 92.9101 94.9601 91.9401 94.2301 90.0201L93.1801 87.2501C92.4501 85.3301 93.4201 83.1801 95.3401 82.4501L98.1101 81.4001C100.03 80.6701 102.18 81.6401 102.91 83.5601L103.96 86.3301C104.68 88.2501 103.72 90.4001 101.8 91.1301Z" fill="#ECBD71"/>
<path d="M72.2301 96.7001L69.7001 97.6601C67.9401 98.3301 65.9701 97.4401 65.3001 95.6801L64.3401 93.1501C63.6701 91.3901 64.5601 89.4201 66.3201 88.7501L68.8501 87.7901C70.6101 87.1201 72.5801 88.0101 73.2501 89.7701L74.2101 92.3001C74.8701 94.0601 73.9901 96.0301 72.2301 96.7001Z" fill="#F0C485"/>
<path d="M43.8101 92.4601L41.4701 93.3501C39.8501 93.9701 38.0301 93.1501 37.4201 91.5301L36.5301 89.1901C35.9101 87.5701 36.7301 85.7501 38.3501 85.1401L40.6901 84.2501C42.3101 83.6301 44.1301 84.4501 44.7401 86.0701L45.6301 88.4101C46.2401 90.0301 45.4301 91.8401 43.8101 92.4601Z" fill="#F3D095"/>
<path d="M21.6799 80.62L19.5699 81.42C18.0999 81.98 16.4599 81.24 15.8999 79.77L15.0999 77.66C14.5399 76.19 15.2799 74.55 16.7499 73.99L18.8599 73.19C20.3299 72.63 21.9699 73.37 22.5299 74.84L23.3299 76.95C23.8899 78.42 23.1499 80.06 21.6799 80.62Z" fill="#F6D9A9"/>
<path d="M5.93002 63.94L4.08002 64.64C2.79002 65.13 1.36002 64.48 0.870019 63.2L0.170019 61.35C-0.319981 60.06 0.330019 58.63 1.61002 58.14L3.46002 57.44C4.75002 56.95 6.18002 57.6 6.67002 58.88L7.37002 60.73C7.86002 62.01 7.22002 63.45 5.93002 63.94Z" fill="#F7E1BE"/>
</g>
<defs>
<clipPath id="clip0">
<rect width="157.55" height="97.88" fill="white"/>
</clipPath>
</defs>
</svg>
