<svg width="21" height="15" viewBox="0 0 21 15" fill="none" xmlns="http://www.w3.org/2000/svg">
<path d="M18.8584 0C19.3662 0 19.7959 0.195312 20.1865 0.546875C20.5381 0.9375 20.7334 1.36719 20.7334 1.875V13.125C20.7334 13.6719 20.5381 14.1016 20.1865 14.4531C19.7959 14.8438 19.3662 15 18.8584 15H2.6084C2.06152 15 1.63184 14.8438 1.28027 14.4531C0.889648 14.1016 0.733398 13.6719 0.733398 13.125V1.875C0.733398 1.36719 0.889648 0.9375 1.28027 0.546875C1.63184 0.195312 2.06152 0 2.6084 0H18.8584ZM18.8584 1.875H2.6084V3.47656C3.50684 4.21875 5.26465 5.58594 7.88184 7.61719L8.2334 7.92969C8.74121 8.39844 9.1709 8.71094 9.4834 8.86719C9.95215 9.21875 10.3818 9.375 10.7334 9.375C11.0459 9.375 11.4756 9.21875 11.9834 8.86719C12.2959 8.71094 12.6865 8.39844 13.2334 7.92969L13.585 7.61719C16.1631 5.625 17.9209 4.25781 18.8584 3.47656V1.875ZM2.6084 13.125H18.8584V5.85938L14.3271 9.45312C13.6631 10 13.1162 10.3906 12.7256 10.625C12.0225 11.0547 11.3584 11.25 10.7334 11.25C10.1084 11.25 9.40527 11.0547 8.70215 10.625C8.31152 10.3906 7.76465 10 7.10059 9.45312L2.6084 5.85938V13.125Z" fill="white"/>
</svg>
