<svg width="1120" height="672" viewBox="0 0 1120 672" fill="none" xmlns="http://www.w3.org/2000/svg">
<g clip-path="url(#clip0)">
<rect width="1120" height="672" fill="black"/>
<rect width="225" height="224" fill="#1488CC"/>
<rect x="672" y="224" width="225" height="224" fill="#283CB5"/>
<rect x="225" width="112" height="224" fill="white"/>
<rect x="336" width="112" height="224" fill="black"/>
<rect y="224" width="112" height="224" fill="#283CB5"/>
<rect y="448" width="112" height="224" fill="#1488CC"/>
<rect x="448" width="672" height="224" fill="#283CB5"/>
<rect x="112" y="448" width="448" height="224" fill="#283CB5"/>
<path fill-rule="evenodd" clip-rule="evenodd" d="M560.5 0H673L560.5 224H448L560.5 0Z" fill="#1488CC"/>
<path fill-rule="evenodd" clip-rule="evenodd" d="M224.5 448H337L224.5 672H112L224.5 448Z" fill="#1488CC"/>
<path fill-rule="evenodd" clip-rule="evenodd" d="M447.5 448H560L447.5 672H335L447.5 448Z" fill="#1488CC"/>
<path fill-rule="evenodd" clip-rule="evenodd" d="M337 112L225 0L225 224L337 112Z" fill="#1488CC"/>
<path fill-rule="evenodd" clip-rule="evenodd" d="M448 112L336 0V224L448 112Z" fill="white"/>
<rect x="560" y="448" width="225" height="224" fill="#283CB5"/>
<rect x="785" y="448" width="335" height="224" fill="#1488CC"/>
<rect x="897" y="224" width="112" height="224" fill="#1488CC"/>
<rect x="1008" y="225" width="112" height="224" fill="black"/>
<ellipse cx="672.5" cy="560" rx="112.5" ry="112" fill="black"/>
<ellipse cx="895.5" cy="560" rx="112.5" ry="112" fill="white"/>
<circle cx="1120" cy="560" r="112" fill="black"/>
<path fill-rule="evenodd" clip-rule="evenodd" d="M784.5 0H897L784.5 224H672L784.5 0Z" fill="black"/>
<path fill-rule="evenodd" clip-rule="evenodd" d="M1007.5 0H1120L1007.5 224H895L1007.5 0Z" fill="#1488CC"/>
<path fill-rule="evenodd" clip-rule="evenodd" d="M223 337L111 225L111 449L223 337Z" fill="#283CB5"/>
<ellipse cx="672.5" cy="336" rx="112.5" ry="112" fill="#283CB5"/>
</g>
<defs>
<clipPath id="clip0">
<rect width="1120" height="672" fill="white"/>
</clipPath>
</defs>
</svg>
