<svg width="1160" height="545" viewBox="0 0 1160 545" fill="none" xmlns="http://www.w3.org/2000/svg">
<g clip-path="url(#clip0)">
<path d="M122.61 104.14C-174.31 224.06 165.69 527.39 236.61 519.14" stroke="#1488CC" stroke-opacity="0.1667" stroke-miterlimit="10"/>
<path d="M122.61 104.14C-163.47 257.72 152.53 546.39 236.61 519.14" stroke="#1488CC" stroke-opacity="0.3333" stroke-miterlimit="10"/>
<path d="M122.61 104.14C-152.64 291.39 139.36 565.39 236.61 519.14" stroke="#1488CC" stroke-opacity="0.5" stroke-miterlimit="10"/>
<path d="M122.61 104.14C-141.81 325.06 126.19 584.39 236.61 519.14" stroke="#1488CC" stroke-opacity="0.6667" stroke-miterlimit="10"/>
<path d="M122.61 104.14C-130.97 358.72 113.03 603.39 236.61 519.14" stroke="#1488CC" stroke-opacity="0.8333" stroke-miterlimit="10"/>
<path d="M122.61 104.14C-120.14 392.39 99.8599 622.39 236.61 519.14" stroke="#1488CC" stroke-miterlimit="10"/>
<path d="M1158.61 90.1399C1032.69 230.89 657.69 542.56 236.61 519.14" stroke="#1488CC" stroke-opacity="0.1667" stroke-miterlimit="10"/>
<path d="M1158.61 90.1399C1061.53 294.39 603.53 508.72 236.61 519.14" stroke="#1488CC" stroke-opacity="0.3333" stroke-miterlimit="10"/>
<path d="M1158.61 90.1399C1090.36 357.89 549.36 474.89 236.61 519.14" stroke="#1488CC" stroke-opacity="0.5" stroke-miterlimit="10"/>
<path d="M1158.61 90.1399C1119.19 421.39 495.19 441.06 236.61 519.14" stroke="#1488CC" stroke-opacity="0.6667" stroke-miterlimit="10"/>
<path d="M1158.61 90.1399C1148.03 484.89 441.03 407.22 236.61 519.14" stroke="#1488CC" stroke-opacity="0.8333" stroke-miterlimit="10"/>
<path d="M1158.61 90.1399C1176.86 548.39 386.86 373.39 236.61 519.14" stroke="#1488CC" stroke-miterlimit="10"/>
<path d="M1158.61 90.1402C769.86 268.39 520.86 -195.61 122.61 104.14" stroke="#1488CC" stroke-miterlimit="10"/>
<path d="M1158.61 90.1403C760.86 214.89 537.86 -128.28 122.61 104.14" stroke="#1488CC" stroke-opacity="0.8333" stroke-miterlimit="10"/>
<path d="M1158.61 90.1401C751.86 161.39 554.86 -60.9399 122.61 104.14" stroke="#1488CC" stroke-opacity="0.6667" stroke-miterlimit="10"/>
<path d="M1158.61 90.1401C742.86 107.89 571.86 6.39015 122.61 104.14" stroke="#1488CC" stroke-opacity="0.5" stroke-miterlimit="10"/>
<path d="M1158.61 90.1401C733.86 54.3901 588.86 73.7201 122.61 104.14" stroke="#1488CC" stroke-opacity="0.3333" stroke-miterlimit="10"/>
<path d="M1158.61 90.1402C724.86 0.890173 605.86 141.06 122.61 104.14" stroke="#1488CC" stroke-opacity="0.1667" stroke-miterlimit="10"/>
</g>
<defs>
<clipPath id="clip0">
<rect width="1159.42" height="544.77" fill="white"/>
</clipPath>
</defs>
</svg>
